M48
; DRILL file {KiCad (6.0.5)} date Sun Jun 25 14:06:10 2023
; FORMAT={-:-/ absolute / inch / decimal}
; #@! TF.CreationDate,2023-06-25T14:06:10-03:00
; #@! TF.GenerationSoftware,Kicad,Pcbnew,(6.0.5)
; #@! TF.FileFunction,Plated,1,2,PTH
FMAT,2
INCH
; #@! TA.AperFunction,Plated,PTH,ComponentDrill
T1C0.0315
; #@! TA.AperFunction,Plated,PTH,ComponentDrill
T2C0.0394
; #@! TA.AperFunction,Plated,PTH,ComponentDrill
T3C0.0512
%
G90
G05
T1
X3.05Y-3.75
X3.35Y-3.75
X3.55Y-3.75
X3.85Y-3.75
X4.3Y-3.75
X4.6Y-3.75
X5.05Y-3.75
X5.35Y-3.75
X5.8Y-3.75
X6.1Y-3.75
X6.55Y-3.75
X6.85Y-3.75
X7.3Y-3.75
X7.6Y-3.75
X8.05Y-3.75
X8.35Y-3.75
T2
X3.1Y-3.4
X3.1Y-3.5
X3.1Y-3.6
T3
X3.4543Y-3.3016
X3.4543Y-3.4984
X3.9465Y-3.3016
X3.9465Y-3.4984
X4.2043Y-3.3016
X4.2043Y-3.4984
X4.6965Y-3.3016
X4.6965Y-3.4984
X4.9543Y-3.3016
X4.9543Y-3.4984
X5.4465Y-3.3016
X5.4465Y-3.4984
X5.7043Y-3.3016
X5.7043Y-3.4984
X6.1965Y-3.3016
X6.1965Y-3.4984
X6.4543Y-3.3016
X6.4543Y-3.4984
X6.9465Y-3.3016
X6.9465Y-3.4984
X7.2043Y-3.3016
X7.2043Y-3.4984
X7.6965Y-3.3016
X7.6965Y-3.4984
X7.9543Y-3.3016
X7.9543Y-3.4984
X8.4465Y-3.3016
X8.4465Y-3.4984
T0
M30
