%TF.GenerationSoftware,KiCad,Pcbnew,(6.0.5)*%
%TF.CreationDate,2023-06-12T09:42:46-03:00*%
%TF.ProjectId,deforminator,6465666f-726d-4696-9e61-746f722e6b69,rev?*%
%TF.SameCoordinates,Original*%
%TF.FileFunction,Copper,L2,Bot*%
%TF.FilePolarity,Positive*%
%FSLAX46Y46*%
G04 Gerber Fmt 4.6, Leading zero omitted, Abs format (unit mm)*
G04 Created by KiCad (PCBNEW (6.0.5)) date 2023-06-12 09:42:46*
%MOMM*%
%LPD*%
G01*
G04 APERTURE LIST*
%TA.AperFunction,ComponentPad*%
%ADD10C,1.600000*%
%TD*%
%TA.AperFunction,ComponentPad*%
%ADD11O,1.600000X1.600000*%
%TD*%
%TA.AperFunction,ComponentPad*%
%ADD12C,2.000000*%
%TD*%
%TA.AperFunction,ComponentPad*%
%ADD13R,1.700000X1.700000*%
%TD*%
%TA.AperFunction,ComponentPad*%
%ADD14O,1.700000X1.700000*%
%TD*%
%TA.AperFunction,ComponentPad*%
%ADD15R,1.800000X1.800000*%
%TD*%
%TA.AperFunction,ComponentPad*%
%ADD16C,1.800000*%
%TD*%
%TA.AperFunction,ComponentPad*%
%ADD17R,1.600000X1.600000*%
%TD*%
%TA.AperFunction,SMDPad,CuDef*%
%ADD18R,2.500000X1.000000*%
%TD*%
%TA.AperFunction,SMDPad,CuDef*%
%ADD19R,1.000000X1.800000*%
%TD*%
%TA.AperFunction,ViaPad*%
%ADD20C,2.000000*%
%TD*%
%TA.AperFunction,Conductor*%
%ADD21C,1.500000*%
%TD*%
G04 APERTURE END LIST*
D10*
%TO.P,R8,1*%
%TO.N,Vdd*%
X159040000Y-101600000D03*
D11*
%TO.P,R8,2*%
%TO.N,Net-(D3-Pad2)*%
X166660000Y-101600000D03*
%TD*%
D12*
%TO.P,SWreset1,1,1*%
%TO.N,GND*%
X171450000Y-87070000D03*
X171450000Y-80570000D03*
%TO.P,SWreset1,2,2*%
%TO.N,Net-(R2-Pad1)*%
X166950000Y-87070000D03*
X166950000Y-80570000D03*
%TD*%
D10*
%TO.P,R4,1*%
%TO.N,Net-(R4-Pad1)*%
X162850000Y-90170000D03*
D11*
%TO.P,R4,2*%
%TO.N,Vdd*%
X162850000Y-97790000D03*
%TD*%
D13*
%TO.P,J1,1,Pin_1*%
%TO.N,Net-(A1-Pad3)*%
X99340000Y-92710000D03*
D14*
%TO.P,J1,2,Pin_2*%
%TO.N,Net-(A1-Pad4)*%
X99340000Y-95250000D03*
%TO.P,J1,3,Pin_3*%
%TO.N,Net-(A1-Pad5)*%
X99340000Y-97790000D03*
%TO.P,J1,4,Pin_4*%
%TO.N,Net-(A1-Pad6)*%
X99340000Y-100330000D03*
%TD*%
D10*
%TO.P,R2,1*%
%TO.N,Net-(R2-Pad1)*%
X159040000Y-90170000D03*
D11*
%TO.P,R2,2*%
%TO.N,Vdd*%
X159040000Y-97790000D03*
%TD*%
D10*
%TO.P,R1,1*%
%TO.N,Vdd*%
X155230000Y-93980000D03*
D11*
%TO.P,R1,2*%
%TO.N,Net-(R1-Pad2)*%
X155230000Y-86360000D03*
%TD*%
D15*
%TO.P,D3,1,K*%
%TO.N,GND*%
X171740000Y-101600000D03*
D16*
%TO.P,D3,2,A*%
%TO.N,Net-(D3-Pad2)*%
X169200000Y-101600000D03*
%TD*%
D10*
%TO.P,R6,1*%
%TO.N,Wifi Status*%
X159040000Y-109220000D03*
D11*
%TO.P,R6,2*%
%TO.N,Net-(R6-Pad2)*%
X166660000Y-109220000D03*
%TD*%
D10*
%TO.P,R3,1*%
%TO.N,Done Moving*%
X159040000Y-113030000D03*
D11*
%TO.P,R3,2*%
%TO.N,GND*%
X166660000Y-113030000D03*
%TD*%
D12*
%TO.P,SWreset2,1,1*%
%TO.N,Net-(R4-Pad1)*%
X166950000Y-90730000D03*
X166950000Y-97230000D03*
%TO.P,SWreset2,2,2*%
%TO.N,GND*%
X171450000Y-90730000D03*
X171450000Y-97230000D03*
%TD*%
D13*
%TO.P,J5,1,Pin_1*%
%TO.N,End Switch*%
X99350000Y-110490000D03*
D14*
%TO.P,J5,2,Pin_2*%
%TO.N,Vdd*%
X101890000Y-110490000D03*
%TD*%
D13*
%TO.P,J3,1,Pin_1*%
%TO.N,Rx*%
X122210000Y-84110112D03*
D14*
%TO.P,J3,2,Pin_2*%
%TO.N,Tx*%
X122210000Y-81570112D03*
%TD*%
D15*
%TO.P,D2,1,K*%
%TO.N,GND*%
X171740000Y-106680000D03*
D16*
%TO.P,D2,2,A*%
%TO.N,Net-(R7-Pad2)*%
X169200000Y-106680000D03*
%TD*%
D10*
%TO.P,R7,1*%
%TO.N,Done Moving*%
X159040000Y-105410000D03*
D11*
%TO.P,R7,2*%
%TO.N,Net-(R7-Pad2)*%
X166660000Y-105410000D03*
%TD*%
D10*
%TO.P,R5,1*%
%TO.N,Vdd*%
X156413346Y-101575007D03*
D11*
%TO.P,R5,2*%
%TO.N,Wifi Status*%
X156413346Y-109195007D03*
%TD*%
D10*
%TO.P,R9,1*%
%TO.N,End Switch*%
X106970000Y-110490000D03*
D11*
%TO.P,R9,2*%
%TO.N,GND*%
X114590000Y-110490000D03*
%TD*%
D17*
%TO.P,A1,1,GND*%
%TO.N,GND*%
X105700000Y-87630000D03*
D11*
%TO.P,A1,2,~{FLT}*%
%TO.N,unconnected-(A1-Pad2)*%
X105700000Y-90170000D03*
%TO.P,A1,3,A2*%
%TO.N,Net-(A1-Pad3)*%
X105700000Y-92710000D03*
%TO.P,A1,4,A1*%
%TO.N,Net-(A1-Pad4)*%
X105700000Y-95250000D03*
%TO.P,A1,5,B1*%
%TO.N,Net-(A1-Pad5)*%
X105700000Y-97790000D03*
%TO.P,A1,6,B2*%
%TO.N,Net-(A1-Pad6)*%
X105700000Y-100330000D03*
%TO.P,A1,7,GND*%
%TO.N,Gnd Motor*%
X105700000Y-102870000D03*
%TO.P,A1,8,VMOT*%
%TO.N,V Motor*%
X105700000Y-105410000D03*
%TO.P,A1,9,~{EN}*%
%TO.N,unconnected-(A1-Pad9)*%
X118400000Y-105410000D03*
%TO.P,A1,10,M0*%
%TO.N,Vdd*%
X118400000Y-102870000D03*
%TO.P,A1,11,M1*%
X118400000Y-100330000D03*
%TO.P,A1,12,M2*%
X118400000Y-97790000D03*
%TO.P,A1,13,~{RST}*%
X118400000Y-95250000D03*
%TO.P,A1,14,~{SLP}*%
X118400000Y-92710000D03*
%TO.P,A1,15,STEP*%
%TO.N,Step*%
X118400000Y-90170000D03*
%TO.P,A1,16,DIR*%
%TO.N,Direction*%
X118400000Y-87630000D03*
%TD*%
D13*
%TO.P,J4,1,Pin_1*%
%TO.N,GND*%
X123480000Y-110490000D03*
D14*
%TO.P,J4,2,Pin_2*%
%TO.N,Vdd*%
X126020000Y-110490000D03*
%TD*%
D13*
%TO.P,J2,1,Pin_1*%
%TO.N,Gnd Motor*%
X99340000Y-104140000D03*
D14*
%TO.P,J2,2,Pin_2*%
%TO.N,V Motor*%
X99340000Y-106680000D03*
%TD*%
D15*
%TO.P,D1,1,K*%
%TO.N,GND*%
X171740000Y-111760000D03*
D16*
%TO.P,D1,2,A*%
%TO.N,Net-(R6-Pad2)*%
X169200000Y-111760000D03*
%TD*%
D18*
%TO.P,U1,1,~{RST}*%
%TO.N,Net-(R2-Pad1)*%
X146300000Y-81590000D03*
%TO.P,U1,2,ADC*%
%TO.N,unconnected-(U1-Pad2)*%
X146300000Y-83590000D03*
%TO.P,U1,3,EN*%
%TO.N,Net-(R1-Pad2)*%
X146300000Y-85590000D03*
%TO.P,U1,4,GPIO16*%
%TO.N,unconnected-(U1-Pad4)*%
X146300000Y-87590000D03*
%TO.P,U1,5,GPIO14*%
%TO.N,unconnected-(U1-Pad5)*%
X146300000Y-89590000D03*
%TO.P,U1,6,GPIO12*%
%TO.N,unconnected-(U1-Pad6)*%
X146300000Y-91590000D03*
%TO.P,U1,7,GPIO13*%
%TO.N,End Switch*%
X146300000Y-93590000D03*
%TO.P,U1,8,VCC*%
%TO.N,unconnected-(U1-Pad8)*%
X146300000Y-95590000D03*
D19*
%TO.P,U1,9,CS0*%
%TO.N,unconnected-(U1-Pad9)*%
X143700000Y-97090000D03*
%TO.P,U1,10,MISO*%
%TO.N,unconnected-(U1-Pad10)*%
X141700000Y-97090000D03*
%TO.P,U1,11,GPIO9*%
%TO.N,unconnected-(U1-Pad11)*%
X139700000Y-97090000D03*
%TO.P,U1,12,GPIO10*%
%TO.N,unconnected-(U1-Pad12)*%
X137700000Y-97090000D03*
%TO.P,U1,13,MOSI*%
%TO.N,unconnected-(U1-Pad13)*%
X135700000Y-97090000D03*
%TO.P,U1,14,SCLK*%
%TO.N,unconnected-(U1-Pad14)*%
X133700000Y-97090000D03*
D18*
%TO.P,U1,15,GND*%
%TO.N,GND*%
X131100000Y-95590000D03*
%TO.P,U1,16,GPIO15*%
%TO.N,Done Moving*%
X131100000Y-93590000D03*
%TO.P,U1,17,GPIO2*%
%TO.N,Wifi Status*%
X131100000Y-91590000D03*
%TO.P,U1,18,GPIO0*%
%TO.N,Net-(R4-Pad1)*%
X131100000Y-89590000D03*
%TO.P,U1,19,GPIO4*%
%TO.N,Step*%
X131100000Y-87590000D03*
%TO.P,U1,20,GPIO5*%
%TO.N,Direction*%
X131100000Y-85590000D03*
%TO.P,U1,21,GPIO3/RXD*%
%TO.N,Rx*%
X131100000Y-83590000D03*
%TO.P,U1,22,GPIO1/TXD*%
%TO.N,Tx*%
X131100000Y-81590000D03*
%TD*%
D20*
%TO.N,GND*%
X120940000Y-109220000D03*
X119670000Y-117379011D03*
X119670000Y-107950000D03*
X129830000Y-100330000D03*
%TO.N,Vdd*%
X150150000Y-113178520D03*
X150150000Y-104430500D03*
%TO.N,End Switch*%
X146340000Y-104430500D03*
X146340000Y-115279511D03*
%TO.N,Net-(R4-Pad1)*%
X154380182Y-110929020D03*
X154399020Y-99060000D03*
%TO.N,unconnected-(U1-Pad2)*%
X156067707Y-83839500D03*
%TO.N,unconnected-(U1-Pad4)*%
X153276596Y-88330001D03*
%TO.N,unconnected-(U1-Pad5)*%
X151468139Y-90055398D03*
%TO.N,unconnected-(U1-Pad6)*%
X150500148Y-92359852D03*
%TO.N,unconnected-(U1-Pad8)*%
X147610000Y-100330000D03*
%TO.N,unconnected-(U1-Pad9)*%
X145070000Y-100330000D03*
%TO.N,unconnected-(U1-Pad10)*%
X142209363Y-100650637D03*
%TO.N,unconnected-(U1-Pad11)*%
X140007760Y-102703937D03*
%TO.N,unconnected-(U1-Pad12)*%
X137405292Y-102778089D03*
%TO.N,unconnected-(U1-Pad13)*%
X135230637Y-100650637D03*
%TO.N,unconnected-(U1-Pad14)*%
X132370000Y-100330000D03*
%TD*%
D21*
%TO.N,unconnected-(U1-Pad14)*%
X133034986Y-99664986D02*
G75*
G03*
X133700000Y-98059547I-1605486J1605486D01*
G01*
%TO.N,unconnected-(U1-Pad13)*%
X135465336Y-100415973D02*
G75*
G03*
X135700000Y-99849384I-566636J566573D01*
G01*
%TO.N,unconnected-(U1-Pad12)*%
X137552651Y-102630740D02*
G75*
G03*
X137700000Y-102274990I-355751J355740D01*
G01*
%TO.N,unconnected-(U1-Pad11)*%
X139853855Y-102550082D02*
G75*
G02*
X139700000Y-102178557I371545J371482D01*
G01*
%TO.N,unconnected-(U1-Pad10)*%
X141954689Y-100395947D02*
G75*
G02*
X141700000Y-99781099I614811J614847D01*
G01*
%TO.N,unconnected-(U1-Pad9)*%
X144361142Y-99621146D02*
G75*
G02*
X143700000Y-98025000I1596158J1596146D01*
G01*
%TO.N,unconnected-(U1-Pad8)*%
X147610007Y-99695000D02*
G75*
G03*
X147160987Y-98610987I-1533007J0D01*
G01*
X146954997Y-98405003D02*
G75*
G02*
X146300000Y-96823690I1581303J1581303D01*
G01*
%TO.N,unconnected-(U1-Pad6)*%
X149185928Y-91589975D02*
G75*
G02*
X150115221Y-91974927I-28J-1314225D01*
G01*
%TO.N,unconnected-(U1-Pad5)*%
X150673654Y-89590037D02*
G75*
G02*
X151235440Y-89822699I46J-794463D01*
G01*
%TO.N,unconnected-(U1-Pad4)*%
X152013335Y-87589987D02*
G75*
G02*
X152906595Y-87960000I-35J-1263313D01*
G01*
%TO.N,unconnected-(U1-Pad2)*%
X155641783Y-83590005D02*
G75*
G02*
X155942957Y-83714750I17J-425895D01*
G01*
%TO.N,Net-(R4-Pad1)*%
X126497609Y-90386898D02*
G75*
G02*
X128421485Y-89590000I1923891J-1923902D01*
G01*
X124087845Y-103424653D02*
G75*
G02*
X123290960Y-101500764I1923855J1923853D01*
G01*
X158590993Y-94429018D02*
G75*
G02*
X159675000Y-93980000I1084007J-1083982D01*
G01*
X162400982Y-91889008D02*
G75*
G03*
X162850000Y-90805000I-1083982J1084008D01*
G01*
X164286913Y-92709995D02*
G75*
G02*
X166170000Y-93490000I-13J-2663105D01*
G01*
X166500982Y-93820992D02*
G75*
G02*
X166950000Y-94905000I-1083982J-1084008D01*
G01*
X166950043Y-93635000D02*
G75*
G02*
X166500988Y-93820986I-263043J0D01*
G01*
X160944992Y-93344992D02*
G75*
G02*
X162478025Y-92710000I1533008J-1533008D01*
G01*
X162478022Y-92709976D02*
G75*
G02*
X162152725Y-92137274I-40422J355776D01*
G01*
X154399023Y-98840490D02*
G75*
G02*
X154554237Y-98465762I529977J-10D01*
G01*
X159675000Y-93980006D02*
G75*
G03*
X160759011Y-93530986I0J1533006D01*
G01*
X132719215Y-110928995D02*
G75*
G02*
X130795337Y-110132123I-15J2720795D01*
G01*
X123290968Y-94720525D02*
G75*
G02*
X124087856Y-92796647I2720732J25D01*
G01*
X166950000Y-92365000D02*
X166950000Y-93635000D01*
X166950000Y-93635000D02*
X166950000Y-94905000D01*
X160944999Y-93344999D02*
X162152725Y-92137274D01*
%TO.N,Net-(R2-Pad1)*%
X163485000Y-86360006D02*
G75*
G03*
X164569011Y-85910986I0J1533006D01*
G01*
X162400993Y-86809018D02*
G75*
G02*
X163485000Y-86360000I1084007J-1083982D01*
G01*
X166949998Y-82358428D02*
G75*
G02*
X166153103Y-84326896I-2775398J-21972D01*
G01*
X166153105Y-84326897D02*
G75*
G02*
X166950000Y-84339956I394895J-223303D01*
G01*
X166439916Y-81079916D02*
G75*
G02*
X166950000Y-81291248I211284J-211284D01*
G01*
X165208751Y-81590021D02*
G75*
G03*
X166440000Y-81080000I-51J1741321D01*
G01*
X166950000Y-82358428D02*
X166950000Y-84339956D01*
%TO.N,Net-(R1-Pad2)*%
X153915527Y-85589989D02*
G75*
G02*
X154845000Y-85975000I-27J-1314511D01*
G01*
%TO.N,End Switch*%
X150150021Y-96317959D02*
G75*
G03*
X149353103Y-94394081I-2720821J-41D01*
G01*
X105700000Y-112589503D02*
G75*
G02*
X107116063Y-113176063I0J-2002597D01*
G01*
X147424511Y-93589990D02*
G75*
G02*
X149344171Y-94385149I-11J-2714810D01*
G01*
X146083933Y-115129494D02*
G75*
G02*
X146265000Y-115204511I-33J-256106D01*
G01*
X105443227Y-112016798D02*
G75*
G02*
X104040978Y-112589510I-1392527J1406498D01*
G01*
X105700001Y-112589533D02*
G75*
G02*
X105443215Y-112016786I-9601J339633D01*
G01*
X102147334Y-112589475D02*
G75*
G02*
X100223457Y-111792613I-34J2720775D01*
G01*
X99501728Y-111070890D02*
G75*
G02*
X99350000Y-110704579I366272J366290D01*
G01*
X146515395Y-104430507D02*
G75*
G03*
X146814812Y-104306476I5J423407D01*
G01*
X110196492Y-115129505D02*
G75*
G02*
X108272614Y-114332614I8J2720805D01*
G01*
X149353105Y-101768188D02*
G75*
G03*
X150150000Y-99844308I-1923905J1923888D01*
G01*
X105700000Y-112589511D02*
X104040978Y-112589511D01*
%TO.N,Tx*%
X131066049Y-81570089D02*
G75*
G02*
X131090055Y-81580057I-49J-34011D01*
G01*
%TO.N,Rx*%
X123449954Y-83850066D02*
G75*
G02*
X124077774Y-83590000I627846J-627834D01*
G01*
X122822113Y-84110113D02*
G75*
G03*
X123449943Y-83850055I-13J887913D01*
G01*
%TO.N,Done Moving*%
X128086895Y-101768187D02*
G75*
G02*
X127290000Y-99844308I1923905J1923887D01*
G01*
X128189856Y-94350136D02*
G75*
G02*
X130025000Y-93590000I1835144J-1835164D01*
G01*
X127289994Y-96376981D02*
G75*
G02*
X128086896Y-94453103I2720806J-19D01*
G01*
X160292618Y-111777389D02*
G75*
G03*
X161089511Y-109853507I-1923918J1923889D01*
G01*
X161089467Y-109498045D02*
G75*
G03*
X160292613Y-107574168I-2720767J45D01*
G01*
X158271465Y-106680033D02*
G75*
G02*
X160195342Y-107476897I35J-2720767D01*
G01*
X156533764Y-106679982D02*
G75*
G03*
X158066790Y-106045000I36J2167982D01*
G01*
X134125691Y-106679998D02*
G75*
G02*
X132201813Y-105883103I9J2720798D01*
G01*
%TO.N,Net-(R7-Pad2)*%
X167295000Y-105409993D02*
G75*
G02*
X168379012Y-105859012I0J-1533007D01*
G01*
%TO.N,Wifi Status*%
X155577342Y-108679497D02*
G75*
G02*
X156229760Y-108949760I-42J-922703D01*
G01*
X127325333Y-92386874D02*
G75*
G02*
X129249233Y-91590000I1923867J-1923926D01*
G01*
X158117342Y-108679497D02*
G75*
G02*
X158769760Y-108949760I-42J-922703D01*
G01*
X133297463Y-108679532D02*
G75*
G02*
X131373585Y-107882623I37J2720832D01*
G01*
X152051092Y-108679520D02*
G75*
G02*
X151465306Y-108679520I-292893J1182421344D01*
G01*
X126087385Y-102596405D02*
G75*
G02*
X125290480Y-100672536I1923915J1923905D01*
G01*
X125290460Y-95548753D02*
G75*
G02*
X126087376Y-93624875I2720840J-47D01*
G01*
X149707948Y-108679520D02*
X151465306Y-108679520D01*
X152051092Y-108679520D02*
X149707948Y-108679520D01*
%TO.N,Direction*%
X122472026Y-87630010D02*
G75*
G03*
X124395904Y-86833103I-26J2720810D01*
G01*
X124842111Y-86386896D02*
G75*
G02*
X126765989Y-85590000I1923889J-1923904D01*
G01*
%TO.N,Step*%
X125669835Y-88386872D02*
G75*
G02*
X127593737Y-87590000I1923865J-1923928D01*
G01*
X122759774Y-90169973D02*
G75*
G03*
X124683652Y-89373103I26J2720773D01*
G01*
%TO.N,Vdd*%
X120930007Y-104814214D02*
G75*
G03*
X121379012Y-105849012I1475493J25414D01*
G01*
X121379017Y-105849007D02*
G75*
G02*
X120930000Y-104765000I1083983J1084007D01*
G01*
X120930000Y-104765000D02*
G75*
G02*
X120930000Y-104814214I-1194671824J-24607D01*
G01*
X114918045Y-112589467D02*
G75*
G02*
X112994168Y-111792613I-45J2720767D01*
G01*
X154242239Y-103857790D02*
G75*
G02*
X152542518Y-104430499I-1559039J1818390D01*
G01*
X154841054Y-104430438D02*
G75*
G02*
X154242226Y-103857774I-134254J459038D01*
G01*
X119035000Y-102869993D02*
G75*
G02*
X120119012Y-103319012I0J-1533007D01*
G01*
X102668874Y-110489970D02*
G75*
G03*
X103998493Y-109939251I26J1880370D01*
G01*
X152149494Y-98187461D02*
G75*
G02*
X152946416Y-96263583I2720806J-39D01*
G01*
X151352634Y-103227887D02*
G75*
G03*
X152149520Y-101303998I-1923934J1923887D01*
G01*
X123165645Y-106679960D02*
G75*
G02*
X124797032Y-107355744I-45J-2307140D01*
G01*
X120357293Y-98487256D02*
G75*
G02*
X120930000Y-99958025I-1493493J-1428444D01*
G01*
X120929975Y-98161977D02*
G75*
G02*
X120357274Y-98487274I-355775J-40423D01*
G01*
X120357293Y-101027256D02*
G75*
G02*
X120930000Y-102498025I-1493493J-1428444D01*
G01*
X120929975Y-100701977D02*
G75*
G02*
X120357274Y-101027274I-355775J-40423D01*
G01*
X120929989Y-94878025D02*
G75*
G03*
X120295000Y-93345000I-2167989J25D01*
G01*
X159183018Y-102870004D02*
G75*
G03*
X161106895Y-102073102I-18J2720804D01*
G01*
X120357293Y-95947256D02*
G75*
G02*
X120930000Y-97418025I-1493493J-1428444D01*
G01*
X120929975Y-95621977D02*
G75*
G02*
X120357274Y-95947274I-355775J-40423D01*
G01*
X155106059Y-104430454D02*
G75*
G03*
X156989750Y-103650250I41J2663954D01*
G01*
X120930007Y-104765000D02*
G75*
G03*
X120480987Y-103680987I-1533007J0D01*
G01*
X149896441Y-113029946D02*
G75*
G02*
X150075734Y-113104254I-41J-253554D01*
G01*
X126020040Y-109534355D02*
G75*
G03*
X125344255Y-107902967I-2307140J-45D01*
G01*
X108024571Y-107950028D02*
G75*
G02*
X109948449Y-108746896I29J-2720772D01*
G01*
X105190831Y-108746876D02*
G75*
G02*
X107114729Y-107950000I1923869J-1923924D01*
G01*
X119030000Y-100329985D02*
G75*
G02*
X120105476Y-100775478I0J-1520915D01*
G01*
X119030000Y-97789985D02*
G75*
G02*
X120105476Y-98235478I0J-1520915D01*
G01*
X119030000Y-92709985D02*
G75*
G02*
X120105476Y-93155478I0J-1520915D01*
G01*
X119030000Y-95249985D02*
G75*
G02*
X120105476Y-95695478I0J-1520915D01*
G01*
X125268038Y-112589522D02*
G75*
G03*
X125799754Y-112369265I-38J752022D01*
G01*
X162532504Y-100647504D02*
G75*
G03*
X162850000Y-99880987I-766504J766504D01*
G01*
X129686970Y-113030005D02*
G75*
G02*
X127763092Y-112233092I30J2720805D01*
G01*
X125799739Y-112369250D02*
G75*
G03*
X126020000Y-111837549I-531739J531750D01*
G01*
X123115096Y-106680001D02*
G75*
G02*
X121570000Y-106040000I4J2185101D01*
G01*
X157134992Y-103504992D02*
G75*
G02*
X158668025Y-102870000I1533008J-1533008D01*
G01*
X158668022Y-102869976D02*
G75*
G02*
X158342725Y-102297274I-40422J355776D01*
G01*
X161897499Y-100647501D02*
G75*
G02*
X161897499Y-101282499I-317499J-317499D01*
G01*
X162532499Y-100647499D02*
G75*
G02*
X161897501Y-100647499I-317499J317502D01*
G01*
X154841072Y-104430500D02*
X152542518Y-104430500D01*
X120930000Y-98161974D02*
X120930000Y-99958025D01*
X120930000Y-100701974D02*
X120930000Y-102498025D01*
X120930000Y-95621974D02*
X120930000Y-97418025D01*
X157135000Y-103505000D02*
X158342725Y-102297274D01*
X162532500Y-100647500D02*
X161897500Y-101282500D01*
%TO.N,V Motor*%
X103531974Y-106679989D02*
G75*
G03*
X105065000Y-106045000I26J2167989D01*
G01*
%TO.N,Gnd Motor*%
X105214831Y-102996739D02*
G75*
G02*
X105520776Y-102870000I305969J-305961D01*
G01*
X103173527Y-104140026D02*
G75*
G03*
X104706552Y-103504999I-27J2168026D01*
G01*
%TO.N,GND*%
X112050005Y-92806981D02*
G75*
G03*
X111253103Y-90883103I-2720805J-19D01*
G01*
X173707290Y-108647260D02*
G75*
G02*
X174279999Y-110346981I-1818390J-1559040D01*
G01*
X174279937Y-108048446D02*
G75*
G02*
X173707274Y-108647273I-459037J-134254D01*
G01*
X173707290Y-103567260D02*
G75*
G02*
X174279999Y-105266981I-1818390J-1559040D01*
G01*
X174279937Y-102968446D02*
G75*
G02*
X173707274Y-103567273I-459037J-134254D01*
G01*
X119670000Y-109855000D02*
G75*
G02*
X119035000Y-110490000I-635000J0D01*
G01*
X120305000Y-110490000D02*
G75*
G02*
X119670000Y-109855000I0J635000D01*
G01*
X174280000Y-93770000D02*
G75*
G02*
X174280000Y-93770000I0J0D01*
G01*
X129830011Y-97758025D02*
G75*
G02*
X130465000Y-96225000I2167989J25D01*
G01*
X173010007Y-113665000D02*
G75*
G03*
X172560987Y-112580987I-1533007J0D01*
G01*
X121760956Y-110041018D02*
G75*
G02*
X121575000Y-110490000I-185956J-185982D01*
G01*
X122845000Y-110490007D02*
G75*
G02*
X121760987Y-110040987I0J1533007D01*
G01*
X171450000Y-80995000D02*
G75*
G02*
X171875000Y-80570000I425000J0D01*
G01*
X119926066Y-117529021D02*
G75*
G02*
X119745001Y-117454010I34J256121D01*
G01*
X112846900Y-104936892D02*
G75*
G02*
X112050000Y-103013018I1923900J1923892D01*
G01*
X173645008Y-113665008D02*
G75*
G03*
X174280000Y-112131974I-1533008J1533008D01*
G01*
X106873018Y-87629995D02*
G75*
G02*
X108796896Y-88426896I-18J-2720805D01*
G01*
X174280000Y-100195000D02*
G75*
G02*
X174280000Y-100195000I0J0D01*
G01*
X174280000Y-90035000D02*
G75*
G02*
X174280000Y-90035000I0J0D01*
G01*
X174280005Y-83676981D02*
G75*
G03*
X173483103Y-81753103I-2720805J-19D01*
G01*
X162733735Y-116956310D02*
G75*
G02*
X161034007Y-117529010I-1559035J1818410D01*
G01*
X163332577Y-117529065D02*
G75*
G02*
X162733714Y-116956285I-134277J459065D01*
G01*
X173010006Y-113665000D02*
G75*
G02*
X172560986Y-114749011I-1533006J0D01*
G01*
X173458982Y-113850957D02*
G75*
G02*
X173010000Y-113665000I-185982J185957D01*
G01*
X171875000Y-80569989D02*
G75*
G02*
X172600519Y-80870521I0J-1026011D01*
G01*
X174280005Y-100195000D02*
G75*
G03*
X174184540Y-99964540I-325905J0D01*
G01*
X168654007Y-117529004D02*
G75*
G03*
X170577884Y-116732113I-7J2720804D01*
G01*
X117950956Y-110041018D02*
G75*
G02*
X117765000Y-110490000I-185956J-185982D01*
G01*
X119035000Y-110490007D02*
G75*
G02*
X117950987Y-110040987I0J1533007D01*
G01*
X174279995Y-93770000D02*
G75*
G03*
X174131507Y-93411507I-506995J0D01*
G01*
X174280005Y-90035000D02*
G75*
G03*
X174184540Y-89804540I-325905J0D01*
G01*
X174280000Y-108048428D02*
X174280000Y-110346981D01*
X174280000Y-102968428D02*
X174280000Y-105266981D01*
X120305000Y-110490000D02*
X119035000Y-110490000D01*
X174280000Y-94190000D02*
X174280000Y-93770000D01*
X174280000Y-93770000D02*
X174280000Y-94190000D01*
X122845000Y-110490000D02*
X121575000Y-110490000D01*
X174280000Y-100465000D02*
X174280000Y-100195000D01*
X174280000Y-100195000D02*
X174280000Y-100465000D01*
X174280000Y-90305000D02*
X174280000Y-90035000D01*
X174280000Y-90035000D02*
X174280000Y-90305000D01*
X163332561Y-117529011D02*
X161034007Y-117529011D01*
X173459012Y-113850987D02*
X172560987Y-114749012D01*
X119035000Y-110490000D02*
X117765000Y-110490000D01*
%TO.N,Vdd*%
X108024571Y-107950000D02*
X107114729Y-107950000D01*
X120930000Y-104814214D02*
X120930000Y-104765000D01*
%TO.N,Step*%
X125669859Y-88386896D02*
X124683652Y-89373103D01*
%TO.N,Direction*%
X124395904Y-86833103D02*
X124842111Y-86386896D01*
%TO.N,Done Moving*%
X160292614Y-107574167D02*
X160195343Y-107476896D01*
%TO.N,GND*%
X174280000Y-93770000D02*
X174280000Y-90305000D01*
X173483103Y-81753103D02*
X172600520Y-80870520D01*
X171450000Y-97230000D02*
X174184540Y-99964540D01*
X174280000Y-90035000D02*
X174280000Y-83676981D01*
X162733714Y-116956285D02*
X166660000Y-113030000D01*
X173707274Y-108647274D02*
X171740000Y-106680000D01*
X122845000Y-110490000D02*
X123480000Y-110490000D01*
X111253103Y-90883103D02*
X108796896Y-88426896D01*
X171450000Y-87070000D02*
X174184540Y-89804540D01*
X119670000Y-107950000D02*
X119670000Y-109855000D01*
X174280000Y-110346981D02*
X174280000Y-112131974D01*
X120305000Y-110490000D02*
X121575000Y-110490000D01*
X171450000Y-90730000D02*
X174131507Y-93411507D01*
X112846896Y-104936896D02*
X117950987Y-110040987D01*
X117765000Y-110490000D02*
X114590000Y-110490000D01*
X121760987Y-110040987D02*
X120940000Y-109220000D01*
X119745000Y-117454011D02*
X119670000Y-117379011D01*
X173644999Y-113664999D02*
X173459012Y-113850987D01*
X130465000Y-96225000D02*
X131100000Y-95590000D01*
X163332561Y-117529011D02*
X168654007Y-117529011D01*
X106873018Y-87630000D02*
X105700000Y-87630000D01*
X171450000Y-97230000D02*
X171450000Y-90730000D01*
X172560987Y-114749012D02*
X170577885Y-116732114D01*
X119926066Y-117529011D02*
X161034007Y-117529011D01*
X172560987Y-112580987D02*
X171740000Y-111760000D01*
X174280000Y-94190000D02*
X174280000Y-100195000D01*
X112050000Y-92806981D02*
X112050000Y-103013018D01*
X129830000Y-97758025D02*
X129830000Y-100330000D01*
X173707274Y-103567274D02*
X171740000Y-101600000D01*
X174280000Y-102968428D02*
X174280000Y-100465000D01*
X174280000Y-108048428D02*
X174280000Y-105266981D01*
X171450000Y-87070000D02*
X171450000Y-80995000D01*
%TO.N,Net-(A1-Pad3)*%
X105700000Y-92710000D02*
X99340000Y-92710000D01*
%TO.N,Net-(A1-Pad4)*%
X99340000Y-95250000D02*
X105700000Y-95250000D01*
%TO.N,Net-(A1-Pad5)*%
X105700000Y-97790000D02*
X99340000Y-97790000D01*
%TO.N,Net-(A1-Pad6)*%
X99340000Y-100330000D02*
X105700000Y-100330000D01*
%TO.N,Gnd Motor*%
X103173527Y-104140000D02*
X99340000Y-104140000D01*
X105520776Y-102870000D02*
X105700000Y-102870000D01*
X105214822Y-102996730D02*
X104706553Y-103505000D01*
%TO.N,V Motor*%
X105065000Y-106045000D02*
X105700000Y-105410000D01*
X103531974Y-106680000D02*
X99340000Y-106680000D01*
%TO.N,Vdd*%
X120930000Y-99958025D02*
X120930000Y-100701974D01*
X120930000Y-98161974D02*
X120930000Y-97418025D01*
X126020000Y-110490000D02*
X126020000Y-109534355D01*
X102668874Y-110490000D02*
X101890000Y-110490000D01*
X120357274Y-95947274D02*
X120105477Y-95695477D01*
X114918045Y-112589511D02*
X125268038Y-112589511D01*
X159183018Y-102870000D02*
X158668025Y-102870000D01*
X158342725Y-102297274D02*
X159040000Y-101600000D01*
X120357274Y-98487274D02*
X120105477Y-98235477D01*
X152149520Y-98187461D02*
X152149520Y-101303998D01*
X154841072Y-104430500D02*
X155106059Y-104430500D01*
X119035000Y-102870000D02*
X118400000Y-102870000D01*
X161897500Y-100647500D02*
X159040000Y-97790000D01*
X119030000Y-97790000D02*
X118400000Y-97790000D01*
X120930000Y-94878025D02*
X120930000Y-95621974D01*
X161106896Y-102073103D02*
X161897500Y-101282500D01*
X124797033Y-107355743D02*
X125344256Y-107902966D01*
X112994167Y-111792614D02*
X109948449Y-108746896D01*
X119030000Y-95250000D02*
X118400000Y-95250000D01*
X152542518Y-104430500D02*
X150150000Y-104430500D01*
X150150000Y-113178520D02*
X150075734Y-113104254D01*
X126020000Y-110490000D02*
X126020000Y-111837549D01*
X156989750Y-103650250D02*
X157135000Y-103505000D01*
X154242225Y-103857774D02*
X156500000Y-101600000D01*
X120357274Y-101027274D02*
X120105477Y-100775477D01*
X121379012Y-105849012D02*
X121570000Y-106040000D01*
X162850000Y-99880987D02*
X162850000Y-97790000D01*
X120119012Y-103319012D02*
X120480987Y-103680987D01*
X126020000Y-110490000D02*
X127763092Y-112233092D01*
X152946416Y-96263583D02*
X155230000Y-93980000D01*
X123165645Y-106680000D02*
X123115096Y-106680000D01*
X119030000Y-92710000D02*
X118400000Y-92710000D01*
X120930000Y-104765000D02*
X120930000Y-102498025D01*
X103998494Y-109939252D02*
X105190851Y-108746896D01*
X119030000Y-100330000D02*
X118400000Y-100330000D01*
X151352623Y-103227876D02*
X150150000Y-104430500D01*
X120295000Y-93345000D02*
X120105477Y-93155477D01*
X149896441Y-113029989D02*
X129686970Y-113029989D01*
%TO.N,Step*%
X122759774Y-90170000D02*
X118400000Y-90170000D01*
X127593737Y-87590000D02*
X131100000Y-87590000D01*
%TO.N,Direction*%
X126765989Y-85590000D02*
X131100000Y-85590000D01*
X122472026Y-87630000D02*
X118400000Y-87630000D01*
%TO.N,Net-(R6-Pad2)*%
X166660000Y-109220000D02*
X169200000Y-111760000D01*
%TO.N,Wifi Status*%
X133297463Y-108679520D02*
X149707948Y-108679520D01*
X158117342Y-108679520D02*
X151465306Y-108679520D01*
X129249233Y-91590000D02*
X131100000Y-91590000D01*
X125290480Y-100672536D02*
X125290480Y-95548753D01*
X158769760Y-108949760D02*
X159040000Y-109220000D01*
X156229760Y-108949760D02*
X156500000Y-109220000D01*
X155577342Y-108679520D02*
X152051092Y-108679520D01*
X127325355Y-92386896D02*
X126087376Y-93624875D01*
X131373585Y-107882623D02*
X126087376Y-102596414D01*
%TO.N,Net-(R7-Pad2)*%
X167295000Y-105410000D02*
X166660000Y-105410000D01*
X168379012Y-105859012D02*
X169200000Y-106680000D01*
%TO.N,Done Moving*%
X127290000Y-99844308D02*
X127290000Y-96376981D01*
X160292614Y-111777385D02*
X159040000Y-113030000D01*
X128086896Y-101768186D02*
X132201813Y-105883103D01*
X158066790Y-106045000D02*
X158701790Y-105410000D01*
X156533764Y-106680000D02*
X134125691Y-106680000D01*
X130025000Y-93590000D02*
X131100000Y-93590000D01*
X161089511Y-109853507D02*
X161089511Y-109498045D01*
X128189859Y-94350139D02*
X128086896Y-94453103D01*
X158271465Y-106680000D02*
X155230000Y-106680000D01*
%TO.N,Net-(D3-Pad2)*%
X166660000Y-101600000D02*
X169200000Y-101600000D01*
%TO.N,Rx*%
X122822113Y-84110112D02*
X122210000Y-84110112D01*
X124077774Y-83590000D02*
X131100000Y-83590000D01*
%TO.N,Tx*%
X131066049Y-81570112D02*
X122210000Y-81570112D01*
X131090056Y-81580056D02*
X131100000Y-81590000D01*
%TO.N,End Switch*%
X105443214Y-112016785D02*
X106970000Y-110490000D01*
X149353103Y-94394081D02*
X149344171Y-94385149D01*
X99350000Y-110704579D02*
X99350000Y-110490000D01*
X100223456Y-111792614D02*
X99501730Y-111070888D01*
X147424511Y-93590000D02*
X146300000Y-93590000D01*
X150150000Y-96317959D02*
X150150000Y-99844308D01*
X146340000Y-104430500D02*
X146515395Y-104430500D01*
X146083933Y-115129511D02*
X110196492Y-115129511D01*
X104040978Y-112589511D02*
X102147334Y-112589511D01*
X146265000Y-115204511D02*
X146340000Y-115279511D01*
X107116063Y-113176063D02*
X108272614Y-114332614D01*
X146814812Y-104306476D02*
X149353103Y-101768186D01*
%TO.N,Net-(R1-Pad2)*%
X154845000Y-85975000D02*
X155230000Y-86360000D01*
X153915527Y-85590000D02*
X146300000Y-85590000D01*
%TO.N,Net-(R2-Pad1)*%
X166950000Y-84339956D02*
X166950000Y-87070000D01*
X164569012Y-85910987D02*
X166153103Y-84326896D01*
X165208751Y-81590000D02*
X146300000Y-81590000D01*
X162400987Y-86809012D02*
X159040000Y-90170000D01*
X166950000Y-82358428D02*
X166950000Y-81291248D01*
%TO.N,Net-(R4-Pad1)*%
X128421485Y-89590000D02*
X131100000Y-89590000D01*
X160944999Y-93344999D02*
X160759012Y-93530987D01*
X154380182Y-110929020D02*
X132719215Y-110929020D01*
X123290960Y-101500764D02*
X123290960Y-94720525D01*
X166170000Y-93490000D02*
X166500987Y-93820987D01*
X126497607Y-90386896D02*
X124087856Y-92796647D01*
X154399020Y-98840490D02*
X154399020Y-99060000D01*
X124087856Y-103424642D02*
X130795337Y-110132123D01*
X166950000Y-92365000D02*
X166950000Y-90730000D01*
X162850000Y-90805000D02*
X162850000Y-90170000D01*
X166950000Y-94905000D02*
X166950000Y-97230000D01*
X158590987Y-94429012D02*
X154554237Y-98465762D01*
X164286913Y-92710000D02*
X162478025Y-92710000D01*
X162400986Y-91889012D02*
X162152725Y-92137274D01*
%TO.N,unconnected-(U1-Pad2)*%
X155641783Y-83590000D02*
X146300000Y-83590000D01*
X156067707Y-83839500D02*
X155942957Y-83714750D01*
%TO.N,unconnected-(U1-Pad4)*%
X153276596Y-88330001D02*
X152906595Y-87960000D01*
X152013335Y-87590000D02*
X146300000Y-87590000D01*
%TO.N,unconnected-(U1-Pad5)*%
X150673654Y-89590000D02*
X146300000Y-89590000D01*
X151468139Y-90055398D02*
X151235440Y-89822699D01*
%TO.N,unconnected-(U1-Pad6)*%
X149185928Y-91590000D02*
X146300000Y-91590000D01*
X150115222Y-91974926D02*
X150500148Y-92359852D01*
%TO.N,unconnected-(U1-Pad8)*%
X146300000Y-96823690D02*
X146300000Y-95590000D01*
X147610000Y-99695000D02*
X147610000Y-100330000D01*
X147160987Y-98610987D02*
X146955000Y-98405000D01*
%TO.N,unconnected-(U1-Pad9)*%
X143700000Y-98025000D02*
X143700000Y-97090000D01*
X145070000Y-100330000D02*
X144361144Y-99621144D01*
%TO.N,unconnected-(U1-Pad10)*%
X141700000Y-99781099D02*
X141700000Y-97090000D01*
X142209363Y-100650637D02*
X141954681Y-100395955D01*
%TO.N,unconnected-(U1-Pad11)*%
X139853880Y-102550057D02*
X140007760Y-102703937D01*
X139700000Y-102178557D02*
X139700000Y-97090000D01*
%TO.N,unconnected-(U1-Pad12)*%
X137700000Y-102274990D02*
X137700000Y-97090000D01*
X137552646Y-102630735D02*
X137405292Y-102778089D01*
%TO.N,unconnected-(U1-Pad13)*%
X135230637Y-100650637D02*
X135465318Y-100415955D01*
X135700000Y-99849384D02*
X135700000Y-97090000D01*
%TO.N,unconnected-(U1-Pad14)*%
X133700000Y-98059547D02*
X133700000Y-97090000D01*
X133035000Y-99665000D02*
X132370000Y-100330000D01*
%TD*%
%TA.AperFunction,Conductor*%
%TO.N,Vdd*%
G36*
X159607707Y-97227253D02*
G01*
X159610802Y-97229499D01*
X159757585Y-97378194D01*
X159757706Y-97378318D01*
X159880854Y-97506835D01*
X159880983Y-97506972D01*
X159982573Y-97616472D01*
X159982689Y-97616599D01*
X160069982Y-97713502D01*
X160150156Y-97804141D01*
X160230331Y-97894781D01*
X160317685Y-97991751D01*
X160317737Y-97991807D01*
X160419377Y-98101362D01*
X160419399Y-98101385D01*
X160542645Y-98230005D01*
X160542654Y-98230014D01*
X160686463Y-98375697D01*
X160689836Y-98383992D01*
X160686409Y-98392189D01*
X159642189Y-99436409D01*
X159633916Y-99439836D01*
X159625697Y-99436463D01*
X159480014Y-99292654D01*
X159351385Y-99169399D01*
X159241818Y-99067747D01*
X159241807Y-99067737D01*
X159241751Y-99067685D01*
X159144781Y-98980331D01*
X159054141Y-98900156D01*
X158963502Y-98819982D01*
X158866599Y-98732689D01*
X158866472Y-98732573D01*
X158756972Y-98630983D01*
X158756835Y-98630854D01*
X158628318Y-98507706D01*
X158628194Y-98507585D01*
X158479499Y-98360802D01*
X158476018Y-98352551D01*
X158476618Y-98348775D01*
X158559090Y-98101362D01*
X158755308Y-97512708D01*
X158761176Y-97505943D01*
X158762708Y-97505308D01*
X159144049Y-97378194D01*
X159598776Y-97226618D01*
X159607707Y-97227253D01*
G37*
%TD.AperFunction*%
%TD*%
%TA.AperFunction,Conductor*%
%TO.N,Vdd*%
G36*
X158481224Y-101036618D02*
G01*
X159317292Y-101315308D01*
X159324057Y-101321176D01*
X159324692Y-101322708D01*
X159520911Y-101911362D01*
X159603382Y-102158775D01*
X159602747Y-102167707D01*
X159600501Y-102170802D01*
X159451805Y-102317585D01*
X159451681Y-102317706D01*
X159323164Y-102440854D01*
X159323027Y-102440983D01*
X159213527Y-102542573D01*
X159213400Y-102542689D01*
X159116497Y-102629982D01*
X159025858Y-102710156D01*
X158935218Y-102790331D01*
X158838248Y-102877685D01*
X158728614Y-102979399D01*
X158599985Y-103102654D01*
X158599971Y-103102667D01*
X158518978Y-103182620D01*
X158454303Y-103246463D01*
X158446009Y-103249837D01*
X158437812Y-103246410D01*
X157393591Y-102202189D01*
X157390164Y-102193916D01*
X157393537Y-102185697D01*
X157537345Y-102040014D01*
X157537354Y-102040005D01*
X157660600Y-101911385D01*
X157660622Y-101911362D01*
X157762262Y-101801807D01*
X157762314Y-101801751D01*
X157849668Y-101704781D01*
X157929843Y-101614141D01*
X158010017Y-101523502D01*
X158097310Y-101426599D01*
X158097426Y-101426472D01*
X158199016Y-101316972D01*
X158199145Y-101316835D01*
X158322340Y-101188269D01*
X158322462Y-101188145D01*
X158469198Y-101039499D01*
X158477448Y-101036018D01*
X158481224Y-101036618D01*
G37*
%TD.AperFunction*%
%TD*%
%TA.AperFunction,Conductor*%
%TO.N,GND*%
G36*
X172632478Y-111758035D02*
G01*
X172639616Y-111763441D01*
X172641102Y-111767695D01*
X172671360Y-111978868D01*
X172756480Y-112136753D01*
X172881920Y-112248903D01*
X173034240Y-112330561D01*
X173200000Y-112396974D01*
X173365164Y-112463147D01*
X173366323Y-112463688D01*
X173450845Y-112509000D01*
X173516851Y-112544386D01*
X173519121Y-112545976D01*
X173641991Y-112655827D01*
X173644492Y-112658997D01*
X173727652Y-112813247D01*
X173728935Y-112817140D01*
X173758086Y-113020589D01*
X173755867Y-113029264D01*
X173748163Y-113033830D01*
X173746504Y-113033948D01*
X172270387Y-113033948D01*
X172262114Y-113030521D01*
X172258769Y-113023634D01*
X172240348Y-112869282D01*
X172240348Y-112869281D01*
X172240226Y-112868261D01*
X172184554Y-112758925D01*
X172098456Y-112693304D01*
X172097476Y-112692999D01*
X171987899Y-112658912D01*
X171987895Y-112658911D01*
X171987406Y-112658759D01*
X171911121Y-112649346D01*
X171857032Y-112642672D01*
X171857027Y-112642672D01*
X171856877Y-112642653D01*
X171856718Y-112642642D01*
X171856711Y-112642641D01*
X171767879Y-112636308D01*
X171712574Y-112632365D01*
X171712113Y-112632322D01*
X171559963Y-112615285D01*
X171558604Y-112615051D01*
X171497032Y-112600612D01*
X171404231Y-112578848D01*
X171402127Y-112578138D01*
X171250725Y-112510447D01*
X171248315Y-112509000D01*
X171110136Y-112401479D01*
X171105711Y-112393694D01*
X171106221Y-112388545D01*
X171418340Y-111452189D01*
X171424208Y-111445424D01*
X171432396Y-111444569D01*
X172632478Y-111758035D01*
G37*
%TD.AperFunction*%
%TD*%
%TA.AperFunction,Conductor*%
%TO.N,Vdd*%
G36*
X150422329Y-103437500D02*
G01*
X150645772Y-103456500D01*
X150832550Y-103484500D01*
X150994886Y-103518500D01*
X151145000Y-103555500D01*
X151295113Y-103592500D01*
X151457449Y-103626499D01*
X151644227Y-103654500D01*
X151867670Y-103673500D01*
X151971138Y-103676160D01*
X151973306Y-103676216D01*
X151973307Y-103676216D01*
X152112635Y-103679797D01*
X152128601Y-103680207D01*
X152136783Y-103683845D01*
X152140000Y-103691903D01*
X152140000Y-105169097D01*
X152136573Y-105177370D01*
X152128601Y-105180793D01*
X151867670Y-105187500D01*
X151644227Y-105206500D01*
X151644057Y-105206526D01*
X151644044Y-105206527D01*
X151523336Y-105224623D01*
X151457449Y-105234500D01*
X151295113Y-105268500D01*
X151295036Y-105268519D01*
X151295027Y-105268521D01*
X151145000Y-105305500D01*
X150995097Y-105342448D01*
X150994695Y-105342540D01*
X150832879Y-105376430D01*
X150832216Y-105376549D01*
X150646138Y-105404445D01*
X150645394Y-105404532D01*
X150503570Y-105416592D01*
X150422668Y-105423471D01*
X150421983Y-105423509D01*
X150157438Y-105430309D01*
X150149079Y-105427096D01*
X150146672Y-105423845D01*
X150146504Y-105423509D01*
X149652616Y-104435732D01*
X149651981Y-104426801D01*
X149652616Y-104425268D01*
X149666117Y-104398267D01*
X149666117Y-104398266D01*
X150150000Y-103430500D01*
X150422329Y-103437500D01*
G37*
%TD.AperFunction*%
%TD*%
%TA.AperFunction,Conductor*%
%TO.N,End Switch*%
G36*
X146340725Y-114282930D02*
G01*
X146343168Y-114286398D01*
X146369802Y-114344311D01*
X146831541Y-115348291D01*
X146831884Y-115357240D01*
X146830474Y-115359921D01*
X146222000Y-116223108D01*
X146194487Y-116262138D01*
X146186919Y-116266926D01*
X146182865Y-116266914D01*
X145938450Y-116223167D01*
X145937812Y-116223034D01*
X145732357Y-116173775D01*
X145731724Y-116173603D01*
X145560647Y-116122207D01*
X145560180Y-116122056D01*
X145411613Y-116070539D01*
X145348303Y-116047753D01*
X145274161Y-116021069D01*
X145274077Y-116021039D01*
X145136222Y-115975766D01*
X144986468Y-115936847D01*
X144986263Y-115936811D01*
X144986254Y-115936809D01*
X144813458Y-115906452D01*
X144813449Y-115906451D01*
X144813234Y-115906413D01*
X144813005Y-115906391D01*
X144812996Y-115906390D01*
X144715353Y-115897098D01*
X144604938Y-115886591D01*
X144604736Y-115886585D01*
X144604730Y-115886585D01*
X144436417Y-115881911D01*
X144361375Y-115879827D01*
X144353200Y-115876172D01*
X144350000Y-115868132D01*
X144350000Y-114391090D01*
X144353427Y-114382817D01*
X144361578Y-114379391D01*
X144512048Y-114377836D01*
X144620837Y-114376712D01*
X144620858Y-114376712D01*
X144620911Y-114376711D01*
X144620957Y-114376709D01*
X144620977Y-114376709D01*
X144740561Y-114372633D01*
X144843881Y-114369111D01*
X145004345Y-114359501D01*
X145030830Y-114357915D01*
X145030834Y-114357915D01*
X145030896Y-114357911D01*
X145193940Y-114344311D01*
X145345000Y-114329511D01*
X145496042Y-114314713D01*
X145496063Y-114314711D01*
X145659006Y-114301118D01*
X145659248Y-114301101D01*
X145735953Y-114296508D01*
X145845972Y-114289920D01*
X145846272Y-114289906D01*
X145920402Y-114287379D01*
X146068996Y-114282314D01*
X146069190Y-114282310D01*
X146332418Y-114279589D01*
X146340725Y-114282930D01*
G37*
%TD.AperFunction*%
%TD*%
%TA.AperFunction,Conductor*%
%TO.N,Rx*%
G36*
X123176666Y-83078498D02*
G01*
X124220444Y-84122276D01*
X124223871Y-84130549D01*
X124220444Y-84138822D01*
X124219758Y-84139455D01*
X124144962Y-84203047D01*
X124073523Y-84263785D01*
X124071707Y-84265053D01*
X123926895Y-84347006D01*
X123924760Y-84347947D01*
X123862312Y-84368313D01*
X123787437Y-84392731D01*
X123785569Y-84393174D01*
X123685418Y-84408345D01*
X123652665Y-84413306D01*
X123651605Y-84413418D01*
X123388574Y-84428996D01*
X123388321Y-84429011D01*
X123253933Y-84449367D01*
X123253473Y-84449517D01*
X123115135Y-84494631D01*
X123115132Y-84494632D01*
X123114578Y-84494813D01*
X122967775Y-84577893D01*
X122967356Y-84578250D01*
X122967355Y-84578250D01*
X122817367Y-84705773D01*
X122808844Y-84708521D01*
X122803874Y-84706954D01*
X121794447Y-84115646D01*
X121789041Y-84108508D01*
X121789896Y-84100320D01*
X122206659Y-83266794D01*
X122213423Y-83260927D01*
X122217466Y-83260332D01*
X122345968Y-83264125D01*
X122346540Y-83264157D01*
X122464045Y-83273561D01*
X122464340Y-83273589D01*
X122567281Y-83284479D01*
X122567355Y-83284486D01*
X122567367Y-83284487D01*
X122658880Y-83292894D01*
X122658885Y-83292894D01*
X122659067Y-83292911D01*
X122743048Y-83294922D01*
X122822735Y-83286568D01*
X122823230Y-83286426D01*
X122823234Y-83286425D01*
X122901110Y-83264054D01*
X122901639Y-83263902D01*
X122908761Y-83260332D01*
X122982847Y-83223192D01*
X122982846Y-83223192D01*
X122983270Y-83222980D01*
X123071138Y-83159856D01*
X123160497Y-83078137D01*
X123168915Y-83075083D01*
X123176666Y-83078498D01*
G37*
%TD.AperFunction*%
%TD*%
%TA.AperFunction,Conductor*%
%TO.N,Net-(R2-Pad1)*%
G36*
X159642189Y-88523591D02*
G01*
X160686410Y-89567812D01*
X160689837Y-89576085D01*
X160686463Y-89584303D01*
X160622620Y-89648978D01*
X160542667Y-89729971D01*
X160542654Y-89729985D01*
X160419399Y-89858614D01*
X160317685Y-89968248D01*
X160317631Y-89968308D01*
X160230331Y-90065218D01*
X160150156Y-90155858D01*
X160069991Y-90246487D01*
X160069920Y-90246566D01*
X159982689Y-90343400D01*
X159982573Y-90343527D01*
X159880983Y-90453027D01*
X159880854Y-90453164D01*
X159757706Y-90581681D01*
X159757585Y-90581805D01*
X159610802Y-90730501D01*
X159602551Y-90733982D01*
X159598777Y-90733382D01*
X158762708Y-90454692D01*
X158755943Y-90448824D01*
X158755308Y-90447292D01*
X158476618Y-89611224D01*
X158477253Y-89602292D01*
X158479499Y-89599198D01*
X158628145Y-89452462D01*
X158628269Y-89452340D01*
X158756835Y-89329145D01*
X158756972Y-89329016D01*
X158866472Y-89227426D01*
X158866599Y-89227310D01*
X158963423Y-89140088D01*
X158963502Y-89140017D01*
X159054141Y-89059843D01*
X159144781Y-88979668D01*
X159144791Y-88979659D01*
X159241691Y-88892368D01*
X159241751Y-88892314D01*
X159351385Y-88790600D01*
X159480014Y-88667345D01*
X159625696Y-88523537D01*
X159633992Y-88520164D01*
X159642189Y-88523591D01*
G37*
%TD.AperFunction*%
%TD*%
%TA.AperFunction,Conductor*%
%TO.N,Vdd*%
G36*
X155941224Y-101036618D02*
G01*
X156777292Y-101315308D01*
X156784057Y-101321176D01*
X156784692Y-101322708D01*
X156980911Y-101911362D01*
X157063382Y-102158775D01*
X157062747Y-102167707D01*
X157060501Y-102170802D01*
X156911805Y-102317585D01*
X156911681Y-102317706D01*
X156783164Y-102440854D01*
X156783027Y-102440983D01*
X156673527Y-102542573D01*
X156673400Y-102542689D01*
X156576497Y-102629982D01*
X156485858Y-102710156D01*
X156395218Y-102790331D01*
X156298248Y-102877685D01*
X156188614Y-102979399D01*
X156059985Y-103102654D01*
X156059971Y-103102667D01*
X155978978Y-103182620D01*
X155914303Y-103246463D01*
X155906009Y-103249837D01*
X155897812Y-103246410D01*
X154853591Y-102202189D01*
X154850164Y-102193916D01*
X154853537Y-102185697D01*
X154997345Y-102040014D01*
X154997354Y-102040005D01*
X155120600Y-101911385D01*
X155120622Y-101911362D01*
X155222262Y-101801807D01*
X155222314Y-101801751D01*
X155309668Y-101704781D01*
X155389843Y-101614141D01*
X155470017Y-101523502D01*
X155557310Y-101426599D01*
X155557426Y-101426472D01*
X155659016Y-101316972D01*
X155659145Y-101316835D01*
X155782340Y-101188269D01*
X155782462Y-101188145D01*
X155929198Y-101039499D01*
X155937448Y-101036018D01*
X155941224Y-101036618D01*
G37*
%TD.AperFunction*%
%TD*%
%TA.AperFunction,Conductor*%
%TO.N,Net-(A1-Pad3)*%
G36*
X105701012Y-91913420D02*
G01*
X105703256Y-91916513D01*
X106097384Y-92704768D01*
X106098019Y-92713700D01*
X106097384Y-92715232D01*
X105703258Y-93503485D01*
X105696493Y-93509353D01*
X105692718Y-93509953D01*
X105629829Y-93509546D01*
X105483723Y-93508600D01*
X105483549Y-93508597D01*
X105391470Y-93506633D01*
X105305638Y-93504802D01*
X105305531Y-93504799D01*
X105249277Y-93502691D01*
X105156186Y-93499202D01*
X105156014Y-93499194D01*
X105025831Y-93492402D01*
X105025726Y-93492396D01*
X104905000Y-93485000D01*
X104784216Y-93477600D01*
X104653879Y-93470799D01*
X104504490Y-93465202D01*
X104504479Y-93465202D01*
X104504433Y-93465200D01*
X104326324Y-93461400D01*
X104262362Y-93460986D01*
X104121624Y-93460075D01*
X104113373Y-93456594D01*
X104110000Y-93448375D01*
X104110000Y-91971625D01*
X104113427Y-91963352D01*
X104121624Y-91959925D01*
X104262362Y-91959014D01*
X104326324Y-91958600D01*
X104504433Y-91954800D01*
X104504479Y-91954798D01*
X104504490Y-91954798D01*
X104653879Y-91949200D01*
X104784164Y-91942403D01*
X104784201Y-91942401D01*
X104784216Y-91942400D01*
X104905000Y-91935000D01*
X105025726Y-91927604D01*
X105025831Y-91927598D01*
X105156014Y-91920805D01*
X105156186Y-91920797D01*
X105249295Y-91917308D01*
X105305531Y-91915201D01*
X105305638Y-91915198D01*
X105391470Y-91913367D01*
X105483549Y-91911403D01*
X105483723Y-91911400D01*
X105629829Y-91910454D01*
X105692717Y-91910047D01*
X105701012Y-91913420D01*
G37*
%TD.AperFunction*%
%TD*%
%TA.AperFunction,Conductor*%
%TO.N,Wifi Status*%
G36*
X155306751Y-107943188D02*
G01*
X155308616Y-107943470D01*
X155434685Y-107973071D01*
X155465472Y-107980300D01*
X155467372Y-107980922D01*
X155575288Y-108026808D01*
X155594856Y-108035128D01*
X155596366Y-108035903D01*
X155704724Y-108101922D01*
X155705522Y-108102455D01*
X155804760Y-108174760D01*
X155904390Y-108247351D01*
X156013875Y-108314057D01*
X156014263Y-108314222D01*
X156142605Y-108368793D01*
X156142608Y-108368794D01*
X156143069Y-108368990D01*
X156301826Y-108406267D01*
X156491733Y-108419428D01*
X156499749Y-108423419D01*
X156502203Y-108427989D01*
X156790299Y-109472809D01*
X156792237Y-109479838D01*
X156791133Y-109488724D01*
X156785145Y-109493873D01*
X155966619Y-109807525D01*
X155957669Y-109807286D01*
X155954516Y-109805213D01*
X155865123Y-109723035D01*
X155784310Y-109649871D01*
X155784287Y-109649851D01*
X155784191Y-109649764D01*
X155775840Y-109642691D01*
X155712848Y-109589344D01*
X155712837Y-109589335D01*
X155712689Y-109589210D01*
X155646251Y-109540279D01*
X155580513Y-109501878D01*
X155548996Y-109488724D01*
X155511483Y-109473068D01*
X155511482Y-109473068D01*
X155511109Y-109472912D01*
X155433673Y-109452287D01*
X155433355Y-109452240D01*
X155433347Y-109452238D01*
X155344084Y-109438945D01*
X155344072Y-109438944D01*
X155343839Y-109438909D01*
X155343604Y-109438893D01*
X155343594Y-109438892D01*
X155280983Y-109434649D01*
X155237244Y-109431685D01*
X155237069Y-109431682D01*
X155237068Y-109431682D01*
X155198899Y-109431035D01*
X155121022Y-109429715D01*
X155112808Y-109426149D01*
X155109520Y-109418017D01*
X155109520Y-107942059D01*
X155112947Y-107933786D01*
X155122029Y-107930387D01*
X155306751Y-107943188D01*
G37*
%TD.AperFunction*%
%TD*%
%TA.AperFunction,Conductor*%
%TO.N,Net-(R6-Pad2)*%
G36*
X168472880Y-109971940D02*
G01*
X168640196Y-110133596D01*
X168640269Y-110133662D01*
X168640271Y-110133663D01*
X168790080Y-110267369D01*
X168790095Y-110267382D01*
X168790177Y-110267455D01*
X168920954Y-110374474D01*
X168921003Y-110374511D01*
X168921018Y-110374523D01*
X169027426Y-110454908D01*
X169038929Y-110463598D01*
X169038975Y-110463631D01*
X169038979Y-110463634D01*
X169261940Y-110623857D01*
X169262164Y-110624022D01*
X169379872Y-110712944D01*
X169380230Y-110713225D01*
X169510638Y-110819942D01*
X169511019Y-110820268D01*
X169660638Y-110953804D01*
X169660969Y-110954112D01*
X169742496Y-111032880D01*
X169831095Y-111118482D01*
X169834663Y-111126695D01*
X169834065Y-111130596D01*
X169520048Y-112072648D01*
X169514180Y-112079413D01*
X169512648Y-112080048D01*
X168570596Y-112394065D01*
X168561664Y-112393430D01*
X168558482Y-112391095D01*
X168394119Y-112220977D01*
X168393804Y-112220638D01*
X168260260Y-112071009D01*
X168259942Y-112070638D01*
X168153225Y-111940230D01*
X168152944Y-111939872D01*
X168064022Y-111822164D01*
X168063857Y-111821940D01*
X167903634Y-111598979D01*
X167903631Y-111598975D01*
X167903598Y-111598929D01*
X167894908Y-111587426D01*
X167814523Y-111481018D01*
X167814511Y-111481003D01*
X167814474Y-111480954D01*
X167707455Y-111350177D01*
X167707382Y-111350095D01*
X167707369Y-111350080D01*
X167573663Y-111200271D01*
X167573662Y-111200269D01*
X167573596Y-111200196D01*
X167411940Y-111032880D01*
X167408656Y-111024549D01*
X167412081Y-111016477D01*
X168456477Y-109972081D01*
X168464750Y-109968654D01*
X168472880Y-109971940D01*
G37*
%TD.AperFunction*%
%TD*%
%TA.AperFunction,Conductor*%
%TO.N,Net-(R4-Pad1)*%
G36*
X167696870Y-95243427D02*
G01*
X167700293Y-95251399D01*
X167707000Y-95512329D01*
X167726000Y-95735772D01*
X167754000Y-95922550D01*
X167788000Y-96084886D01*
X167788019Y-96084963D01*
X167788021Y-96084972D01*
X167825000Y-96235000D01*
X167861948Y-96384902D01*
X167862040Y-96385304D01*
X167895930Y-96547120D01*
X167896049Y-96547783D01*
X167923945Y-96733861D01*
X167924032Y-96734605D01*
X167942971Y-96957328D01*
X167943009Y-96958018D01*
X167949809Y-97222562D01*
X167946596Y-97230921D01*
X167943347Y-97233326D01*
X166955232Y-97727384D01*
X166946300Y-97728019D01*
X166944768Y-97727384D01*
X165956654Y-97233327D01*
X165950787Y-97226563D01*
X165950191Y-97222562D01*
X165956991Y-96958018D01*
X165957029Y-96957328D01*
X165975968Y-96734605D01*
X165976055Y-96733861D01*
X166003950Y-96547783D01*
X166004069Y-96547120D01*
X166037960Y-96385304D01*
X166038052Y-96384902D01*
X166075000Y-96235000D01*
X166111979Y-96084972D01*
X166111981Y-96084963D01*
X166112000Y-96084886D01*
X166145999Y-95922550D01*
X166174000Y-95735772D01*
X166193000Y-95512329D01*
X166199707Y-95251399D01*
X166203345Y-95243217D01*
X166211403Y-95240000D01*
X167688597Y-95240000D01*
X167696870Y-95243427D01*
G37*
%TD.AperFunction*%
%TD*%
%TA.AperFunction,Conductor*%
%TO.N,unconnected-(U1-Pad13)*%
G36*
X136446291Y-98764701D02*
G01*
X136449715Y-98773252D01*
X136443864Y-99019284D01*
X136443831Y-99019923D01*
X136427213Y-99231324D01*
X136427138Y-99232012D01*
X136402661Y-99408719D01*
X136402560Y-99409328D01*
X136383806Y-99506292D01*
X136372818Y-99563099D01*
X136372744Y-99563450D01*
X136340318Y-99705955D01*
X136307852Y-99848633D01*
X136278018Y-100002876D01*
X136253449Y-100180247D01*
X136253436Y-100180408D01*
X136253435Y-100180420D01*
X136253162Y-100183897D01*
X136236778Y-100392313D01*
X136236775Y-100392449D01*
X136230827Y-100642610D01*
X136227204Y-100650799D01*
X136223079Y-100653346D01*
X135005583Y-101089852D01*
X134996638Y-101089418D01*
X134992122Y-101085651D01*
X134350590Y-100189966D01*
X134348559Y-100181245D01*
X134349915Y-100177398D01*
X134450628Y-99999147D01*
X134450960Y-99998595D01*
X134546931Y-99848633D01*
X134547414Y-99847879D01*
X134547671Y-99847496D01*
X134635642Y-99721371D01*
X134635705Y-99721280D01*
X134714512Y-99610534D01*
X134714570Y-99610453D01*
X134783368Y-99506084D01*
X134841347Y-99399036D01*
X134887753Y-99280169D01*
X134921832Y-99140345D01*
X134942832Y-98970426D01*
X134949590Y-98773252D01*
X134949613Y-98772573D01*
X134953321Y-98764422D01*
X134961306Y-98761274D01*
X136438018Y-98761274D01*
X136446291Y-98764701D01*
G37*
%TD.AperFunction*%
%TD*%
%TA.AperFunction,Conductor*%
%TO.N,unconnected-(U1-Pad6)*%
G36*
X148919318Y-90846156D02*
G01*
X149055310Y-90854504D01*
X149056962Y-90854724D01*
X149246386Y-90893884D01*
X149248094Y-90894375D01*
X149403156Y-90952023D01*
X149404551Y-90952649D01*
X149537093Y-91022782D01*
X149537839Y-91023213D01*
X149659590Y-91099926D01*
X149781699Y-91176864D01*
X149915310Y-91247563D01*
X150071921Y-91305787D01*
X150263033Y-91345296D01*
X150263450Y-91345322D01*
X150263453Y-91345322D01*
X150491687Y-91359333D01*
X150499735Y-91363260D01*
X150502290Y-91368054D01*
X150830724Y-92625436D01*
X150850934Y-92702810D01*
X150849709Y-92711681D01*
X150843314Y-92716867D01*
X149800208Y-93064569D01*
X149791276Y-93063934D01*
X149787915Y-93061409D01*
X149678049Y-92942499D01*
X149677506Y-92941869D01*
X149585243Y-92826555D01*
X149584918Y-92826129D01*
X149508010Y-92720435D01*
X149507978Y-92720390D01*
X149483938Y-92687020D01*
X149439574Y-92625436D01*
X149372783Y-92542340D01*
X149300652Y-92472134D01*
X149216196Y-92415808D01*
X149112431Y-92374352D01*
X148982371Y-92348752D01*
X148914721Y-92345127D01*
X148830106Y-92340593D01*
X148822028Y-92336729D01*
X148819032Y-92328910D01*
X148819032Y-90852440D01*
X148822459Y-90844167D01*
X148831449Y-90840762D01*
X148919318Y-90846156D01*
G37*
%TD.AperFunction*%
%TD*%
%TA.AperFunction,Conductor*%
%TO.N,GND*%
G36*
X172196870Y-85083427D02*
G01*
X172200293Y-85091399D01*
X172207000Y-85352329D01*
X172226000Y-85575772D01*
X172254000Y-85762550D01*
X172288000Y-85924886D01*
X172288019Y-85924963D01*
X172288021Y-85924972D01*
X172325000Y-86075000D01*
X172361948Y-86224902D01*
X172362040Y-86225304D01*
X172395930Y-86387120D01*
X172396049Y-86387783D01*
X172423945Y-86573861D01*
X172424032Y-86574605D01*
X172443000Y-86797670D01*
X172450000Y-87070000D01*
X171450000Y-87570000D01*
X170456654Y-87073327D01*
X170450787Y-87066563D01*
X170450191Y-87062562D01*
X170456991Y-86798018D01*
X170457029Y-86797328D01*
X170457070Y-86796852D01*
X170475968Y-86574605D01*
X170476055Y-86573861D01*
X170503950Y-86387783D01*
X170504069Y-86387120D01*
X170537960Y-86225304D01*
X170538052Y-86224902D01*
X170575000Y-86075000D01*
X170611979Y-85924972D01*
X170611981Y-85924963D01*
X170612000Y-85924886D01*
X170645999Y-85762550D01*
X170674000Y-85575772D01*
X170693000Y-85352329D01*
X170699707Y-85091399D01*
X170703345Y-85083217D01*
X170711403Y-85080000D01*
X172188597Y-85080000D01*
X172196870Y-85083427D01*
G37*
%TD.AperFunction*%
%TD*%
%TA.AperFunction,Conductor*%
%TO.N,Gnd Motor*%
G36*
X99439876Y-103291215D02*
G01*
X99569976Y-103292798D01*
X99570303Y-103292806D01*
X99631827Y-103295275D01*
X99759410Y-103300395D01*
X99759702Y-103300411D01*
X99918220Y-103311591D01*
X99918479Y-103311612D01*
X100056714Y-103325194D01*
X100056821Y-103325206D01*
X100185000Y-103340000D01*
X100313227Y-103354800D01*
X100313286Y-103354806D01*
X100313297Y-103354807D01*
X100406323Y-103363946D01*
X100451647Y-103368399D01*
X100451723Y-103368404D01*
X100451742Y-103368406D01*
X100587619Y-103377989D01*
X100610454Y-103379600D01*
X100610498Y-103379602D01*
X100610502Y-103379602D01*
X100687553Y-103382694D01*
X100799840Y-103387200D01*
X100799931Y-103387201D01*
X100799964Y-103387202D01*
X100921541Y-103388681D01*
X101018443Y-103389859D01*
X101026673Y-103393386D01*
X101030000Y-103401558D01*
X101030000Y-104878442D01*
X101026573Y-104886715D01*
X101018443Y-104890141D01*
X100921541Y-104891319D01*
X100799964Y-104892798D01*
X100799931Y-104892799D01*
X100799840Y-104892800D01*
X100687553Y-104897306D01*
X100610502Y-104900398D01*
X100610498Y-104900398D01*
X100610454Y-104900400D01*
X100587522Y-104902017D01*
X100451742Y-104911593D01*
X100451723Y-104911595D01*
X100451647Y-104911600D01*
X100406534Y-104916032D01*
X100313297Y-104925193D01*
X100313286Y-104925194D01*
X100313227Y-104925200D01*
X100185000Y-104940000D01*
X100056821Y-104954794D01*
X100056714Y-104954806D01*
X99918479Y-104968387D01*
X99918220Y-104968408D01*
X99759702Y-104979589D01*
X99759410Y-104979605D01*
X99631827Y-104984725D01*
X99570303Y-104987194D01*
X99569976Y-104987202D01*
X99439876Y-104988785D01*
X99347329Y-104989911D01*
X99339015Y-104986585D01*
X99336722Y-104983444D01*
X98917616Y-104145232D01*
X98916981Y-104136300D01*
X98917616Y-104134768D01*
X99336722Y-103296556D01*
X99343487Y-103290688D01*
X99347328Y-103290089D01*
X99439876Y-103291215D01*
G37*
%TD.AperFunction*%
%TD*%
%TA.AperFunction,Conductor*%
%TO.N,Net-(R7-Pad2)*%
G36*
X167231947Y-104849221D02*
G01*
X167380757Y-104965807D01*
X167530314Y-105024218D01*
X167675734Y-105035318D01*
X167683412Y-105034218D01*
X167818084Y-105014922D01*
X167818089Y-105014921D01*
X167818396Y-105014877D01*
X167830357Y-105011811D01*
X167923799Y-104987862D01*
X167923800Y-104987861D01*
X168100962Y-104942453D01*
X168243624Y-104922012D01*
X168389044Y-104933111D01*
X168537000Y-104990898D01*
X168539953Y-104992582D01*
X168580333Y-105024218D01*
X168683279Y-105104872D01*
X168687678Y-105112672D01*
X168685273Y-105121298D01*
X168684336Y-105122355D01*
X167640625Y-106166066D01*
X167632352Y-106169493D01*
X167624799Y-106166728D01*
X167543619Y-106098102D01*
X167535263Y-106091038D01*
X167480316Y-106062742D01*
X167447122Y-106045648D01*
X167447120Y-106045647D01*
X167446366Y-106045259D01*
X167398912Y-106036401D01*
X167363859Y-106029857D01*
X167363857Y-106029857D01*
X167363043Y-106029705D01*
X167322365Y-106033740D01*
X167282582Y-106037687D01*
X167282580Y-106037687D01*
X167282009Y-106037744D01*
X167199980Y-106062742D01*
X167113674Y-106098068D01*
X167020131Y-106136955D01*
X167019480Y-106137203D01*
X166961322Y-106157243D01*
X166915711Y-106172960D01*
X166914447Y-106173317D01*
X166797080Y-106199503D01*
X166795415Y-106199751D01*
X166667834Y-106209407D01*
X166659326Y-106206614D01*
X166656486Y-106202972D01*
X166264896Y-105419793D01*
X166264261Y-105410861D01*
X166269447Y-105404466D01*
X166553488Y-105238079D01*
X167218819Y-104848337D01*
X167227690Y-104847112D01*
X167231947Y-104849221D01*
G37*
%TD.AperFunction*%
%TD*%
%TA.AperFunction,Conductor*%
%TO.N,Net-(R1-Pad2)*%
G36*
X153961848Y-84841337D02*
G01*
X154074176Y-84852975D01*
X154142085Y-84860011D01*
X154144883Y-84860655D01*
X154292383Y-84914369D01*
X154295017Y-84915728D01*
X154409857Y-84994862D01*
X154411621Y-84996355D01*
X154505261Y-85093006D01*
X154506055Y-85093915D01*
X154651276Y-85278599D01*
X154673262Y-85306560D01*
X154768132Y-85404479D01*
X154885158Y-85485120D01*
X155035421Y-85539840D01*
X155221936Y-85559164D01*
X155229811Y-85563425D01*
X155232049Y-85567845D01*
X155495957Y-86578196D01*
X155510075Y-86632247D01*
X155508850Y-86641118D01*
X155502455Y-86646304D01*
X155085493Y-86785292D01*
X154671551Y-86923273D01*
X154662620Y-86922638D01*
X154659189Y-86920036D01*
X154577687Y-86830242D01*
X154577020Y-86829439D01*
X154508999Y-86739550D01*
X154508573Y-86738949D01*
X154493266Y-86715828D01*
X154453034Y-86655058D01*
X154452972Y-86654962D01*
X154404428Y-86578313D01*
X154357403Y-86510264D01*
X154306316Y-86452021D01*
X154245547Y-86404728D01*
X154244950Y-86404452D01*
X154244947Y-86404450D01*
X154170035Y-86369790D01*
X154170034Y-86369790D01*
X154169475Y-86369531D01*
X154136012Y-86361956D01*
X154072942Y-86347677D01*
X154072938Y-86347676D01*
X154072481Y-86347573D01*
X154072013Y-86347544D01*
X154072011Y-86347544D01*
X153959929Y-86340673D01*
X153951881Y-86336746D01*
X153948945Y-86328995D01*
X153948945Y-84852975D01*
X153952372Y-84844702D01*
X153960645Y-84841275D01*
X153961848Y-84841337D01*
G37*
%TD.AperFunction*%
%TD*%
%TA.AperFunction,Conductor*%
%TO.N,Vdd*%
G36*
X151034874Y-102501092D02*
G01*
X152079408Y-103545626D01*
X152082835Y-103553899D01*
X152079618Y-103561956D01*
X151899854Y-103751204D01*
X151755291Y-103922637D01*
X151643018Y-104074508D01*
X151552271Y-104213338D01*
X151472288Y-104345647D01*
X151392304Y-104477957D01*
X151301557Y-104616786D01*
X151189284Y-104768657D01*
X151044721Y-104940090D01*
X150857106Y-105137606D01*
X149801997Y-104785903D01*
X149795232Y-104780035D01*
X149794597Y-104778503D01*
X149735917Y-104602462D01*
X149735915Y-104602458D01*
X149445247Y-103730453D01*
X149445882Y-103721521D01*
X149448289Y-103718270D01*
X149640166Y-103536009D01*
X149640682Y-103535548D01*
X149811553Y-103391459D01*
X149812140Y-103390995D01*
X149963438Y-103279145D01*
X149963991Y-103278760D01*
X150102358Y-103188315D01*
X150102707Y-103188095D01*
X150234852Y-103108211D01*
X150367074Y-103028281D01*
X150367090Y-103028271D01*
X150367161Y-103028228D01*
X150367241Y-103028176D01*
X150367258Y-103028165D01*
X150505849Y-102937574D01*
X150505853Y-102937571D01*
X150505991Y-102937481D01*
X150506120Y-102937386D01*
X150506131Y-102937378D01*
X150657703Y-102825326D01*
X150657712Y-102825319D01*
X150657862Y-102825208D01*
X150829295Y-102680645D01*
X150829408Y-102680538D01*
X150829420Y-102680527D01*
X150934549Y-102580667D01*
X151018544Y-102500882D01*
X151026902Y-102497669D01*
X151034874Y-102501092D01*
G37*
%TD.AperFunction*%
%TD*%
%TA.AperFunction,Conductor*%
%TO.N,GND*%
G36*
X119675232Y-107452616D02*
G01*
X120663346Y-107946673D01*
X120669213Y-107953437D01*
X120669809Y-107957438D01*
X120663009Y-108221981D01*
X120662971Y-108222671D01*
X120644032Y-108445394D01*
X120643945Y-108446138D01*
X120616050Y-108632216D01*
X120615931Y-108632879D01*
X120582040Y-108794695D01*
X120581948Y-108795097D01*
X120545000Y-108945000D01*
X120508000Y-109095113D01*
X120473999Y-109257449D01*
X120446000Y-109444227D01*
X120427000Y-109667670D01*
X120426996Y-109667835D01*
X120420293Y-109928601D01*
X120416655Y-109936783D01*
X120408597Y-109940000D01*
X118931403Y-109940000D01*
X118923130Y-109936573D01*
X118919707Y-109928601D01*
X118913004Y-109667835D01*
X118913000Y-109667670D01*
X118894000Y-109444227D01*
X118866000Y-109257449D01*
X118832000Y-109095113D01*
X118795000Y-108945000D01*
X118758050Y-108795088D01*
X118757961Y-108794701D01*
X118757960Y-108794695D01*
X118724064Y-108632861D01*
X118723948Y-108632212D01*
X118696055Y-108446137D01*
X118695968Y-108445394D01*
X118677029Y-108222671D01*
X118676991Y-108221981D01*
X118670191Y-107957438D01*
X118673404Y-107949079D01*
X118676653Y-107946674D01*
X119664768Y-107452616D01*
X119673700Y-107451981D01*
X119675232Y-107452616D01*
G37*
%TD.AperFunction*%
%TD*%
%TA.AperFunction,Conductor*%
%TO.N,Net-(R4-Pad1)*%
G36*
X166955232Y-90232616D02*
G01*
X167943346Y-90726673D01*
X167949213Y-90733437D01*
X167949809Y-90737438D01*
X167943009Y-91001981D01*
X167942971Y-91002671D01*
X167924032Y-91225394D01*
X167923945Y-91226138D01*
X167896050Y-91412216D01*
X167895931Y-91412879D01*
X167862040Y-91574695D01*
X167861948Y-91575097D01*
X167825000Y-91725000D01*
X167788000Y-91875113D01*
X167753999Y-92037449D01*
X167726000Y-92224227D01*
X167707000Y-92447670D01*
X167706996Y-92447835D01*
X167700293Y-92708601D01*
X167696655Y-92716783D01*
X167688597Y-92720000D01*
X166211403Y-92720000D01*
X166203130Y-92716573D01*
X166199707Y-92708601D01*
X166193004Y-92447835D01*
X166193000Y-92447670D01*
X166174000Y-92224227D01*
X166146000Y-92037449D01*
X166112000Y-91875113D01*
X166075000Y-91725000D01*
X166038050Y-91575088D01*
X166037961Y-91574701D01*
X166037960Y-91574695D01*
X166004064Y-91412861D01*
X166003948Y-91412212D01*
X165976055Y-91226137D01*
X165975968Y-91225394D01*
X165957029Y-91002671D01*
X165956991Y-91001981D01*
X165950191Y-90737438D01*
X165953404Y-90729079D01*
X165956653Y-90726674D01*
X166944768Y-90232616D01*
X166953700Y-90231981D01*
X166955232Y-90232616D01*
G37*
%TD.AperFunction*%
%TD*%
%TA.AperFunction,Conductor*%
%TO.N,Tx*%
G36*
X122309876Y-80721327D02*
G01*
X122439976Y-80722910D01*
X122440303Y-80722918D01*
X122501827Y-80725387D01*
X122629410Y-80730507D01*
X122629702Y-80730523D01*
X122788220Y-80741703D01*
X122788479Y-80741724D01*
X122926714Y-80755306D01*
X122926821Y-80755318D01*
X123055000Y-80770112D01*
X123183227Y-80784912D01*
X123183286Y-80784918D01*
X123183297Y-80784919D01*
X123276323Y-80794058D01*
X123321647Y-80798511D01*
X123321723Y-80798516D01*
X123321742Y-80798518D01*
X123457619Y-80808101D01*
X123480454Y-80809712D01*
X123480498Y-80809714D01*
X123480502Y-80809714D01*
X123557553Y-80812806D01*
X123669840Y-80817312D01*
X123669931Y-80817313D01*
X123669964Y-80817314D01*
X123791541Y-80818793D01*
X123888443Y-80819971D01*
X123896673Y-80823498D01*
X123900000Y-80831670D01*
X123900000Y-82308554D01*
X123896573Y-82316827D01*
X123888443Y-82320253D01*
X123791541Y-82321431D01*
X123669964Y-82322910D01*
X123669931Y-82322911D01*
X123669840Y-82322912D01*
X123557553Y-82327418D01*
X123480502Y-82330510D01*
X123480498Y-82330510D01*
X123480454Y-82330512D01*
X123457522Y-82332129D01*
X123321742Y-82341705D01*
X123321723Y-82341707D01*
X123321647Y-82341712D01*
X123276534Y-82346144D01*
X123183297Y-82355305D01*
X123183286Y-82355306D01*
X123183227Y-82355312D01*
X123055000Y-82370112D01*
X122926821Y-82384906D01*
X122926714Y-82384918D01*
X122788479Y-82398499D01*
X122788220Y-82398520D01*
X122629702Y-82409701D01*
X122629410Y-82409717D01*
X122501827Y-82414837D01*
X122440303Y-82417306D01*
X122439976Y-82417314D01*
X122309876Y-82418897D01*
X122217329Y-82420023D01*
X122209015Y-82416697D01*
X122206722Y-82413556D01*
X121787616Y-81575344D01*
X121786981Y-81566412D01*
X121787616Y-81564880D01*
X122206722Y-80726668D01*
X122213487Y-80720800D01*
X122217328Y-80720201D01*
X122309876Y-80721327D01*
G37*
%TD.AperFunction*%
%TD*%
%TA.AperFunction,Conductor*%
%TO.N,Vdd*%
G36*
X101903078Y-109641396D02*
G01*
X102049037Y-109656976D01*
X102051374Y-109657472D01*
X102188027Y-109701493D01*
X102189775Y-109702216D01*
X102283277Y-109750254D01*
X102309716Y-109763837D01*
X102310733Y-109764426D01*
X102418166Y-109834062D01*
X102418344Y-109834180D01*
X102517107Y-109901890D01*
X102517259Y-109901980D01*
X102610435Y-109957190D01*
X102610439Y-109957192D01*
X102610910Y-109957471D01*
X102703783Y-109990922D01*
X102704754Y-109990936D01*
X102798702Y-109992287D01*
X102798704Y-109992287D01*
X102799844Y-109992303D01*
X102903212Y-109951670D01*
X103009824Y-109865683D01*
X103018413Y-109863157D01*
X103025440Y-109866517D01*
X104069197Y-110910274D01*
X104072624Y-110918547D01*
X104069197Y-110926820D01*
X104068013Y-110927855D01*
X103913813Y-111045305D01*
X103910417Y-111047099D01*
X103754350Y-111099023D01*
X103752796Y-111099540D01*
X103749017Y-111100138D01*
X103594822Y-111099023D01*
X103592148Y-111098692D01*
X103439148Y-111061488D01*
X103437911Y-111061113D01*
X103284852Y-111005391D01*
X103131495Y-110949559D01*
X103131490Y-110949557D01*
X103131181Y-110949445D01*
X103009030Y-110919742D01*
X102976896Y-110911928D01*
X102976894Y-110911928D01*
X102976237Y-110911768D01*
X102975561Y-110911763D01*
X102975560Y-110911763D01*
X102874990Y-110911036D01*
X102818748Y-110910629D01*
X102817838Y-110910932D01*
X102817837Y-110910932D01*
X102658356Y-110963992D01*
X102658355Y-110963993D01*
X102657440Y-110964297D01*
X102497276Y-111086290D01*
X102488620Y-111088576D01*
X102484276Y-111087078D01*
X101474447Y-110495534D01*
X101469041Y-110488396D01*
X101469896Y-110480208D01*
X101886368Y-109647264D01*
X101893133Y-109641396D01*
X101898075Y-109640862D01*
X101903078Y-109641396D01*
G37*
%TD.AperFunction*%
%TD*%
%TA.AperFunction,Conductor*%
%TO.N,Net-(A1-Pad5)*%
G36*
X99439876Y-96941215D02*
G01*
X99569976Y-96942798D01*
X99570303Y-96942806D01*
X99631827Y-96945275D01*
X99759410Y-96950395D01*
X99759703Y-96950411D01*
X99918220Y-96961590D01*
X99918479Y-96961611D01*
X100056714Y-96975194D01*
X100056821Y-96975206D01*
X100185000Y-96990000D01*
X100313227Y-97004800D01*
X100313286Y-97004806D01*
X100313297Y-97004807D01*
X100406323Y-97013946D01*
X100451647Y-97018399D01*
X100451723Y-97018404D01*
X100451742Y-97018406D01*
X100587619Y-97027989D01*
X100610454Y-97029600D01*
X100610498Y-97029602D01*
X100610502Y-97029602D01*
X100687553Y-97032694D01*
X100799840Y-97037200D01*
X100799931Y-97037201D01*
X100799964Y-97037202D01*
X100921541Y-97038681D01*
X101018443Y-97039859D01*
X101026673Y-97043386D01*
X101030000Y-97051558D01*
X101030000Y-98528442D01*
X101026573Y-98536715D01*
X101018443Y-98540141D01*
X100921541Y-98541319D01*
X100799964Y-98542798D01*
X100799931Y-98542799D01*
X100799840Y-98542800D01*
X100687553Y-98547306D01*
X100610502Y-98550398D01*
X100610498Y-98550398D01*
X100610454Y-98550400D01*
X100587522Y-98552017D01*
X100451742Y-98561593D01*
X100451723Y-98561595D01*
X100451647Y-98561600D01*
X100406534Y-98566032D01*
X100313297Y-98575193D01*
X100313286Y-98575194D01*
X100313227Y-98575200D01*
X100185000Y-98590000D01*
X100056821Y-98604794D01*
X100056714Y-98604806D01*
X99918479Y-98618387D01*
X99918220Y-98618408D01*
X99759702Y-98629589D01*
X99759410Y-98629605D01*
X99631827Y-98634725D01*
X99570303Y-98637194D01*
X99569976Y-98637202D01*
X99439876Y-98638785D01*
X99347329Y-98639911D01*
X99339015Y-98636585D01*
X99336722Y-98633444D01*
X98917616Y-97795232D01*
X98916981Y-97786300D01*
X98917616Y-97784768D01*
X99336722Y-96946556D01*
X99343487Y-96940688D01*
X99347328Y-96940089D01*
X99439876Y-96941215D01*
G37*
%TD.AperFunction*%
%TD*%
%TA.AperFunction,Conductor*%
%TO.N,Done Moving*%
G36*
X159642189Y-111383591D02*
G01*
X160686410Y-112427812D01*
X160689837Y-112436085D01*
X160686463Y-112444303D01*
X160622620Y-112508978D01*
X160542667Y-112589971D01*
X160542654Y-112589985D01*
X160419399Y-112718614D01*
X160317685Y-112828248D01*
X160317631Y-112828308D01*
X160230331Y-112925218D01*
X160150156Y-113015858D01*
X160069991Y-113106487D01*
X160069920Y-113106566D01*
X159982689Y-113203400D01*
X159982573Y-113203527D01*
X159880983Y-113313027D01*
X159880854Y-113313164D01*
X159757706Y-113441681D01*
X159757585Y-113441805D01*
X159610802Y-113590501D01*
X159602551Y-113593982D01*
X159598777Y-113593382D01*
X158762708Y-113314692D01*
X158755943Y-113308824D01*
X158755308Y-113307292D01*
X158476618Y-112471224D01*
X158477253Y-112462292D01*
X158479499Y-112459198D01*
X158628145Y-112312462D01*
X158628269Y-112312340D01*
X158756835Y-112189145D01*
X158756972Y-112189016D01*
X158866472Y-112087426D01*
X158866599Y-112087310D01*
X158963423Y-112000088D01*
X158963502Y-112000017D01*
X159054141Y-111919843D01*
X159144781Y-111839668D01*
X159144791Y-111839659D01*
X159241691Y-111752368D01*
X159241751Y-111752314D01*
X159351385Y-111650600D01*
X159480014Y-111527345D01*
X159625696Y-111383537D01*
X159633992Y-111380164D01*
X159642189Y-111383591D01*
G37*
%TD.AperFunction*%
%TD*%
%TA.AperFunction,Conductor*%
%TO.N,Vdd*%
G36*
X126781806Y-110053686D02*
G01*
X126863846Y-110142585D01*
X126910217Y-110192833D01*
X126910454Y-110193097D01*
X127014630Y-110313083D01*
X127014837Y-110313329D01*
X127102923Y-110420609D01*
X127103048Y-110420764D01*
X127183189Y-110521819D01*
X127263394Y-110622954D01*
X127351655Y-110730449D01*
X127351669Y-110730465D01*
X127351683Y-110730482D01*
X127400905Y-110787173D01*
X127456029Y-110850661D01*
X127584571Y-110989952D01*
X127737266Y-111146407D01*
X127740592Y-111154721D01*
X127737166Y-111162852D01*
X126684679Y-112215339D01*
X126519952Y-112054571D01*
X126380661Y-111926029D01*
X126260449Y-111821655D01*
X126152954Y-111733394D01*
X126051819Y-111653189D01*
X125950683Y-111572984D01*
X125843189Y-111484722D01*
X125722976Y-111380349D01*
X125583686Y-111251806D01*
X125424206Y-111096160D01*
X125420679Y-111087929D01*
X125421278Y-111084088D01*
X125424229Y-111075233D01*
X125719480Y-110189480D01*
X126621040Y-109888960D01*
X126781806Y-110053686D01*
G37*
%TD.AperFunction*%
%TD*%
%TA.AperFunction,Conductor*%
%TO.N,Net-(A1-Pad6)*%
G36*
X105701012Y-99533420D02*
G01*
X105703256Y-99536513D01*
X106097384Y-100324768D01*
X106098019Y-100333700D01*
X106097384Y-100335232D01*
X105703258Y-101123485D01*
X105696493Y-101129353D01*
X105692718Y-101129953D01*
X105629829Y-101129546D01*
X105483723Y-101128600D01*
X105483549Y-101128597D01*
X105391470Y-101126633D01*
X105305638Y-101124802D01*
X105305531Y-101124799D01*
X105249277Y-101122691D01*
X105156186Y-101119202D01*
X105156014Y-101119194D01*
X105025831Y-101112402D01*
X105025726Y-101112396D01*
X104905000Y-101105000D01*
X104784216Y-101097600D01*
X104653879Y-101090799D01*
X104504490Y-101085202D01*
X104504479Y-101085202D01*
X104504433Y-101085200D01*
X104326324Y-101081400D01*
X104262362Y-101080986D01*
X104121624Y-101080075D01*
X104113373Y-101076594D01*
X104110000Y-101068375D01*
X104110000Y-99591625D01*
X104113427Y-99583352D01*
X104121624Y-99579925D01*
X104262362Y-99579014D01*
X104326324Y-99578600D01*
X104504433Y-99574800D01*
X104504479Y-99574798D01*
X104504490Y-99574798D01*
X104653879Y-99569200D01*
X104784164Y-99562403D01*
X104784201Y-99562401D01*
X104784216Y-99562400D01*
X104905000Y-99555000D01*
X105025726Y-99547604D01*
X105025831Y-99547598D01*
X105156014Y-99540805D01*
X105156186Y-99540797D01*
X105249295Y-99537308D01*
X105305531Y-99535201D01*
X105305638Y-99535198D01*
X105391470Y-99533367D01*
X105483549Y-99531403D01*
X105483723Y-99531400D01*
X105629829Y-99530454D01*
X105692717Y-99530047D01*
X105701012Y-99533420D01*
G37*
%TD.AperFunction*%
%TD*%
%TA.AperFunction,Conductor*%
%TO.N,Net-(R2-Pad1)*%
G36*
X167696870Y-85083427D02*
G01*
X167700293Y-85091399D01*
X167707000Y-85352329D01*
X167726000Y-85575772D01*
X167754000Y-85762550D01*
X167788000Y-85924886D01*
X167788019Y-85924963D01*
X167788021Y-85924972D01*
X167825000Y-86075000D01*
X167861948Y-86224902D01*
X167862040Y-86225304D01*
X167895930Y-86387120D01*
X167896049Y-86387783D01*
X167923945Y-86573861D01*
X167924032Y-86574605D01*
X167942971Y-86797328D01*
X167943009Y-86798018D01*
X167949809Y-87062562D01*
X167946596Y-87070921D01*
X167943347Y-87073326D01*
X166955232Y-87567384D01*
X166946300Y-87568019D01*
X166944768Y-87567384D01*
X165956654Y-87073327D01*
X165950787Y-87066563D01*
X165950191Y-87062562D01*
X165956991Y-86798018D01*
X165957029Y-86797328D01*
X165975968Y-86574605D01*
X165976055Y-86573861D01*
X166003950Y-86387783D01*
X166004069Y-86387120D01*
X166037960Y-86225304D01*
X166038052Y-86224902D01*
X166075000Y-86075000D01*
X166111979Y-85924972D01*
X166111981Y-85924963D01*
X166112000Y-85924886D01*
X166145999Y-85762550D01*
X166174000Y-85575772D01*
X166193000Y-85352329D01*
X166199707Y-85091399D01*
X166203345Y-85083217D01*
X166211403Y-85080000D01*
X167688597Y-85080000D01*
X167696870Y-85083427D01*
G37*
%TD.AperFunction*%
%TD*%
%TA.AperFunction,Conductor*%
%TO.N,unconnected-(U1-Pad11)*%
G36*
X140446924Y-100749604D02*
G01*
X140450346Y-100757520D01*
X140457135Y-100980248D01*
X140477635Y-101170881D01*
X140510142Y-101328624D01*
X140553299Y-101464025D01*
X140605746Y-101587634D01*
X140666099Y-101709945D01*
X140666126Y-101710000D01*
X140733011Y-101841534D01*
X140733140Y-101841795D01*
X140805133Y-101992946D01*
X140805365Y-101993466D01*
X140881152Y-102174815D01*
X140881392Y-102175438D01*
X140957337Y-102390977D01*
X140956854Y-102399919D01*
X140954485Y-102403227D01*
X140166239Y-103174566D01*
X140157929Y-103177903D01*
X140153591Y-103177019D01*
X139480361Y-102899061D01*
X139014948Y-102706905D01*
X139008609Y-102700580D01*
X139007713Y-102696161D01*
X139006142Y-102437589D01*
X139001752Y-102218289D01*
X138995283Y-102034275D01*
X138987428Y-101873785D01*
X138978880Y-101725057D01*
X138970331Y-101576328D01*
X138970326Y-101576229D01*
X138962481Y-101415935D01*
X138962474Y-101415774D01*
X138956010Y-101231920D01*
X138956005Y-101231743D01*
X138951617Y-101012524D01*
X138950071Y-100757947D01*
X138953448Y-100749654D01*
X138961771Y-100746177D01*
X140438651Y-100746177D01*
X140446924Y-100749604D01*
G37*
%TD.AperFunction*%
%TD*%
%TA.AperFunction,Conductor*%
%TO.N,GND*%
G36*
X172344721Y-86560409D02*
G01*
X172431584Y-86663417D01*
X172432755Y-86664805D01*
X172432755Y-86664806D01*
X172489040Y-86731553D01*
X172489504Y-86732140D01*
X172601354Y-86883438D01*
X172601739Y-86883991D01*
X172692184Y-87022358D01*
X172692404Y-87022707D01*
X172772288Y-87154852D01*
X172845185Y-87275439D01*
X172852271Y-87287161D01*
X172852323Y-87287241D01*
X172852334Y-87287258D01*
X172942925Y-87425849D01*
X172943018Y-87425991D01*
X173055291Y-87577862D01*
X173199854Y-87749295D01*
X173199961Y-87749408D01*
X173199972Y-87749420D01*
X173223366Y-87774048D01*
X173379618Y-87938544D01*
X173382831Y-87946902D01*
X173379408Y-87954874D01*
X172334874Y-88999408D01*
X172326601Y-89002835D01*
X172318544Y-88999618D01*
X172231362Y-88916805D01*
X172129420Y-88819972D01*
X172129408Y-88819961D01*
X172129295Y-88819854D01*
X171957862Y-88675291D01*
X171957712Y-88675180D01*
X171957703Y-88675173D01*
X171806131Y-88563121D01*
X171806120Y-88563113D01*
X171805991Y-88563018D01*
X171805849Y-88562925D01*
X171667258Y-88472334D01*
X171667241Y-88472323D01*
X171667161Y-88472271D01*
X171667090Y-88472228D01*
X171667074Y-88472218D01*
X171534852Y-88392288D01*
X171402707Y-88312404D01*
X171402358Y-88312184D01*
X171263991Y-88221739D01*
X171263438Y-88221354D01*
X171112140Y-88109504D01*
X171111553Y-88109040D01*
X170940682Y-87964951D01*
X170940166Y-87964490D01*
X170748289Y-87782230D01*
X170744651Y-87774048D01*
X170745247Y-87770047D01*
X170809362Y-87577703D01*
X171096447Y-86716447D01*
X172157106Y-86362894D01*
X172344721Y-86560409D01*
G37*
%TD.AperFunction*%
%TD*%
%TA.AperFunction,Conductor*%
%TO.N,Vdd*%
G36*
X162855232Y-97392616D02*
G01*
X163643486Y-97786743D01*
X163649353Y-97793507D01*
X163649953Y-97797283D01*
X163648600Y-98006276D01*
X163648597Y-98006450D01*
X163644803Y-98184306D01*
X163644798Y-98184494D01*
X163639202Y-98333813D01*
X163639194Y-98333985D01*
X163632402Y-98464168D01*
X163632396Y-98464273D01*
X163625000Y-98585000D01*
X163617600Y-98705783D01*
X163610799Y-98836120D01*
X163605200Y-98985566D01*
X163605199Y-98985627D01*
X163601400Y-99163675D01*
X163600075Y-99368376D01*
X163596594Y-99376627D01*
X163588375Y-99380000D01*
X162111625Y-99380000D01*
X162103352Y-99376573D01*
X162099925Y-99368376D01*
X162098600Y-99163675D01*
X162094801Y-98985627D01*
X162094800Y-98985566D01*
X162089200Y-98836120D01*
X162082400Y-98705783D01*
X162075000Y-98585000D01*
X162067604Y-98464273D01*
X162067598Y-98464168D01*
X162060805Y-98333985D01*
X162060797Y-98333813D01*
X162055202Y-98184494D01*
X162055197Y-98184306D01*
X162051403Y-98006450D01*
X162051400Y-98006276D01*
X162050047Y-97797283D01*
X162053420Y-97788988D01*
X162056513Y-97786744D01*
X162844768Y-97392616D01*
X162853700Y-97391981D01*
X162855232Y-97392616D01*
G37*
%TD.AperFunction*%
%TD*%
%TA.AperFunction,Conductor*%
%TO.N,Vdd*%
G36*
X154671224Y-93416618D02*
G01*
X155507292Y-93695308D01*
X155514057Y-93701176D01*
X155514692Y-93702708D01*
X155710911Y-94291362D01*
X155793382Y-94538775D01*
X155792747Y-94547707D01*
X155790501Y-94550802D01*
X155641805Y-94697585D01*
X155641681Y-94697706D01*
X155513164Y-94820854D01*
X155513027Y-94820983D01*
X155403527Y-94922573D01*
X155403400Y-94922689D01*
X155306497Y-95009982D01*
X155215858Y-95090156D01*
X155125218Y-95170331D01*
X155028248Y-95257685D01*
X154918614Y-95359399D01*
X154789985Y-95482654D01*
X154789971Y-95482667D01*
X154708978Y-95562620D01*
X154644303Y-95626463D01*
X154636009Y-95629837D01*
X154627812Y-95626410D01*
X153583591Y-94582189D01*
X153580164Y-94573916D01*
X153583537Y-94565697D01*
X153727345Y-94420014D01*
X153727354Y-94420005D01*
X153850600Y-94291385D01*
X153850622Y-94291362D01*
X153952262Y-94181807D01*
X153952314Y-94181751D01*
X154039668Y-94084781D01*
X154119843Y-93994141D01*
X154200017Y-93903502D01*
X154287310Y-93806599D01*
X154287426Y-93806472D01*
X154389016Y-93696972D01*
X154389145Y-93696835D01*
X154512340Y-93568269D01*
X154512462Y-93568145D01*
X154659198Y-93419499D01*
X154667448Y-93416018D01*
X154671224Y-93416618D01*
G37*
%TD.AperFunction*%
%TD*%
%TA.AperFunction,Conductor*%
%TO.N,Vdd*%
G36*
X126766715Y-108803427D02*
G01*
X126770141Y-108811557D01*
X126772800Y-109030159D01*
X126780400Y-109219545D01*
X126791600Y-109378352D01*
X126805200Y-109516772D01*
X126805207Y-109516830D01*
X126820000Y-109645000D01*
X126834790Y-109773137D01*
X126834811Y-109773335D01*
X126848384Y-109911490D01*
X126848411Y-109911811D01*
X126859587Y-110070263D01*
X126859607Y-110070617D01*
X126862349Y-110138972D01*
X126862350Y-110138974D01*
X126867200Y-110259840D01*
X126870000Y-110490000D01*
X126020000Y-110915000D01*
X125170050Y-110490025D01*
X125170009Y-110489241D01*
X125172798Y-110260023D01*
X125172806Y-110259696D01*
X125175275Y-110198172D01*
X125180395Y-110070589D01*
X125180413Y-110070263D01*
X125191587Y-109911811D01*
X125191614Y-109911490D01*
X125205189Y-109773335D01*
X125205210Y-109773137D01*
X125220000Y-109645000D01*
X125234793Y-109516830D01*
X125234800Y-109516772D01*
X125248399Y-109378352D01*
X125259600Y-109219545D01*
X125267200Y-109030159D01*
X125269859Y-108811557D01*
X125273386Y-108803327D01*
X125281558Y-108800000D01*
X126758442Y-108800000D01*
X126766715Y-108803427D01*
G37*
%TD.AperFunction*%
%TD*%
%TA.AperFunction,Conductor*%
%TO.N,V Motor*%
G36*
X105141224Y-104846618D02*
G01*
X105977292Y-105125308D01*
X105984057Y-105131176D01*
X105984692Y-105132708D01*
X106180911Y-105721362D01*
X106263382Y-105968775D01*
X106262747Y-105977707D01*
X106260501Y-105980802D01*
X106111805Y-106127585D01*
X106111681Y-106127706D01*
X105983164Y-106250854D01*
X105983027Y-106250983D01*
X105873527Y-106352573D01*
X105873400Y-106352689D01*
X105776497Y-106439982D01*
X105685858Y-106520156D01*
X105595218Y-106600331D01*
X105498248Y-106687685D01*
X105388614Y-106789399D01*
X105259985Y-106912654D01*
X105259971Y-106912667D01*
X105178978Y-106992620D01*
X105114303Y-107056463D01*
X105106009Y-107059837D01*
X105097812Y-107056410D01*
X104053591Y-106012189D01*
X104050164Y-106003916D01*
X104053537Y-105995697D01*
X104197345Y-105850014D01*
X104197354Y-105850005D01*
X104320600Y-105721385D01*
X104320622Y-105721362D01*
X104422262Y-105611807D01*
X104422314Y-105611751D01*
X104509668Y-105514781D01*
X104589843Y-105424141D01*
X104670017Y-105333502D01*
X104757310Y-105236599D01*
X104757426Y-105236472D01*
X104859016Y-105126972D01*
X104859145Y-105126835D01*
X104982340Y-104998269D01*
X104982462Y-104998145D01*
X105129198Y-104849499D01*
X105137448Y-104846018D01*
X105141224Y-104846618D01*
G37*
%TD.AperFunction*%
%TD*%
%TA.AperFunction,Conductor*%
%TO.N,GND*%
G36*
X172344721Y-96720409D02*
G01*
X172431584Y-96823417D01*
X172432755Y-96824805D01*
X172432755Y-96824806D01*
X172489040Y-96891553D01*
X172489504Y-96892140D01*
X172601354Y-97043438D01*
X172601739Y-97043991D01*
X172692184Y-97182358D01*
X172692404Y-97182707D01*
X172772288Y-97314852D01*
X172845185Y-97435439D01*
X172852271Y-97447161D01*
X172852323Y-97447241D01*
X172852334Y-97447258D01*
X172942925Y-97585849D01*
X172943018Y-97585991D01*
X173055291Y-97737862D01*
X173199854Y-97909295D01*
X173199961Y-97909408D01*
X173199972Y-97909420D01*
X173223366Y-97934048D01*
X173379618Y-98098544D01*
X173382831Y-98106902D01*
X173379408Y-98114874D01*
X172334874Y-99159408D01*
X172326601Y-99162835D01*
X172318544Y-99159618D01*
X172231362Y-99076805D01*
X172129420Y-98979972D01*
X172129408Y-98979961D01*
X172129295Y-98979854D01*
X171957862Y-98835291D01*
X171957712Y-98835180D01*
X171957703Y-98835173D01*
X171806131Y-98723121D01*
X171806120Y-98723113D01*
X171805991Y-98723018D01*
X171805849Y-98722925D01*
X171667258Y-98632334D01*
X171667241Y-98632323D01*
X171667161Y-98632271D01*
X171667090Y-98632228D01*
X171667074Y-98632218D01*
X171534852Y-98552288D01*
X171402707Y-98472404D01*
X171402358Y-98472184D01*
X171263991Y-98381739D01*
X171263438Y-98381354D01*
X171112140Y-98269504D01*
X171111553Y-98269040D01*
X170940682Y-98124951D01*
X170940166Y-98124490D01*
X170748289Y-97942230D01*
X170744651Y-97934048D01*
X170745247Y-97930047D01*
X170809362Y-97737703D01*
X171096447Y-96876447D01*
X172157106Y-96522894D01*
X172344721Y-96720409D01*
G37*
%TD.AperFunction*%
%TD*%
%TA.AperFunction,Conductor*%
%TO.N,Vdd*%
G36*
X150150730Y-112181939D02*
G01*
X150153170Y-112185402D01*
X150195435Y-112277147D01*
X150641746Y-113245980D01*
X150642095Y-113254928D01*
X150640700Y-113257590D01*
X150007145Y-114161537D01*
X149999591Y-114166345D01*
X149995535Y-114166345D01*
X149749568Y-114123025D01*
X149748902Y-114122887D01*
X149542223Y-114073965D01*
X149541584Y-114073795D01*
X149493194Y-114059409D01*
X149369396Y-114022606D01*
X149368958Y-114022466D01*
X149219469Y-113971084D01*
X149219336Y-113971037D01*
X149081122Y-113921664D01*
X149081110Y-113921660D01*
X149081029Y-113921631D01*
X148942318Y-113876365D01*
X148942153Y-113876322D01*
X148942145Y-113876320D01*
X148791866Y-113837476D01*
X148791858Y-113837474D01*
X148791652Y-113837421D01*
X148791445Y-113837385D01*
X148791432Y-113837382D01*
X148700251Y-113821437D01*
X148617385Y-113806945D01*
X148407873Y-113787086D01*
X148162845Y-113780304D01*
X148154670Y-113776649D01*
X148151469Y-113768608D01*
X148151469Y-112291567D01*
X148154896Y-112283294D01*
X148163047Y-112279868D01*
X148207399Y-112279405D01*
X148423480Y-112277148D01*
X148423502Y-112277147D01*
X148423547Y-112277147D01*
X148458758Y-112275935D01*
X148647370Y-112269440D01*
X148647399Y-112269439D01*
X148647475Y-112269436D01*
X148647553Y-112269431D01*
X148647559Y-112269431D01*
X148682482Y-112267318D01*
X148835290Y-112258071D01*
X148999031Y-112244271D01*
X149302381Y-112214242D01*
X149302465Y-112214235D01*
X149383571Y-112207399D01*
X149466039Y-112200449D01*
X149466315Y-112200429D01*
X149584802Y-112193259D01*
X149653870Y-112189079D01*
X149654146Y-112189067D01*
X149877824Y-112181364D01*
X149878037Y-112181360D01*
X150142422Y-112178599D01*
X150150730Y-112181939D01*
G37*
%TD.AperFunction*%
%TD*%
%TA.AperFunction,Conductor*%
%TO.N,Done Moving*%
G36*
X158481339Y-104847214D02*
G01*
X159386986Y-105220968D01*
X159393327Y-105227292D01*
X159394221Y-105231546D01*
X159412072Y-106110853D01*
X159408813Y-106119194D01*
X159405754Y-106121479D01*
X159248042Y-106203153D01*
X159247964Y-106203194D01*
X159111326Y-106272528D01*
X158996197Y-106331351D01*
X158996142Y-106331380D01*
X158996143Y-106331380D01*
X158896760Y-106384727D01*
X158896751Y-106384732D01*
X158896645Y-106384789D01*
X158806691Y-106437995D01*
X158720357Y-106496117D01*
X158631665Y-106564307D01*
X158534638Y-106647714D01*
X158423299Y-106751488D01*
X158423253Y-106751533D01*
X158423249Y-106751537D01*
X158299941Y-106872655D01*
X158291637Y-106876008D01*
X158283469Y-106872581D01*
X157239489Y-105828601D01*
X157236062Y-105820328D01*
X157239695Y-105811853D01*
X157386291Y-105672317D01*
X157386766Y-105671890D01*
X157520973Y-105557935D01*
X157521535Y-105557487D01*
X157540263Y-105543469D01*
X157640135Y-105468713D01*
X157640623Y-105468368D01*
X157748999Y-105396250D01*
X157749292Y-105396063D01*
X157956096Y-105268332D01*
X157956122Y-105268315D01*
X157956205Y-105268264D01*
X158064944Y-105195905D01*
X158184078Y-105106731D01*
X158318802Y-104992337D01*
X158468811Y-104849553D01*
X158477166Y-104846333D01*
X158481339Y-104847214D01*
G37*
%TD.AperFunction*%
%TD*%
%TA.AperFunction,Conductor*%
%TO.N,GND*%
G36*
X171455231Y-90232616D02*
G01*
X171484315Y-90247158D01*
X171484316Y-90247158D01*
X172450000Y-90730000D01*
X172443000Y-91002329D01*
X172424000Y-91225772D01*
X172396000Y-91412550D01*
X172362000Y-91574886D01*
X172325000Y-91725000D01*
X172288000Y-91875113D01*
X172253999Y-92037449D01*
X172226000Y-92224227D01*
X172207000Y-92447670D01*
X172204340Y-92551138D01*
X172204284Y-92553306D01*
X172204284Y-92553307D01*
X172200293Y-92708601D01*
X172196655Y-92716783D01*
X172188597Y-92720000D01*
X170711403Y-92720000D01*
X170703130Y-92716573D01*
X170699707Y-92708601D01*
X170695688Y-92552241D01*
X170693000Y-92447670D01*
X170674000Y-92224227D01*
X170646000Y-92037449D01*
X170612000Y-91875113D01*
X170575000Y-91725000D01*
X170538050Y-91575088D01*
X170537961Y-91574701D01*
X170504064Y-91412861D01*
X170503948Y-91412212D01*
X170476055Y-91226137D01*
X170475968Y-91225394D01*
X170457167Y-91004297D01*
X170457029Y-91002668D01*
X170456991Y-91001981D01*
X170450191Y-90737438D01*
X170453404Y-90729079D01*
X170456653Y-90726674D01*
X171444768Y-90232616D01*
X171453699Y-90231981D01*
X171455231Y-90232616D01*
G37*
%TD.AperFunction*%
%TD*%
%TA.AperFunction,Conductor*%
%TO.N,GND*%
G36*
X172158979Y-90025882D02*
G01*
X172162230Y-90028289D01*
X172344490Y-90220166D01*
X172344951Y-90220682D01*
X172489040Y-90391553D01*
X172489504Y-90392140D01*
X172601354Y-90543438D01*
X172601739Y-90543991D01*
X172692184Y-90682358D01*
X172692398Y-90682697D01*
X172772288Y-90814852D01*
X172852271Y-90947161D01*
X172943018Y-91085991D01*
X173055291Y-91237862D01*
X173199854Y-91409295D01*
X173199961Y-91409408D01*
X173199972Y-91409420D01*
X173296805Y-91511362D01*
X173379618Y-91598544D01*
X173382831Y-91606902D01*
X173379408Y-91614874D01*
X172334874Y-92659408D01*
X172326601Y-92662835D01*
X172318544Y-92659618D01*
X172129295Y-92479854D01*
X171957862Y-92335291D01*
X171805991Y-92223018D01*
X171667161Y-92132271D01*
X171534852Y-92052288D01*
X171402542Y-91972304D01*
X171263713Y-91881557D01*
X171111842Y-91769284D01*
X170940409Y-91624721D01*
X170742894Y-91437106D01*
X171094597Y-90381997D01*
X171100465Y-90375232D01*
X171101997Y-90374597D01*
X171278038Y-90315917D01*
X171278040Y-90315916D01*
X171484315Y-90247158D01*
X171486523Y-90246422D01*
X172150047Y-90025247D01*
X172158979Y-90025882D01*
G37*
%TD.AperFunction*%
%TD*%
%TA.AperFunction,Conductor*%
%TO.N,unconnected-(U1-Pad8)*%
G36*
X147632364Y-98023081D02*
G01*
X147776670Y-98191555D01*
X147777891Y-98193272D01*
X147874070Y-98358318D01*
X147874999Y-98360331D01*
X147929634Y-98516358D01*
X147930106Y-98518154D01*
X147957183Y-98668696D01*
X147957321Y-98669723D01*
X147970624Y-98818188D01*
X147983972Y-98967170D01*
X148011307Y-99119143D01*
X148066617Y-99277094D01*
X148163887Y-99444015D01*
X148164229Y-99444414D01*
X148311683Y-99616563D01*
X148314462Y-99625075D01*
X148312892Y-99630087D01*
X147615534Y-100820553D01*
X147608396Y-100825959D01*
X147600208Y-100825104D01*
X146616914Y-100333457D01*
X146611047Y-100326693D01*
X146610469Y-100322283D01*
X146620653Y-100154810D01*
X146620810Y-100153483D01*
X146647729Y-100001249D01*
X146647947Y-100000266D01*
X146683862Y-99865852D01*
X146683992Y-99865399D01*
X146721562Y-99744536D01*
X146721589Y-99744450D01*
X146753360Y-99633055D01*
X146771801Y-99527181D01*
X146769473Y-99422591D01*
X146738937Y-99315046D01*
X146672753Y-99200309D01*
X146602457Y-99119143D01*
X146570612Y-99082374D01*
X146567786Y-99073876D01*
X146571183Y-99066441D01*
X147615205Y-98022419D01*
X147623478Y-98018992D01*
X147632364Y-98023081D01*
G37*
%TD.AperFunction*%
%TD*%
%TA.AperFunction,Conductor*%
%TO.N,GND*%
G36*
X172163194Y-79868519D02*
G01*
X172339844Y-80031731D01*
X172502206Y-80156364D01*
X172570693Y-80198960D01*
X172649061Y-80247703D01*
X172649070Y-80247708D01*
X172649287Y-80247843D01*
X172786181Y-80317219D01*
X172786308Y-80317275D01*
X172786316Y-80317279D01*
X172917981Y-80375545D01*
X173049504Y-80433748D01*
X173050058Y-80434011D01*
X173186218Y-80503016D01*
X173187108Y-80503517D01*
X173333265Y-80594421D01*
X173334206Y-80595073D01*
X173495696Y-80719035D01*
X173496500Y-80719712D01*
X173669917Y-80879937D01*
X173673668Y-80888069D01*
X173670250Y-80896804D01*
X172626156Y-81940898D01*
X172617883Y-81944325D01*
X172609936Y-81941212D01*
X172609597Y-81940898D01*
X172482436Y-81823219D01*
X172361480Y-81732226D01*
X172250178Y-81670114D01*
X172143381Y-81631121D01*
X172035938Y-81609485D01*
X171922699Y-81599443D01*
X171798514Y-81595234D01*
X171658234Y-81591095D01*
X171496707Y-81581263D01*
X171308785Y-81559978D01*
X170955011Y-80499393D01*
X171612508Y-80151254D01*
X171613994Y-80150467D01*
X171613995Y-80150467D01*
X171838559Y-80031562D01*
X172149780Y-79866773D01*
X172158694Y-79865930D01*
X172163194Y-79868519D01*
G37*
%TD.AperFunction*%
%TD*%
%TA.AperFunction,Conductor*%
%TO.N,Net-(R2-Pad1)*%
G36*
X166250378Y-79865389D02*
G01*
X166915685Y-80087158D01*
X167121960Y-80155916D01*
X167121962Y-80155917D01*
X167293166Y-80212985D01*
X167299931Y-80218853D01*
X167300786Y-80227041D01*
X166950000Y-81570000D01*
X166716247Y-81591560D01*
X166533162Y-81650080D01*
X166388079Y-81736320D01*
X166268330Y-81841040D01*
X166161249Y-81955000D01*
X166158124Y-81958326D01*
X166158124Y-81958325D01*
X166156775Y-81959760D01*
X166156774Y-81959761D01*
X166054559Y-82068543D01*
X166053735Y-82069338D01*
X165935222Y-82172976D01*
X165933498Y-82174226D01*
X165790484Y-82259237D01*
X165788068Y-82260325D01*
X165607466Y-82318051D01*
X165604979Y-82318557D01*
X165511589Y-82327171D01*
X165385272Y-82338822D01*
X165376720Y-82336169D01*
X165372547Y-82328246D01*
X165372498Y-82327171D01*
X165372498Y-80850726D01*
X165375925Y-80842453D01*
X165383184Y-80839070D01*
X165439453Y-80834174D01*
X165542681Y-80825192D01*
X165542684Y-80825191D01*
X165543367Y-80825132D01*
X165544017Y-80824914D01*
X165544019Y-80824914D01*
X165669004Y-80783077D01*
X165669007Y-80783076D01*
X165669848Y-80782794D01*
X165761600Y-80716384D01*
X165828284Y-80629300D01*
X165828540Y-80628779D01*
X165879447Y-80525165D01*
X165879451Y-80525155D01*
X165879558Y-80524938D01*
X165925084Y-80406697D01*
X165974380Y-80278341D01*
X165974689Y-80277612D01*
X166037233Y-80142804D01*
X166037894Y-80141576D01*
X166123296Y-80003434D01*
X166124343Y-80001997D01*
X166237775Y-79868900D01*
X166245750Y-79864826D01*
X166250378Y-79865389D01*
G37*
%TD.AperFunction*%
%TD*%
%TA.AperFunction,Conductor*%
%TO.N,Net-(A1-Pad4)*%
G36*
X105701012Y-94453420D02*
G01*
X105703256Y-94456513D01*
X106097384Y-95244768D01*
X106098019Y-95253700D01*
X106097384Y-95255232D01*
X105703258Y-96043485D01*
X105696493Y-96049353D01*
X105692718Y-96049953D01*
X105629829Y-96049546D01*
X105483723Y-96048600D01*
X105483549Y-96048597D01*
X105391470Y-96046633D01*
X105305638Y-96044802D01*
X105305531Y-96044799D01*
X105249277Y-96042691D01*
X105156186Y-96039202D01*
X105156014Y-96039194D01*
X105025831Y-96032402D01*
X105025726Y-96032396D01*
X104905000Y-96025000D01*
X104784216Y-96017600D01*
X104653879Y-96010799D01*
X104504490Y-96005202D01*
X104504479Y-96005202D01*
X104504433Y-96005200D01*
X104326324Y-96001400D01*
X104262362Y-96000986D01*
X104121624Y-96000075D01*
X104113373Y-95996594D01*
X104110000Y-95988375D01*
X104110000Y-94511625D01*
X104113427Y-94503352D01*
X104121624Y-94499925D01*
X104262362Y-94499014D01*
X104326324Y-94498600D01*
X104504433Y-94494800D01*
X104504479Y-94494798D01*
X104504490Y-94494798D01*
X104653879Y-94489200D01*
X104784164Y-94482403D01*
X104784201Y-94482401D01*
X104784216Y-94482400D01*
X104905000Y-94475000D01*
X105025726Y-94467604D01*
X105025831Y-94467598D01*
X105156014Y-94460805D01*
X105156186Y-94460797D01*
X105249295Y-94457308D01*
X105305531Y-94455201D01*
X105305638Y-94455198D01*
X105391470Y-94453367D01*
X105483549Y-94451403D01*
X105483723Y-94451400D01*
X105629829Y-94450454D01*
X105692717Y-94450047D01*
X105701012Y-94453420D01*
G37*
%TD.AperFunction*%
%TD*%
%TA.AperFunction,Conductor*%
%TO.N,GND*%
G36*
X121834712Y-108775234D02*
G01*
X121837503Y-108778779D01*
X121909304Y-108919077D01*
X121909324Y-108919113D01*
X121909336Y-108919137D01*
X121961301Y-109014881D01*
X121978772Y-109047070D01*
X122045782Y-109160614D01*
X122045856Y-109160727D01*
X122113654Y-109264340D01*
X122113664Y-109264354D01*
X122113754Y-109264492D01*
X122186106Y-109363486D01*
X122266259Y-109462380D01*
X122357631Y-109565955D01*
X122463642Y-109678995D01*
X122463707Y-109679062D01*
X122463714Y-109679069D01*
X122524823Y-109741763D01*
X122524824Y-109741763D01*
X122526273Y-109743250D01*
X122587711Y-109806282D01*
X122733258Y-109952598D01*
X121680849Y-111005007D01*
X121672576Y-111008434D01*
X121664326Y-111005029D01*
X121526282Y-110867711D01*
X121398995Y-110743642D01*
X121285955Y-110637631D01*
X121182380Y-110546259D01*
X121083486Y-110466106D01*
X120984492Y-110393754D01*
X120984354Y-110393664D01*
X120984340Y-110393654D01*
X120880727Y-110325856D01*
X120880614Y-110325782D01*
X120767070Y-110258772D01*
X120734881Y-110241301D01*
X120639137Y-110189336D01*
X120639113Y-110189324D01*
X120639077Y-110189304D01*
X120498779Y-110117503D01*
X120492975Y-110110684D01*
X120492442Y-110106203D01*
X120503853Y-109955720D01*
X120585687Y-108876469D01*
X120589730Y-108868479D01*
X120596469Y-108865687D01*
X121826203Y-108772442D01*
X121834712Y-108775234D01*
G37*
%TD.AperFunction*%
%TD*%
%TA.AperFunction,Conductor*%
%TO.N,GND*%
G36*
X105770243Y-86830455D02*
G01*
X105916276Y-86831400D01*
X105916450Y-86831403D01*
X106008529Y-86833367D01*
X106094361Y-86835198D01*
X106094468Y-86835201D01*
X106150722Y-86837309D01*
X106243813Y-86840798D01*
X106243985Y-86840806D01*
X106374168Y-86847598D01*
X106374273Y-86847604D01*
X106495000Y-86855000D01*
X106615783Y-86862400D01*
X106746120Y-86869199D01*
X106858400Y-86873407D01*
X106895509Y-86874798D01*
X106895520Y-86874798D01*
X106895566Y-86874800D01*
X107073675Y-86878600D01*
X107137704Y-86879014D01*
X107278376Y-86879925D01*
X107286627Y-86883406D01*
X107290000Y-86891625D01*
X107290000Y-88368375D01*
X107286573Y-88376648D01*
X107278376Y-88380075D01*
X107137704Y-88380986D01*
X107073675Y-88381400D01*
X106895566Y-88385200D01*
X106895520Y-88385202D01*
X106895509Y-88385202D01*
X106746120Y-88390800D01*
X106615835Y-88397597D01*
X106615798Y-88397599D01*
X106615783Y-88397600D01*
X106495000Y-88405000D01*
X106374228Y-88412399D01*
X106374203Y-88412401D01*
X106330770Y-88414666D01*
X106243987Y-88419193D01*
X106243816Y-88419201D01*
X106160510Y-88422324D01*
X106094468Y-88424799D01*
X106094361Y-88424802D01*
X106011003Y-88426580D01*
X105916450Y-88428597D01*
X105916276Y-88428600D01*
X105770243Y-88429545D01*
X105707283Y-88429953D01*
X105698988Y-88426580D01*
X105696742Y-88423485D01*
X105302616Y-87635232D01*
X105301981Y-87626300D01*
X105302616Y-87624768D01*
X105696743Y-86836514D01*
X105703507Y-86830647D01*
X105707282Y-86830047D01*
X105770243Y-86830455D01*
G37*
%TD.AperFunction*%
%TD*%
%TA.AperFunction,Conductor*%
%TO.N,Net-(R4-Pad1)*%
G36*
X155043741Y-96932251D02*
G01*
X156088050Y-97976560D01*
X156091477Y-97984833D01*
X156088299Y-97992850D01*
X156077275Y-98004568D01*
X155935462Y-98155309D01*
X155935322Y-98155483D01*
X155935314Y-98155492D01*
X155821023Y-98297372D01*
X155815073Y-98304759D01*
X155814929Y-98304978D01*
X155814926Y-98304982D01*
X155726654Y-98439184D01*
X155726485Y-98439441D01*
X155661276Y-98565863D01*
X155611024Y-98690533D01*
X155610970Y-98690693D01*
X155567305Y-98819958D01*
X155567283Y-98820025D01*
X155521738Y-98960521D01*
X155521641Y-98960806D01*
X155465878Y-99118827D01*
X155465676Y-99119359D01*
X155391257Y-99301533D01*
X155390987Y-99302143D01*
X155292538Y-99508625D01*
X155285884Y-99514618D01*
X155281870Y-99515290D01*
X154179067Y-99505225D01*
X154170827Y-99501722D01*
X154168373Y-99498020D01*
X153694902Y-98360075D01*
X153694888Y-98351120D01*
X153697378Y-98347360D01*
X153879316Y-98163098D01*
X154031350Y-98004568D01*
X154057374Y-97976560D01*
X154156816Y-97869533D01*
X154156858Y-97869488D01*
X154264682Y-97750040D01*
X154462646Y-97526778D01*
X154570429Y-97407377D01*
X154570543Y-97407253D01*
X154632319Y-97340764D01*
X154695978Y-97272250D01*
X154848012Y-97113720D01*
X155027142Y-96932303D01*
X155035394Y-96928824D01*
X155043741Y-96932251D01*
G37*
%TD.AperFunction*%
%TD*%
%TA.AperFunction,Conductor*%
%TO.N,End Switch*%
G36*
X100117311Y-110139805D02*
G01*
X100125441Y-110143555D01*
X100127572Y-110146815D01*
X100201033Y-110315075D01*
X100201132Y-110315310D01*
X100261478Y-110462208D01*
X100261521Y-110462312D01*
X100311522Y-110587433D01*
X100356624Y-110696446D01*
X100402372Y-110795265D01*
X100402460Y-110795426D01*
X100402467Y-110795439D01*
X100434200Y-110853195D01*
X100454313Y-110889804D01*
X100485788Y-110937338D01*
X100517856Y-110985769D01*
X100517863Y-110985779D01*
X100517993Y-110985975D01*
X100598957Y-111089693D01*
X100702751Y-111206870D01*
X100826919Y-111335151D01*
X100830209Y-111343478D01*
X100826784Y-111351560D01*
X99782747Y-112395597D01*
X99774474Y-112399024D01*
X99765995Y-112395386D01*
X99618563Y-112240336D01*
X99618111Y-112239832D01*
X99498240Y-112098177D01*
X99497784Y-112097603D01*
X99457238Y-112043102D01*
X99404558Y-111972289D01*
X99404198Y-111971777D01*
X99328629Y-111857211D01*
X99328443Y-111856916D01*
X99261611Y-111747560D01*
X99194681Y-111638045D01*
X99118851Y-111523083D01*
X99025221Y-111397226D01*
X98972692Y-111335150D01*
X98905005Y-111255161D01*
X98904995Y-111255150D01*
X98904891Y-111255027D01*
X98754284Y-111096639D01*
X98751067Y-111088282D01*
X98752019Y-111083945D01*
X99171868Y-110110056D01*
X99178290Y-110103816D01*
X99183072Y-110102997D01*
X100117311Y-110139805D01*
G37*
%TD.AperFunction*%
%TD*%
%TA.AperFunction,Conductor*%
%TO.N,Net-(R4-Pad1)*%
G36*
X154381103Y-109932424D02*
G01*
X154383508Y-109935673D01*
X154877566Y-110923788D01*
X154878201Y-110932720D01*
X154877566Y-110934252D01*
X154383510Y-111922365D01*
X154376745Y-111928233D01*
X154372745Y-111928829D01*
X154108198Y-111922029D01*
X154107513Y-111921991D01*
X154026611Y-111915112D01*
X153884787Y-111903052D01*
X153884043Y-111902965D01*
X153697965Y-111875070D01*
X153697302Y-111874951D01*
X153535486Y-111841060D01*
X153535084Y-111840968D01*
X153385182Y-111804020D01*
X153235173Y-111767046D01*
X153235068Y-111767020D01*
X153234995Y-111767005D01*
X153234979Y-111767001D01*
X153072896Y-111733053D01*
X153072885Y-111733051D01*
X153072732Y-111733019D01*
X152991347Y-111720819D01*
X152886137Y-111705047D01*
X152886124Y-111705046D01*
X152885954Y-111705020D01*
X152662511Y-111686020D01*
X152401581Y-111679313D01*
X152393399Y-111675675D01*
X152390182Y-111667617D01*
X152390182Y-110190423D01*
X152393609Y-110182150D01*
X152401581Y-110178727D01*
X152403953Y-110178666D01*
X152662511Y-110172020D01*
X152885954Y-110153020D01*
X152886124Y-110152994D01*
X152886137Y-110152993D01*
X153006845Y-110134897D01*
X153072732Y-110125020D01*
X153235068Y-110091020D01*
X153235145Y-110091001D01*
X153235154Y-110090999D01*
X153385182Y-110054020D01*
X153535093Y-110017070D01*
X153535467Y-110016984D01*
X153697320Y-109983084D01*
X153697958Y-109982970D01*
X153798165Y-109967948D01*
X153884044Y-109955075D01*
X153884787Y-109954988D01*
X154026611Y-109942928D01*
X154107513Y-109936049D01*
X154108198Y-109936011D01*
X154372744Y-109929211D01*
X154381103Y-109932424D01*
G37*
%TD.AperFunction*%
%TD*%
%TA.AperFunction,Conductor*%
%TO.N,Direction*%
G36*
X118470243Y-86830455D02*
G01*
X118616276Y-86831400D01*
X118616450Y-86831403D01*
X118708529Y-86833367D01*
X118794361Y-86835198D01*
X118794468Y-86835201D01*
X118850722Y-86837309D01*
X118943813Y-86840798D01*
X118943985Y-86840806D01*
X119074168Y-86847598D01*
X119074273Y-86847604D01*
X119195000Y-86855000D01*
X119315783Y-86862400D01*
X119446120Y-86869199D01*
X119558400Y-86873407D01*
X119595509Y-86874798D01*
X119595520Y-86874798D01*
X119595566Y-86874800D01*
X119773675Y-86878600D01*
X119837704Y-86879014D01*
X119978376Y-86879925D01*
X119986627Y-86883406D01*
X119990000Y-86891625D01*
X119990000Y-88368375D01*
X119986573Y-88376648D01*
X119978376Y-88380075D01*
X119837704Y-88380986D01*
X119773675Y-88381400D01*
X119595566Y-88385200D01*
X119595520Y-88385202D01*
X119595509Y-88385202D01*
X119446120Y-88390800D01*
X119315835Y-88397597D01*
X119315798Y-88397599D01*
X119315783Y-88397600D01*
X119195000Y-88405000D01*
X119074228Y-88412399D01*
X119074203Y-88412401D01*
X119030770Y-88414666D01*
X118943987Y-88419193D01*
X118943816Y-88419201D01*
X118860510Y-88422324D01*
X118794468Y-88424799D01*
X118794361Y-88424802D01*
X118711003Y-88426580D01*
X118616450Y-88428597D01*
X118616276Y-88428600D01*
X118470243Y-88429545D01*
X118407283Y-88429953D01*
X118398988Y-88426580D01*
X118396742Y-88423485D01*
X118002616Y-87635232D01*
X118001981Y-87626300D01*
X118002616Y-87624768D01*
X118396743Y-86836514D01*
X118403507Y-86830647D01*
X118407282Y-86830047D01*
X118470243Y-86830455D01*
G37*
%TD.AperFunction*%
%TD*%
%TA.AperFunction,Conductor*%
%TO.N,Net-(R7-Pad2)*%
G36*
X167939409Y-104661914D02*
G01*
X167994575Y-104669818D01*
X168142859Y-104691065D01*
X168146752Y-104692348D01*
X168301002Y-104775508D01*
X168304172Y-104778009D01*
X168414023Y-104900878D01*
X168415613Y-104903148D01*
X168496613Y-105054240D01*
X168563026Y-105220000D01*
X168569795Y-105236896D01*
X168629438Y-105385760D01*
X168711096Y-105538079D01*
X168823246Y-105663520D01*
X168981131Y-105748640D01*
X169192305Y-105778897D01*
X169200008Y-105783463D01*
X169201965Y-105787521D01*
X169482109Y-106860031D01*
X169515431Y-106987603D01*
X169514206Y-106996474D01*
X169507811Y-107001660D01*
X168571455Y-107313779D01*
X168562523Y-107313144D01*
X168558521Y-107309864D01*
X168450999Y-107171684D01*
X168449552Y-107169274D01*
X168381861Y-107017872D01*
X168381151Y-107015768D01*
X168344949Y-106861400D01*
X168344713Y-106860031D01*
X168327677Y-106707890D01*
X168327634Y-106707420D01*
X168317358Y-106563288D01*
X168317357Y-106563281D01*
X168317346Y-106563122D01*
X168301240Y-106432593D01*
X168266695Y-106321543D01*
X168201074Y-106235445D01*
X168199900Y-106234847D01*
X168092660Y-106180242D01*
X168092658Y-106180241D01*
X168091738Y-106179773D01*
X167936366Y-106161231D01*
X167928557Y-106156848D01*
X167926052Y-106149613D01*
X167926052Y-104673496D01*
X167929479Y-104665223D01*
X167937752Y-104661796D01*
X167939409Y-104661914D01*
G37*
%TD.AperFunction*%
%TD*%
%TA.AperFunction,Conductor*%
%TO.N,Gnd Motor*%
G36*
X105141346Y-102307257D02*
G01*
X105756601Y-102564736D01*
X106050380Y-102687680D01*
X106056689Y-102694035D01*
X106057563Y-102698459D01*
X106058627Y-103577828D01*
X106055210Y-103586105D01*
X106052109Y-103588332D01*
X105894980Y-103665951D01*
X105758730Y-103731950D01*
X105643971Y-103788113D01*
X105643943Y-103788128D01*
X105643924Y-103788137D01*
X105575615Y-103823494D01*
X105544788Y-103839450D01*
X105455266Y-103890970D01*
X105369491Y-103947682D01*
X105281549Y-104014596D01*
X105281451Y-104014680D01*
X105281442Y-104014687D01*
X105185577Y-104096675D01*
X105185564Y-104096687D01*
X105185525Y-104096720D01*
X105075505Y-104199065D01*
X105075454Y-104199115D01*
X105075432Y-104199136D01*
X104953846Y-104318517D01*
X104945542Y-104321868D01*
X104937376Y-104318441D01*
X103893410Y-103274475D01*
X103889983Y-103266202D01*
X103893633Y-103257712D01*
X104040033Y-103118902D01*
X104040568Y-103118425D01*
X104175099Y-103005671D01*
X104175699Y-103005200D01*
X104294987Y-102917983D01*
X104295545Y-102917601D01*
X104404807Y-102847309D01*
X104405169Y-102847086D01*
X104509614Y-102785146D01*
X104614121Y-102723170D01*
X104614256Y-102723090D01*
X104614358Y-102723024D01*
X104614370Y-102723017D01*
X104669297Y-102687680D01*
X104723972Y-102652505D01*
X104724114Y-102652401D01*
X104724123Y-102652395D01*
X104780897Y-102610885D01*
X104843838Y-102564866D01*
X104843981Y-102564746D01*
X104843994Y-102564736D01*
X104906986Y-102511940D01*
X104978927Y-102451645D01*
X105128782Y-102309561D01*
X105137143Y-102306355D01*
X105141346Y-102307257D01*
G37*
%TD.AperFunction*%
%TD*%
%TA.AperFunction,Conductor*%
%TO.N,Net-(D3-Pad2)*%
G36*
X169200961Y-100703411D02*
G01*
X169203296Y-100706593D01*
X169647384Y-101594768D01*
X169648019Y-101603700D01*
X169647384Y-101605232D01*
X169203296Y-102493407D01*
X169196531Y-102499275D01*
X169192630Y-102499873D01*
X168956115Y-102495804D01*
X168955655Y-102495787D01*
X168926190Y-102494114D01*
X168755429Y-102484414D01*
X168754930Y-102484375D01*
X168587253Y-102467622D01*
X168586802Y-102467568D01*
X168440719Y-102447218D01*
X168440443Y-102447176D01*
X168305000Y-102425000D01*
X168169516Y-102402817D01*
X168169502Y-102402815D01*
X168169411Y-102402800D01*
X168105080Y-102393838D01*
X168023087Y-102382415D01*
X168023071Y-102382413D01*
X168022970Y-102382399D01*
X168022874Y-102382389D01*
X168022854Y-102382387D01*
X167888474Y-102368962D01*
X167854823Y-102365600D01*
X167854680Y-102365592D01*
X167854669Y-102365591D01*
X167784565Y-102361609D01*
X167654117Y-102354200D01*
X167410000Y-102350000D01*
X167410000Y-100850000D01*
X167654117Y-100845800D01*
X167744805Y-100840649D01*
X167744806Y-100840649D01*
X167745069Y-100840634D01*
X167745074Y-100840634D01*
X167854669Y-100834409D01*
X167854680Y-100834408D01*
X167854823Y-100834400D01*
X167891335Y-100830752D01*
X168022854Y-100817612D01*
X168022874Y-100817610D01*
X168022970Y-100817600D01*
X168023071Y-100817586D01*
X168023087Y-100817584D01*
X168105084Y-100806161D01*
X168169411Y-100797200D01*
X168169502Y-100797185D01*
X168169516Y-100797183D01*
X168305000Y-100775000D01*
X168440443Y-100752824D01*
X168440719Y-100752782D01*
X168586802Y-100732431D01*
X168587253Y-100732377D01*
X168754930Y-100715625D01*
X168755429Y-100715586D01*
X168926190Y-100705886D01*
X168955655Y-100704213D01*
X168956115Y-100704196D01*
X169192630Y-100700127D01*
X169200961Y-100703411D01*
G37*
%TD.AperFunction*%
%TD*%
%TA.AperFunction,Conductor*%
%TO.N,Net-(R6-Pad2)*%
G36*
X167227707Y-108657253D02*
G01*
X167230802Y-108659499D01*
X167377585Y-108808194D01*
X167377706Y-108808318D01*
X167500854Y-108936835D01*
X167500983Y-108936972D01*
X167602573Y-109046472D01*
X167602689Y-109046599D01*
X167689982Y-109143502D01*
X167770156Y-109234141D01*
X167850331Y-109324781D01*
X167937685Y-109421751D01*
X167937737Y-109421807D01*
X168039377Y-109531362D01*
X168039399Y-109531385D01*
X168162645Y-109660005D01*
X168162654Y-109660014D01*
X168306463Y-109805697D01*
X168309836Y-109813992D01*
X168306409Y-109822189D01*
X167262189Y-110866409D01*
X167253916Y-110869836D01*
X167245697Y-110866463D01*
X167100014Y-110722654D01*
X166971385Y-110599399D01*
X166861818Y-110497747D01*
X166861807Y-110497737D01*
X166861751Y-110497685D01*
X166764781Y-110410331D01*
X166674141Y-110330156D01*
X166583502Y-110249982D01*
X166486599Y-110162689D01*
X166486472Y-110162573D01*
X166376972Y-110060983D01*
X166376835Y-110060854D01*
X166248318Y-109937706D01*
X166248194Y-109937585D01*
X166099499Y-109790802D01*
X166096018Y-109782551D01*
X166096618Y-109778775D01*
X166179090Y-109531362D01*
X166375308Y-108942708D01*
X166381176Y-108935943D01*
X166382708Y-108935308D01*
X166764049Y-108808194D01*
X167218776Y-108656618D01*
X167227707Y-108657253D01*
G37*
%TD.AperFunction*%
%TD*%
%TA.AperFunction,Conductor*%
%TO.N,GND*%
G36*
X171455232Y-80072616D02*
G01*
X172450000Y-80570000D01*
X172443000Y-80842329D01*
X172424000Y-81065772D01*
X172396000Y-81252550D01*
X172362000Y-81414886D01*
X172325000Y-81565000D01*
X172288000Y-81715113D01*
X172253999Y-81877449D01*
X172226000Y-82064227D01*
X172207000Y-82287670D01*
X172206996Y-82287835D01*
X172200293Y-82548601D01*
X172196655Y-82556783D01*
X172188597Y-82560000D01*
X170711403Y-82560000D01*
X170703130Y-82556573D01*
X170699707Y-82548601D01*
X170693004Y-82287835D01*
X170693000Y-82287670D01*
X170674000Y-82064227D01*
X170646000Y-81877449D01*
X170612000Y-81715113D01*
X170575000Y-81565000D01*
X170538050Y-81415088D01*
X170537961Y-81414701D01*
X170504064Y-81252861D01*
X170503948Y-81252212D01*
X170476055Y-81066137D01*
X170475968Y-81065394D01*
X170457167Y-80844297D01*
X170457029Y-80842668D01*
X170456991Y-80841981D01*
X170450191Y-80577438D01*
X170453404Y-80569079D01*
X170456653Y-80566674D01*
X171444768Y-80072616D01*
X171453700Y-80071981D01*
X171455232Y-80072616D01*
G37*
%TD.AperFunction*%
%TD*%
%TA.AperFunction,Conductor*%
%TO.N,Net-(R2-Pad1)*%
G36*
X166955227Y-80072614D02*
G01*
X167943346Y-80566673D01*
X167949213Y-80573437D01*
X167949809Y-80577438D01*
X167943009Y-80841981D01*
X167942971Y-80842668D01*
X167942833Y-80844297D01*
X167924032Y-81065394D01*
X167923945Y-81066138D01*
X167896050Y-81252216D01*
X167895931Y-81252879D01*
X167862040Y-81414695D01*
X167861948Y-81415097D01*
X167825000Y-81565000D01*
X167788000Y-81715113D01*
X167753999Y-81877449D01*
X167726000Y-82064227D01*
X167707000Y-82287670D01*
X167706996Y-82287835D01*
X167700293Y-82548601D01*
X167696655Y-82556783D01*
X167688597Y-82560000D01*
X166211403Y-82560000D01*
X166203130Y-82556573D01*
X166199707Y-82548601D01*
X166193004Y-82287835D01*
X166193000Y-82287670D01*
X166174000Y-82064227D01*
X166146000Y-81877449D01*
X166112000Y-81715113D01*
X166075000Y-81565000D01*
X166038000Y-81414886D01*
X166003999Y-81252550D01*
X165976000Y-81065772D01*
X165957000Y-80842329D01*
X165950000Y-80570000D01*
X166915684Y-80087158D01*
X166915685Y-80087158D01*
X166944768Y-80072616D01*
X166953701Y-80071981D01*
X166955227Y-80072614D01*
G37*
%TD.AperFunction*%
%TD*%
%TA.AperFunction,Conductor*%
%TO.N,Net-(D3-Pad2)*%
G36*
X166730243Y-100800455D02*
G01*
X166876276Y-100801400D01*
X166876450Y-100801403D01*
X166968529Y-100803367D01*
X167054361Y-100805198D01*
X167054468Y-100805201D01*
X167110722Y-100807309D01*
X167203813Y-100810798D01*
X167203985Y-100810806D01*
X167334168Y-100817598D01*
X167334273Y-100817604D01*
X167452160Y-100824826D01*
X167455000Y-100825000D01*
X167575783Y-100832400D01*
X167706120Y-100839199D01*
X167744806Y-100840649D01*
X167744807Y-100840649D01*
X167855566Y-100844800D01*
X168033675Y-100848600D01*
X168250000Y-100850000D01*
X168250000Y-102350000D01*
X168033675Y-102351400D01*
X167855566Y-102355200D01*
X167706120Y-102360800D01*
X167575835Y-102367597D01*
X167575798Y-102367599D01*
X167575783Y-102367600D01*
X167455000Y-102375000D01*
X167334228Y-102382399D01*
X167334203Y-102382401D01*
X167290770Y-102384666D01*
X167203987Y-102389193D01*
X167203816Y-102389201D01*
X167120510Y-102392324D01*
X167054468Y-102394799D01*
X167054361Y-102394802D01*
X166971003Y-102396580D01*
X166876450Y-102398597D01*
X166876276Y-102398600D01*
X166730243Y-102399545D01*
X166667283Y-102399953D01*
X166658988Y-102396580D01*
X166656742Y-102393485D01*
X166262616Y-101605232D01*
X166261981Y-101596300D01*
X166262616Y-101594768D01*
X166656743Y-100806514D01*
X166663507Y-100800647D01*
X166667282Y-100800047D01*
X166730243Y-100800455D01*
G37*
%TD.AperFunction*%
%TD*%
%TA.AperFunction,Conductor*%
%TO.N,Vdd*%
G36*
X118971950Y-99769233D02*
G01*
X119120554Y-99885884D01*
X119269848Y-99944792D01*
X119394048Y-99954987D01*
X119414326Y-99956652D01*
X119414960Y-99956704D01*
X119504580Y-99944476D01*
X119556977Y-99937327D01*
X119556979Y-99937327D01*
X119557284Y-99937285D01*
X119698215Y-99902200D01*
X119838531Y-99867269D01*
X119839754Y-99867033D01*
X119920468Y-99856020D01*
X119980205Y-99847870D01*
X119982744Y-99847802D01*
X120049039Y-99853244D01*
X120124861Y-99859468D01*
X120128192Y-99860244D01*
X120274290Y-99917891D01*
X120277216Y-99919569D01*
X120420368Y-100031941D01*
X120424760Y-100039744D01*
X120422347Y-100048367D01*
X120421417Y-100049416D01*
X119377705Y-101093128D01*
X119369432Y-101096555D01*
X119361868Y-101093782D01*
X119275828Y-101020880D01*
X119272645Y-101018183D01*
X119184020Y-100972025D01*
X119183204Y-100971865D01*
X119183201Y-100971864D01*
X119101742Y-100955900D01*
X119100941Y-100955743D01*
X119100129Y-100955814D01*
X119100128Y-100955814D01*
X119074159Y-100958085D01*
X119020138Y-100962809D01*
X118989980Y-100971616D01*
X118938601Y-100986621D01*
X118938594Y-100986623D01*
X118938342Y-100986697D01*
X118938093Y-100986796D01*
X118852282Y-101020880D01*
X118759007Y-101058698D01*
X118758348Y-101058942D01*
X118654900Y-101093810D01*
X118653662Y-101094153D01*
X118536625Y-101119739D01*
X118534992Y-101119977D01*
X118407823Y-101129419D01*
X118399319Y-101126614D01*
X118396492Y-101122983D01*
X118004896Y-100339793D01*
X118004261Y-100330861D01*
X118009447Y-100324466D01*
X118480778Y-100048367D01*
X118958812Y-99768341D01*
X118967683Y-99767116D01*
X118971950Y-99769233D01*
G37*
%TD.AperFunction*%
%TD*%
%TA.AperFunction,Conductor*%
%TO.N,Vdd*%
G36*
X118971950Y-94689233D02*
G01*
X119120554Y-94805884D01*
X119269848Y-94864792D01*
X119394048Y-94874987D01*
X119414326Y-94876652D01*
X119414960Y-94876704D01*
X119504580Y-94864476D01*
X119556977Y-94857327D01*
X119556979Y-94857327D01*
X119557284Y-94857285D01*
X119698215Y-94822200D01*
X119838531Y-94787269D01*
X119839754Y-94787033D01*
X119920468Y-94776020D01*
X119980205Y-94767870D01*
X119982744Y-94767802D01*
X120049039Y-94773244D01*
X120124861Y-94779468D01*
X120128192Y-94780244D01*
X120274290Y-94837891D01*
X120277216Y-94839569D01*
X120420368Y-94951941D01*
X120424760Y-94959744D01*
X120422347Y-94968367D01*
X120421417Y-94969416D01*
X119377705Y-96013128D01*
X119369432Y-96016555D01*
X119361868Y-96013782D01*
X119275828Y-95940880D01*
X119272645Y-95938183D01*
X119184020Y-95892025D01*
X119183204Y-95891865D01*
X119183201Y-95891864D01*
X119101742Y-95875900D01*
X119100941Y-95875743D01*
X119100129Y-95875814D01*
X119100128Y-95875814D01*
X119074159Y-95878085D01*
X119020138Y-95882809D01*
X118989980Y-95891616D01*
X118938601Y-95906621D01*
X118938594Y-95906623D01*
X118938342Y-95906697D01*
X118938093Y-95906796D01*
X118852282Y-95940880D01*
X118759007Y-95978698D01*
X118758348Y-95978942D01*
X118654900Y-96013810D01*
X118653662Y-96014153D01*
X118536625Y-96039739D01*
X118534992Y-96039977D01*
X118407823Y-96049419D01*
X118399319Y-96046614D01*
X118396492Y-96042983D01*
X118004896Y-95259793D01*
X118004261Y-95250861D01*
X118009447Y-95244466D01*
X118480778Y-94968367D01*
X118958812Y-94688341D01*
X118967683Y-94687116D01*
X118971950Y-94689233D01*
G37*
%TD.AperFunction*%
%TD*%
%TA.AperFunction,Conductor*%
%TO.N,GND*%
G36*
X172378336Y-100966570D02*
G01*
X172381518Y-100968905D01*
X172545880Y-101139022D01*
X172546188Y-101139354D01*
X172673325Y-101281802D01*
X172679731Y-101288980D01*
X172680057Y-101289361D01*
X172786774Y-101419769D01*
X172787055Y-101420127D01*
X172875977Y-101537835D01*
X172876142Y-101538059D01*
X173036401Y-101761070D01*
X173036426Y-101761103D01*
X173125476Y-101878981D01*
X173125488Y-101878996D01*
X173125525Y-101879045D01*
X173232544Y-102009822D01*
X173232617Y-102009904D01*
X173232630Y-102009919D01*
X173366336Y-102159728D01*
X173366403Y-102159803D01*
X173440405Y-102236396D01*
X173528060Y-102327120D01*
X173531344Y-102335451D01*
X173527919Y-102343523D01*
X172483523Y-103387919D01*
X172475250Y-103391346D01*
X172467120Y-103388060D01*
X172466974Y-103387919D01*
X172299803Y-103226403D01*
X172299728Y-103226336D01*
X172149919Y-103092630D01*
X172149904Y-103092617D01*
X172149822Y-103092544D01*
X172019045Y-102985525D01*
X172018996Y-102985488D01*
X172018981Y-102985476D01*
X171901103Y-102896426D01*
X171901070Y-102896401D01*
X171678059Y-102736142D01*
X171677835Y-102735977D01*
X171560127Y-102647055D01*
X171559769Y-102646774D01*
X171429361Y-102540057D01*
X171428980Y-102539731D01*
X171279361Y-102406195D01*
X171279022Y-102405880D01*
X171206065Y-102335391D01*
X171108905Y-102241517D01*
X171105337Y-102233305D01*
X171105935Y-102229404D01*
X171419952Y-101287352D01*
X171425820Y-101280587D01*
X171427352Y-101279952D01*
X172369404Y-100965935D01*
X172378336Y-100966570D01*
G37*
%TD.AperFunction*%
%TD*%
%TA.AperFunction,Conductor*%
%TO.N,unconnected-(U1-Pad4)*%
G36*
X151687554Y-86846025D02*
G01*
X151820156Y-86853675D01*
X151821702Y-86853870D01*
X152012278Y-86890800D01*
X152013890Y-86891234D01*
X152170356Y-86945603D01*
X152171690Y-86946162D01*
X152305788Y-87012300D01*
X152306506Y-87012688D01*
X152553558Y-87157520D01*
X152688672Y-87224160D01*
X152689006Y-87224276D01*
X152689013Y-87224279D01*
X152781599Y-87256450D01*
X152846609Y-87279040D01*
X152847023Y-87279120D01*
X152847026Y-87279121D01*
X152933976Y-87295970D01*
X153038780Y-87316280D01*
X153039166Y-87316302D01*
X153039172Y-87316303D01*
X153268101Y-87329511D01*
X153276163Y-87333409D01*
X153278747Y-87338234D01*
X153610181Y-88607105D01*
X153627382Y-88672959D01*
X153626157Y-88681830D01*
X153619762Y-88687016D01*
X152576617Y-89034731D01*
X152567685Y-89034096D01*
X152564364Y-89031615D01*
X152454639Y-88914066D01*
X152454172Y-88913533D01*
X152361035Y-88800787D01*
X152360776Y-88800462D01*
X152282250Y-88698208D01*
X152211735Y-88607244D01*
X152142634Y-88528414D01*
X152068227Y-88462394D01*
X151981792Y-88409864D01*
X151876608Y-88371503D01*
X151745956Y-88347988D01*
X151745576Y-88347969D01*
X151745573Y-88347969D01*
X151662895Y-88343914D01*
X151594242Y-88340546D01*
X151586146Y-88336718D01*
X151583115Y-88328860D01*
X151583115Y-86852395D01*
X151586542Y-86844122D01*
X151595489Y-86840714D01*
X151687554Y-86846025D01*
G37*
%TD.AperFunction*%
%TD*%
%TA.AperFunction,Conductor*%
%TO.N,unconnected-(U1-Pad10)*%
G36*
X142446980Y-98784701D02*
G01*
X142450400Y-98792560D01*
X142457190Y-98984135D01*
X142478331Y-99148848D01*
X142512777Y-99284177D01*
X142559881Y-99398891D01*
X142560070Y-99399220D01*
X142560073Y-99399226D01*
X142618858Y-99501510D01*
X142618998Y-99501753D01*
X142689483Y-99601530D01*
X142689558Y-99601627D01*
X142770649Y-99706938D01*
X142770688Y-99706989D01*
X142861838Y-99826723D01*
X142862097Y-99827077D01*
X142962495Y-99969751D01*
X142962847Y-99970281D01*
X143068216Y-100138782D01*
X143069697Y-100147613D01*
X143068101Y-100151369D01*
X142467107Y-101074392D01*
X142459721Y-101079455D01*
X142453492Y-101079070D01*
X141217020Y-100653273D01*
X141210314Y-100647340D01*
X141209135Y-100642543D01*
X141202107Y-100394675D01*
X141202107Y-100394670D01*
X141202101Y-100394469D01*
X141182390Y-100184456D01*
X141153341Y-100009058D01*
X141118067Y-99856738D01*
X141079682Y-99715955D01*
X141041353Y-99575382D01*
X141041243Y-99574944D01*
X141006108Y-99423222D01*
X141005963Y-99422494D01*
X140977040Y-99247860D01*
X140976934Y-99247041D01*
X140957297Y-99037814D01*
X140957251Y-99037053D01*
X140950341Y-98793306D01*
X140953532Y-98784939D01*
X140962036Y-98781274D01*
X142438707Y-98781274D01*
X142446980Y-98784701D01*
G37*
%TD.AperFunction*%
%TD*%
%TA.AperFunction,Conductor*%
%TO.N,unconnected-(U1-Pad9)*%
G36*
X144447891Y-98900900D02*
G01*
X144451235Y-98907781D01*
X144472721Y-99087107D01*
X144536685Y-99211969D01*
X144635591Y-99286591D01*
X144763140Y-99325505D01*
X144763650Y-99325565D01*
X144763653Y-99325566D01*
X144842775Y-99334928D01*
X144913031Y-99343242D01*
X144913167Y-99343251D01*
X144913166Y-99343251D01*
X145078732Y-99354319D01*
X145079209Y-99354361D01*
X145253942Y-99373239D01*
X145255320Y-99373472D01*
X145341693Y-99393435D01*
X145432659Y-99414459D01*
X145434774Y-99415166D01*
X145608709Y-99492484D01*
X145611131Y-99493934D01*
X145770567Y-99617813D01*
X145774996Y-99625594D01*
X145774487Y-99630751D01*
X145427015Y-100673166D01*
X145421147Y-100679931D01*
X145412959Y-100680786D01*
X144077607Y-100331987D01*
X144070469Y-100326581D01*
X144068966Y-100322205D01*
X144038765Y-100094443D01*
X144038764Y-100094441D01*
X144038640Y-100093503D01*
X144038226Y-100092655D01*
X144038225Y-100092652D01*
X143997942Y-100010150D01*
X143953520Y-99919169D01*
X143828080Y-99791457D01*
X143675760Y-99694826D01*
X143675466Y-99694682D01*
X143344825Y-99532932D01*
X143343698Y-99532302D01*
X143193054Y-99436735D01*
X143190975Y-99435054D01*
X143067812Y-99309659D01*
X143065645Y-99306593D01*
X142982194Y-99135677D01*
X142981110Y-99132082D01*
X142951755Y-98910711D01*
X142954064Y-98902059D01*
X142961815Y-98897575D01*
X142963353Y-98897473D01*
X144439618Y-98897473D01*
X144447891Y-98900900D01*
G37*
%TD.AperFunction*%
%TD*%
%TA.AperFunction,Conductor*%
%TO.N,Net-(A1-Pad3)*%
G36*
X99439876Y-91861215D02*
G01*
X99569976Y-91862798D01*
X99570303Y-91862806D01*
X99631827Y-91865275D01*
X99759410Y-91870395D01*
X99759702Y-91870411D01*
X99918220Y-91881591D01*
X99918479Y-91881612D01*
X100056714Y-91895194D01*
X100056821Y-91895206D01*
X100185000Y-91910000D01*
X100313227Y-91924800D01*
X100313286Y-91924806D01*
X100313297Y-91924807D01*
X100406323Y-91933946D01*
X100451647Y-91938399D01*
X100451723Y-91938404D01*
X100451742Y-91938406D01*
X100587619Y-91947989D01*
X100610454Y-91949600D01*
X100610498Y-91949602D01*
X100610502Y-91949602D01*
X100687553Y-91952694D01*
X100799840Y-91957200D01*
X100799931Y-91957201D01*
X100799964Y-91957202D01*
X100921541Y-91958681D01*
X101018443Y-91959859D01*
X101026673Y-91963386D01*
X101030000Y-91971558D01*
X101030000Y-93448442D01*
X101026573Y-93456715D01*
X101018443Y-93460141D01*
X100921541Y-93461319D01*
X100799964Y-93462798D01*
X100799931Y-93462799D01*
X100799840Y-93462800D01*
X100687553Y-93467306D01*
X100610502Y-93470398D01*
X100610498Y-93470398D01*
X100610454Y-93470400D01*
X100587522Y-93472017D01*
X100451742Y-93481593D01*
X100451723Y-93481595D01*
X100451647Y-93481600D01*
X100406534Y-93486032D01*
X100313297Y-93495193D01*
X100313286Y-93495194D01*
X100313227Y-93495200D01*
X100185000Y-93510000D01*
X100056821Y-93524794D01*
X100056714Y-93524806D01*
X99918479Y-93538387D01*
X99918220Y-93538408D01*
X99759702Y-93549589D01*
X99759410Y-93549605D01*
X99631827Y-93554725D01*
X99570303Y-93557194D01*
X99569976Y-93557202D01*
X99439876Y-93558785D01*
X99347329Y-93559911D01*
X99339015Y-93556585D01*
X99336722Y-93553444D01*
X98917616Y-92715232D01*
X98916981Y-92706300D01*
X98917616Y-92704768D01*
X99336722Y-91866556D01*
X99343487Y-91860688D01*
X99347328Y-91860089D01*
X99439876Y-91861215D01*
G37*
%TD.AperFunction*%
%TD*%
%TA.AperFunction,Conductor*%
%TO.N,Step*%
G36*
X118470243Y-89370455D02*
G01*
X118616276Y-89371400D01*
X118616450Y-89371403D01*
X118708529Y-89373367D01*
X118794361Y-89375198D01*
X118794468Y-89375201D01*
X118850722Y-89377309D01*
X118943813Y-89380798D01*
X118943985Y-89380806D01*
X119074168Y-89387598D01*
X119074273Y-89387604D01*
X119195000Y-89395000D01*
X119315783Y-89402400D01*
X119446120Y-89409199D01*
X119558400Y-89413407D01*
X119595509Y-89414798D01*
X119595520Y-89414798D01*
X119595566Y-89414800D01*
X119773675Y-89418600D01*
X119837704Y-89419014D01*
X119978376Y-89419925D01*
X119986627Y-89423406D01*
X119990000Y-89431625D01*
X119990000Y-90908375D01*
X119986573Y-90916648D01*
X119978376Y-90920075D01*
X119837704Y-90920986D01*
X119773675Y-90921400D01*
X119595566Y-90925200D01*
X119595520Y-90925202D01*
X119595509Y-90925202D01*
X119446120Y-90930800D01*
X119315835Y-90937597D01*
X119315798Y-90937599D01*
X119315783Y-90937600D01*
X119195000Y-90945000D01*
X119074228Y-90952399D01*
X119074203Y-90952401D01*
X119030770Y-90954666D01*
X118943987Y-90959193D01*
X118943816Y-90959201D01*
X118860510Y-90962324D01*
X118794468Y-90964799D01*
X118794361Y-90964802D01*
X118711003Y-90966580D01*
X118616450Y-90968597D01*
X118616276Y-90968600D01*
X118470243Y-90969545D01*
X118407283Y-90969953D01*
X118398988Y-90966580D01*
X118396742Y-90963485D01*
X118002616Y-90175232D01*
X118001981Y-90166300D01*
X118002616Y-90164768D01*
X118396743Y-89376514D01*
X118403507Y-89370647D01*
X118407282Y-89370047D01*
X118470243Y-89370455D01*
G37*
%TD.AperFunction*%
%TD*%
%TA.AperFunction,Conductor*%
%TO.N,GND*%
G36*
X119827135Y-116391608D02*
G01*
X120071549Y-116435354D01*
X120072187Y-116435487D01*
X120277642Y-116484746D01*
X120278275Y-116484918D01*
X120449352Y-116536314D01*
X120449815Y-116536464D01*
X120598386Y-116587982D01*
X120661696Y-116610768D01*
X120735838Y-116637452D01*
X120735922Y-116637482D01*
X120873777Y-116682755D01*
X121023531Y-116721674D01*
X121023736Y-116721710D01*
X121023745Y-116721712D01*
X121196541Y-116752069D01*
X121196550Y-116752070D01*
X121196765Y-116752108D01*
X121196994Y-116752130D01*
X121197003Y-116752131D01*
X121294646Y-116761423D01*
X121405061Y-116771930D01*
X121405263Y-116771936D01*
X121405269Y-116771936D01*
X121599536Y-116777332D01*
X121648625Y-116778695D01*
X121656800Y-116782350D01*
X121660000Y-116790390D01*
X121660000Y-118267432D01*
X121656573Y-118275705D01*
X121648422Y-118279131D01*
X121497867Y-118280687D01*
X121389162Y-118281810D01*
X121389141Y-118281810D01*
X121389088Y-118281811D01*
X121389042Y-118281813D01*
X121389022Y-118281813D01*
X121269438Y-118285889D01*
X121166118Y-118289411D01*
X121005654Y-118299021D01*
X120979169Y-118300607D01*
X120979165Y-118300607D01*
X120979103Y-118300611D01*
X120816059Y-118314211D01*
X120665000Y-118329011D01*
X120514071Y-118343798D01*
X120513902Y-118343814D01*
X120351011Y-118357400D01*
X120350739Y-118357419D01*
X120164026Y-118368602D01*
X120163725Y-118368616D01*
X120077194Y-118371566D01*
X119941003Y-118376208D01*
X119940809Y-118376212D01*
X119677582Y-118378933D01*
X119669275Y-118375592D01*
X119666832Y-118372123D01*
X119660066Y-118357410D01*
X119178459Y-117310231D01*
X119178116Y-117301282D01*
X119179526Y-117298601D01*
X119537772Y-116790390D01*
X119815514Y-116396383D01*
X119823081Y-116391596D01*
X119827135Y-116391608D01*
G37*
%TD.AperFunction*%
%TD*%
%TA.AperFunction,Conductor*%
%TO.N,Net-(A1-Pad5)*%
G36*
X105701012Y-96993420D02*
G01*
X105703256Y-96996513D01*
X106097384Y-97784768D01*
X106098019Y-97793700D01*
X106097384Y-97795232D01*
X105703258Y-98583485D01*
X105696493Y-98589353D01*
X105692718Y-98589953D01*
X105629829Y-98589546D01*
X105483723Y-98588600D01*
X105483549Y-98588597D01*
X105391470Y-98586633D01*
X105305638Y-98584802D01*
X105305531Y-98584799D01*
X105249277Y-98582691D01*
X105156186Y-98579202D01*
X105156014Y-98579194D01*
X105025831Y-98572402D01*
X105025726Y-98572396D01*
X104905000Y-98565000D01*
X104784216Y-98557600D01*
X104653879Y-98550799D01*
X104504490Y-98545202D01*
X104504479Y-98545202D01*
X104504433Y-98545200D01*
X104326324Y-98541400D01*
X104262362Y-98540986D01*
X104121624Y-98540075D01*
X104113373Y-98536594D01*
X104110000Y-98528375D01*
X104110000Y-97051625D01*
X104113427Y-97043352D01*
X104121624Y-97039925D01*
X104262362Y-97039014D01*
X104326324Y-97038600D01*
X104504433Y-97034800D01*
X104504479Y-97034798D01*
X104504490Y-97034798D01*
X104541599Y-97033407D01*
X104653879Y-97029199D01*
X104784216Y-97022400D01*
X104905000Y-97015000D01*
X105025726Y-97007604D01*
X105025831Y-97007598D01*
X105156014Y-97000805D01*
X105156186Y-97000797D01*
X105249295Y-96997308D01*
X105305531Y-96995201D01*
X105305638Y-96995198D01*
X105391470Y-96993367D01*
X105483549Y-96991403D01*
X105483723Y-96991400D01*
X105629829Y-96990454D01*
X105692717Y-96990047D01*
X105701012Y-96993420D01*
G37*
%TD.AperFunction*%
%TD*%
%TA.AperFunction,Conductor*%
%TO.N,Net-(A1-Pad6)*%
G36*
X99439876Y-99481215D02*
G01*
X99569976Y-99482798D01*
X99570303Y-99482806D01*
X99631827Y-99485275D01*
X99759410Y-99490395D01*
X99759702Y-99490411D01*
X99918220Y-99501591D01*
X99918479Y-99501612D01*
X100056714Y-99515194D01*
X100056821Y-99515206D01*
X100185000Y-99530000D01*
X100313227Y-99544800D01*
X100313286Y-99544806D01*
X100313297Y-99544807D01*
X100406323Y-99553946D01*
X100451647Y-99558399D01*
X100451723Y-99558404D01*
X100451742Y-99558406D01*
X100587619Y-99567989D01*
X100610454Y-99569600D01*
X100610498Y-99569602D01*
X100610502Y-99569602D01*
X100687553Y-99572694D01*
X100799840Y-99577200D01*
X100799931Y-99577201D01*
X100799964Y-99577202D01*
X100921541Y-99578681D01*
X101018443Y-99579859D01*
X101026673Y-99583386D01*
X101030000Y-99591558D01*
X101030000Y-101068442D01*
X101026573Y-101076715D01*
X101018443Y-101080141D01*
X100921541Y-101081319D01*
X100799964Y-101082798D01*
X100799931Y-101082799D01*
X100799840Y-101082800D01*
X100687553Y-101087306D01*
X100610502Y-101090398D01*
X100610498Y-101090398D01*
X100610454Y-101090400D01*
X100587522Y-101092017D01*
X100451742Y-101101593D01*
X100451723Y-101101595D01*
X100451647Y-101101600D01*
X100406534Y-101106032D01*
X100313297Y-101115193D01*
X100313286Y-101115194D01*
X100313227Y-101115200D01*
X100185000Y-101130000D01*
X100056821Y-101144794D01*
X100056714Y-101144806D01*
X99918479Y-101158387D01*
X99918220Y-101158408D01*
X99759702Y-101169589D01*
X99759410Y-101169605D01*
X99631827Y-101174725D01*
X99570303Y-101177194D01*
X99569976Y-101177202D01*
X99439876Y-101178785D01*
X99347329Y-101179911D01*
X99339015Y-101176585D01*
X99336722Y-101173444D01*
X98917616Y-100335232D01*
X98916981Y-100326300D01*
X98917616Y-100324768D01*
X99336722Y-99486556D01*
X99343487Y-99480688D01*
X99347328Y-99480089D01*
X99439876Y-99481215D01*
G37*
%TD.AperFunction*%
%TD*%
%TA.AperFunction,Conductor*%
%TO.N,Wifi Status*%
G36*
X157846751Y-107943188D02*
G01*
X157848616Y-107943470D01*
X157974685Y-107973071D01*
X158005472Y-107980300D01*
X158007372Y-107980922D01*
X158115288Y-108026808D01*
X158134856Y-108035128D01*
X158136366Y-108035903D01*
X158244724Y-108101922D01*
X158245522Y-108102455D01*
X158344760Y-108174760D01*
X158444390Y-108247351D01*
X158553875Y-108314057D01*
X158554263Y-108314222D01*
X158682605Y-108368793D01*
X158682608Y-108368794D01*
X158683069Y-108368990D01*
X158841826Y-108406267D01*
X159031733Y-108419428D01*
X159039749Y-108423419D01*
X159042203Y-108427989D01*
X159330299Y-109472809D01*
X159332237Y-109479838D01*
X159331133Y-109488724D01*
X159325145Y-109493873D01*
X158506619Y-109807525D01*
X158497669Y-109807286D01*
X158494516Y-109805213D01*
X158405123Y-109723035D01*
X158324310Y-109649871D01*
X158324287Y-109649851D01*
X158324191Y-109649764D01*
X158315840Y-109642691D01*
X158252848Y-109589344D01*
X158252837Y-109589335D01*
X158252689Y-109589210D01*
X158186251Y-109540279D01*
X158120513Y-109501878D01*
X158088996Y-109488724D01*
X158051483Y-109473068D01*
X158051482Y-109473068D01*
X158051109Y-109472912D01*
X157973673Y-109452287D01*
X157973355Y-109452240D01*
X157973347Y-109452238D01*
X157884084Y-109438945D01*
X157884072Y-109438944D01*
X157883839Y-109438909D01*
X157883604Y-109438893D01*
X157883594Y-109438892D01*
X157820983Y-109434649D01*
X157777244Y-109431685D01*
X157777069Y-109431682D01*
X157777068Y-109431682D01*
X157738899Y-109431035D01*
X157661022Y-109429715D01*
X157652808Y-109426149D01*
X157649520Y-109418017D01*
X157649520Y-107942059D01*
X157652947Y-107933786D01*
X157662029Y-107930387D01*
X157846751Y-107943188D01*
G37*
%TD.AperFunction*%
%TD*%
%TA.AperFunction,Conductor*%
%TO.N,End Switch*%
G36*
X106411224Y-109926618D02*
G01*
X107247292Y-110205308D01*
X107254057Y-110211176D01*
X107254692Y-110212708D01*
X107450911Y-110801362D01*
X107533382Y-111048775D01*
X107532747Y-111057707D01*
X107530501Y-111060802D01*
X107381805Y-111207585D01*
X107381681Y-111207706D01*
X107253164Y-111330854D01*
X107253027Y-111330983D01*
X107143527Y-111432573D01*
X107143400Y-111432689D01*
X107046497Y-111519982D01*
X106955858Y-111600156D01*
X106865218Y-111680331D01*
X106768248Y-111767685D01*
X106658614Y-111869399D01*
X106529985Y-111992654D01*
X106529971Y-111992667D01*
X106448978Y-112072620D01*
X106384303Y-112136463D01*
X106376009Y-112139837D01*
X106367812Y-112136410D01*
X105323591Y-111092189D01*
X105320164Y-111083916D01*
X105323537Y-111075697D01*
X105467345Y-110930014D01*
X105467354Y-110930005D01*
X105590600Y-110801385D01*
X105590622Y-110801362D01*
X105692262Y-110691807D01*
X105692314Y-110691751D01*
X105779668Y-110594781D01*
X105859843Y-110504141D01*
X105940017Y-110413502D01*
X106027310Y-110316599D01*
X106027426Y-110316472D01*
X106129016Y-110206972D01*
X106129145Y-110206835D01*
X106252340Y-110078269D01*
X106252462Y-110078145D01*
X106399198Y-109929499D01*
X106407448Y-109926018D01*
X106411224Y-109926618D01*
G37*
%TD.AperFunction*%
%TD*%
%TA.AperFunction,Conductor*%
%TO.N,Net-(R4-Pad1)*%
G36*
X162855534Y-89779447D02*
G01*
X163400476Y-90709721D01*
X163411663Y-90728819D01*
X163412888Y-90737690D01*
X163410779Y-90741947D01*
X163294192Y-90890757D01*
X163235781Y-91040314D01*
X163224681Y-91185734D01*
X163245122Y-91328396D01*
X163245200Y-91328700D01*
X163317388Y-91610347D01*
X163317636Y-91611593D01*
X163337805Y-91752356D01*
X163337889Y-91754905D01*
X163327021Y-91897303D01*
X163326253Y-91900669D01*
X163269103Y-92046996D01*
X163267417Y-92049953D01*
X163217000Y-92114306D01*
X163155128Y-92193279D01*
X163147328Y-92197678D01*
X163138702Y-92195273D01*
X163137645Y-92194336D01*
X162093934Y-91150625D01*
X162090507Y-91142352D01*
X162093272Y-91134799D01*
X162168532Y-91045770D01*
X162168961Y-91045263D01*
X162214740Y-90956366D01*
X162226987Y-90890757D01*
X162230142Y-90873859D01*
X162230142Y-90873857D01*
X162230294Y-90873043D01*
X162222255Y-90792009D01*
X162197257Y-90709980D01*
X162161931Y-90623674D01*
X162123044Y-90530131D01*
X162122791Y-90529466D01*
X162087039Y-90425711D01*
X162086682Y-90424447D01*
X162060496Y-90307080D01*
X162060248Y-90305415D01*
X162050593Y-90177834D01*
X162053386Y-90169326D01*
X162057028Y-90166486D01*
X162840208Y-89774896D01*
X162849139Y-89774261D01*
X162855534Y-89779447D01*
G37*
%TD.AperFunction*%
%TD*%
%TA.AperFunction,Conductor*%
%TO.N,Vdd*%
G36*
X126621040Y-111091040D02*
G01*
X126494506Y-111260066D01*
X126445682Y-111424227D01*
X126455141Y-111584740D01*
X126503455Y-111742819D01*
X126571197Y-111899683D01*
X126638938Y-112056546D01*
X126687226Y-112214541D01*
X126687168Y-112214681D01*
X126687199Y-112214889D01*
X126687132Y-112214899D01*
X126687334Y-112216017D01*
X126696590Y-112373085D01*
X126696125Y-112377108D01*
X126648483Y-112537297D01*
X126646634Y-112540974D01*
X126529445Y-112697518D01*
X126521744Y-112702087D01*
X126513067Y-112699872D01*
X126511806Y-112698779D01*
X125468074Y-111655047D01*
X125464647Y-111646774D01*
X125467186Y-111639497D01*
X125554495Y-111529584D01*
X125555102Y-111528820D01*
X125592512Y-111422514D01*
X125584008Y-111324303D01*
X125540676Y-111229742D01*
X125473598Y-111134383D01*
X125393992Y-111033946D01*
X125393744Y-111033622D01*
X125312940Y-110924018D01*
X125312223Y-110922923D01*
X125241269Y-110799967D01*
X125240388Y-110798063D01*
X125189983Y-110657298D01*
X125189378Y-110654721D01*
X125170088Y-110490750D01*
X125170048Y-110489976D01*
X126020000Y-110065000D01*
X126621040Y-111091040D01*
G37*
%TD.AperFunction*%
%TD*%
%TA.AperFunction,Conductor*%
%TO.N,GND*%
G36*
X172378336Y-106046570D02*
G01*
X172381518Y-106048905D01*
X172545880Y-106219022D01*
X172546188Y-106219354D01*
X172673325Y-106361802D01*
X172679731Y-106368980D01*
X172680057Y-106369361D01*
X172786774Y-106499769D01*
X172787055Y-106500127D01*
X172875977Y-106617835D01*
X172876142Y-106618059D01*
X173036401Y-106841070D01*
X173036426Y-106841103D01*
X173125476Y-106958981D01*
X173125488Y-106958996D01*
X173125525Y-106959045D01*
X173232544Y-107089822D01*
X173232617Y-107089904D01*
X173232630Y-107089919D01*
X173366336Y-107239728D01*
X173366403Y-107239803D01*
X173440405Y-107316396D01*
X173528060Y-107407120D01*
X173531344Y-107415451D01*
X173527919Y-107423523D01*
X172483523Y-108467919D01*
X172475250Y-108471346D01*
X172467120Y-108468060D01*
X172466974Y-108467919D01*
X172299803Y-108306403D01*
X172299728Y-108306336D01*
X172149919Y-108172630D01*
X172149904Y-108172617D01*
X172149822Y-108172544D01*
X172019045Y-108065525D01*
X172018996Y-108065488D01*
X172018981Y-108065476D01*
X171901103Y-107976426D01*
X171901070Y-107976401D01*
X171678059Y-107816142D01*
X171677835Y-107815977D01*
X171560127Y-107727055D01*
X171559769Y-107726774D01*
X171429361Y-107620057D01*
X171428980Y-107619731D01*
X171279361Y-107486195D01*
X171279022Y-107485880D01*
X171206065Y-107415391D01*
X171108905Y-107321517D01*
X171105337Y-107313305D01*
X171105935Y-107309404D01*
X171419952Y-106367352D01*
X171425820Y-106360587D01*
X171427352Y-106359952D01*
X172369404Y-106045935D01*
X172378336Y-106046570D01*
G37*
%TD.AperFunction*%
%TD*%
%TA.AperFunction,Conductor*%
%TO.N,Vdd*%
G36*
X118971947Y-102309221D02*
G01*
X119120757Y-102425807D01*
X119270314Y-102484218D01*
X119415734Y-102495318D01*
X119423412Y-102494218D01*
X119558084Y-102474922D01*
X119558089Y-102474921D01*
X119558396Y-102474877D01*
X119609895Y-102461677D01*
X119840347Y-102402611D01*
X119841593Y-102402363D01*
X119982356Y-102382194D01*
X119984905Y-102382110D01*
X120078286Y-102389237D01*
X120127304Y-102392978D01*
X120130669Y-102393746D01*
X120276996Y-102450896D01*
X120279953Y-102452582D01*
X120320333Y-102484218D01*
X120423279Y-102564872D01*
X120427678Y-102572672D01*
X120425273Y-102581298D01*
X120424336Y-102582355D01*
X119380625Y-103626066D01*
X119372352Y-103629493D01*
X119364799Y-103626728D01*
X119283619Y-103558102D01*
X119275263Y-103551038D01*
X119220316Y-103522742D01*
X119187122Y-103505648D01*
X119187120Y-103505647D01*
X119186366Y-103505259D01*
X119138912Y-103496401D01*
X119103859Y-103489857D01*
X119103857Y-103489857D01*
X119103043Y-103489705D01*
X119062365Y-103493740D01*
X119022582Y-103497687D01*
X119022580Y-103497687D01*
X119022009Y-103497744D01*
X118939980Y-103522742D01*
X118853674Y-103558068D01*
X118760131Y-103596955D01*
X118759480Y-103597203D01*
X118701322Y-103617243D01*
X118655711Y-103632960D01*
X118654447Y-103633317D01*
X118537080Y-103659503D01*
X118535415Y-103659751D01*
X118407834Y-103669407D01*
X118399326Y-103666614D01*
X118396486Y-103662972D01*
X118004896Y-102879793D01*
X118004261Y-102870861D01*
X118009447Y-102864466D01*
X118506984Y-102573016D01*
X118958819Y-102308337D01*
X118967690Y-102307112D01*
X118971947Y-102309221D01*
G37*
%TD.AperFunction*%
%TD*%
%TA.AperFunction,Conductor*%
%TO.N,GND*%
G36*
X172196870Y-95243427D02*
G01*
X172200293Y-95251399D01*
X172207000Y-95512329D01*
X172226000Y-95735772D01*
X172254000Y-95922550D01*
X172288000Y-96084886D01*
X172288019Y-96084963D01*
X172288021Y-96084972D01*
X172325000Y-96235000D01*
X172361948Y-96384902D01*
X172362040Y-96385304D01*
X172395930Y-96547120D01*
X172396049Y-96547783D01*
X172423945Y-96733861D01*
X172424032Y-96734605D01*
X172443000Y-96957670D01*
X172450000Y-97230000D01*
X171450000Y-97730000D01*
X170456654Y-97233327D01*
X170450787Y-97226563D01*
X170450191Y-97222562D01*
X170456991Y-96958018D01*
X170457029Y-96957328D01*
X170457070Y-96956852D01*
X170475968Y-96734605D01*
X170476055Y-96733861D01*
X170503950Y-96547783D01*
X170504069Y-96547120D01*
X170537960Y-96385304D01*
X170538052Y-96384902D01*
X170575000Y-96235000D01*
X170611979Y-96084972D01*
X170611981Y-96084963D01*
X170612000Y-96084886D01*
X170645999Y-95922550D01*
X170674000Y-95735772D01*
X170693000Y-95512329D01*
X170699707Y-95251399D01*
X170703345Y-95243217D01*
X170711403Y-95240000D01*
X172188597Y-95240000D01*
X172196870Y-95243427D01*
G37*
%TD.AperFunction*%
%TD*%
%TA.AperFunction,Conductor*%
%TO.N,Vdd*%
G36*
X118971950Y-97229233D02*
G01*
X119120554Y-97345884D01*
X119269848Y-97404792D01*
X119394048Y-97414987D01*
X119414326Y-97416652D01*
X119414960Y-97416704D01*
X119504580Y-97404476D01*
X119556977Y-97397327D01*
X119556979Y-97397327D01*
X119557284Y-97397285D01*
X119698215Y-97362200D01*
X119838531Y-97327269D01*
X119839754Y-97327033D01*
X119920468Y-97316020D01*
X119980205Y-97307870D01*
X119982744Y-97307802D01*
X120049039Y-97313244D01*
X120124861Y-97319468D01*
X120128192Y-97320244D01*
X120274290Y-97377891D01*
X120277216Y-97379569D01*
X120420368Y-97491941D01*
X120424760Y-97499744D01*
X120422347Y-97508367D01*
X120421417Y-97509416D01*
X119377705Y-98553128D01*
X119369432Y-98556555D01*
X119361868Y-98553782D01*
X119275828Y-98480880D01*
X119272645Y-98478183D01*
X119184020Y-98432025D01*
X119183204Y-98431865D01*
X119183201Y-98431864D01*
X119101742Y-98415900D01*
X119100941Y-98415743D01*
X119100129Y-98415814D01*
X119100128Y-98415814D01*
X119074159Y-98418085D01*
X119020138Y-98422809D01*
X118989980Y-98431616D01*
X118938601Y-98446621D01*
X118938594Y-98446623D01*
X118938342Y-98446697D01*
X118938093Y-98446796D01*
X118852282Y-98480880D01*
X118759007Y-98518698D01*
X118758348Y-98518942D01*
X118654900Y-98553810D01*
X118653662Y-98554153D01*
X118536625Y-98579739D01*
X118534992Y-98579977D01*
X118407823Y-98589419D01*
X118399319Y-98586614D01*
X118396492Y-98582983D01*
X118004896Y-97799793D01*
X118004261Y-97790861D01*
X118009447Y-97784466D01*
X118480778Y-97508367D01*
X118958812Y-97228341D01*
X118967683Y-97227116D01*
X118971950Y-97229233D01*
G37*
%TD.AperFunction*%
%TD*%
%TA.AperFunction,Conductor*%
%TO.N,GND*%
G36*
X130576870Y-98343427D02*
G01*
X130580293Y-98351399D01*
X130587000Y-98612329D01*
X130606000Y-98835772D01*
X130634000Y-99022550D01*
X130668000Y-99184886D01*
X130668019Y-99184963D01*
X130668021Y-99184972D01*
X130705000Y-99335000D01*
X130741948Y-99484902D01*
X130742040Y-99485304D01*
X130775930Y-99647120D01*
X130776049Y-99647783D01*
X130803945Y-99833861D01*
X130804032Y-99834605D01*
X130822971Y-100057328D01*
X130823009Y-100058018D01*
X130829809Y-100322562D01*
X130826596Y-100330921D01*
X130823347Y-100333326D01*
X129835232Y-100827384D01*
X129826300Y-100828019D01*
X129824768Y-100827384D01*
X128836654Y-100333327D01*
X128830787Y-100326563D01*
X128830191Y-100322562D01*
X128836991Y-100058018D01*
X128837029Y-100057328D01*
X128855968Y-99834605D01*
X128856055Y-99833861D01*
X128883950Y-99647783D01*
X128884069Y-99647120D01*
X128917960Y-99485304D01*
X128918052Y-99484902D01*
X128955000Y-99335000D01*
X128991979Y-99184972D01*
X128991981Y-99184963D01*
X128992000Y-99184886D01*
X129025999Y-99022550D01*
X129054000Y-98835772D01*
X129073000Y-98612329D01*
X129079707Y-98351399D01*
X129083345Y-98343217D01*
X129091403Y-98340000D01*
X130568597Y-98340000D01*
X130576870Y-98343427D01*
G37*
%TD.AperFunction*%
%TD*%
%TA.AperFunction,Conductor*%
%TO.N,Vdd*%
G36*
X118971950Y-92149233D02*
G01*
X119120554Y-92265884D01*
X119269848Y-92324792D01*
X119394048Y-92334987D01*
X119414326Y-92336652D01*
X119414960Y-92336704D01*
X119504580Y-92324476D01*
X119556977Y-92317327D01*
X119556979Y-92317327D01*
X119557284Y-92317285D01*
X119698215Y-92282200D01*
X119838531Y-92247269D01*
X119839754Y-92247033D01*
X119920468Y-92236020D01*
X119980205Y-92227870D01*
X119982744Y-92227802D01*
X120049039Y-92233244D01*
X120124861Y-92239468D01*
X120128192Y-92240244D01*
X120274290Y-92297891D01*
X120277216Y-92299569D01*
X120420368Y-92411941D01*
X120424760Y-92419744D01*
X120422347Y-92428367D01*
X120421417Y-92429416D01*
X119377705Y-93473128D01*
X119369432Y-93476555D01*
X119361868Y-93473782D01*
X119275828Y-93400880D01*
X119272645Y-93398183D01*
X119184020Y-93352025D01*
X119183204Y-93351865D01*
X119183201Y-93351864D01*
X119101742Y-93335900D01*
X119100941Y-93335743D01*
X119100129Y-93335814D01*
X119100128Y-93335814D01*
X119074159Y-93338085D01*
X119020138Y-93342809D01*
X118989980Y-93351616D01*
X118938601Y-93366621D01*
X118938594Y-93366623D01*
X118938342Y-93366697D01*
X118938093Y-93366796D01*
X118852282Y-93400880D01*
X118759007Y-93438698D01*
X118758348Y-93438942D01*
X118654900Y-93473810D01*
X118653662Y-93474153D01*
X118536625Y-93499739D01*
X118534992Y-93499977D01*
X118407823Y-93509419D01*
X118399319Y-93506614D01*
X118396492Y-93502983D01*
X118004896Y-92719793D01*
X118004261Y-92710861D01*
X118009447Y-92704466D01*
X118480778Y-92428367D01*
X118958812Y-92148341D01*
X118967683Y-92147116D01*
X118971950Y-92149233D01*
G37*
%TD.AperFunction*%
%TD*%
%TA.AperFunction,Conductor*%
%TO.N,unconnected-(U1-Pad2)*%
G36*
X156068280Y-82842926D02*
G01*
X156070751Y-82846571D01*
X156363378Y-83526200D01*
X156549021Y-83957361D01*
X156549145Y-83966315D01*
X156547106Y-83969662D01*
X156045069Y-84547254D01*
X155823370Y-84802317D01*
X155815356Y-84806313D01*
X155811313Y-84805888D01*
X155584935Y-84740950D01*
X155584293Y-84740746D01*
X155393937Y-84674068D01*
X155393373Y-84673854D01*
X155340430Y-84652183D01*
X155234822Y-84608956D01*
X155234525Y-84608828D01*
X155096734Y-84547254D01*
X154968891Y-84490662D01*
X154943430Y-84480784D01*
X154840435Y-84440823D01*
X154840422Y-84440819D01*
X154840204Y-84440734D01*
X154699732Y-84399087D01*
X154536536Y-84367338D01*
X154339674Y-84347104D01*
X154161708Y-84341868D01*
X154109563Y-84340334D01*
X154101394Y-84336665D01*
X154098207Y-84328639D01*
X154098207Y-82851699D01*
X154101634Y-82843426D01*
X154109905Y-82839999D01*
X154366059Y-82839986D01*
X154586643Y-82839948D01*
X154771776Y-82839892D01*
X154933275Y-82839824D01*
X155082957Y-82839750D01*
X155232638Y-82839676D01*
X155394137Y-82839607D01*
X155394139Y-82839607D01*
X155579270Y-82839552D01*
X155579271Y-82839552D01*
X155799854Y-82839514D01*
X155799889Y-82839514D01*
X156060007Y-82839500D01*
X156068280Y-82842926D01*
G37*
%TD.AperFunction*%
%TD*%
%TA.AperFunction,Conductor*%
%TO.N,GND*%
G36*
X123192883Y-109693638D02*
G01*
X123196136Y-109696185D01*
X123898041Y-110482207D01*
X123900995Y-110490660D01*
X123898041Y-110497793D01*
X123196135Y-111283816D01*
X123188070Y-111287703D01*
X123183971Y-111287205D01*
X123122170Y-111268188D01*
X123050054Y-111252921D01*
X122973624Y-111242734D01*
X122973467Y-111242723D01*
X122973462Y-111242722D01*
X122891817Y-111236756D01*
X122891801Y-111236755D01*
X122891716Y-111236749D01*
X122891618Y-111236746D01*
X122891617Y-111236746D01*
X122881689Y-111236448D01*
X122803165Y-111234089D01*
X122744217Y-111233961D01*
X122706873Y-111233879D01*
X122706807Y-111233879D01*
X122601476Y-111235242D01*
X122486044Y-111237300D01*
X122486008Y-111237301D01*
X122359280Y-111239178D01*
X122359176Y-111239179D01*
X122298452Y-111239537D01*
X122231768Y-111239931D01*
X122223476Y-111236553D01*
X122220000Y-111228231D01*
X122220000Y-109740000D01*
X122359237Y-109740820D01*
X122486008Y-109742698D01*
X122526437Y-109743419D01*
X122601476Y-109744757D01*
X122706807Y-109746120D01*
X122706873Y-109746120D01*
X122744217Y-109746038D01*
X122803165Y-109745910D01*
X122886090Y-109743419D01*
X122891617Y-109743253D01*
X122891618Y-109743253D01*
X122891716Y-109743250D01*
X122891801Y-109743244D01*
X122891817Y-109743243D01*
X122973462Y-109737277D01*
X122973467Y-109737276D01*
X122973624Y-109737265D01*
X123050054Y-109727078D01*
X123122170Y-109711811D01*
X123183969Y-109692795D01*
X123192883Y-109693638D01*
G37*
%TD.AperFunction*%
%TD*%
%TA.AperFunction,Conductor*%
%TO.N,unconnected-(U1-Pad5)*%
G36*
X149718983Y-88843188D02*
G01*
X149840172Y-88846024D01*
X149840800Y-88846056D01*
X149928888Y-88852870D01*
X150051747Y-88862375D01*
X150052409Y-88862445D01*
X150228797Y-88886485D01*
X150229383Y-88886580D01*
X150382877Y-88915790D01*
X150383220Y-88915862D01*
X150525440Y-88947699D01*
X150667757Y-88979557D01*
X150667847Y-88979577D01*
X150821787Y-89008872D01*
X150998794Y-89032996D01*
X150998974Y-89033010D01*
X150998984Y-89033011D01*
X151117589Y-89042186D01*
X151210400Y-89049366D01*
X151210548Y-89049369D01*
X151210558Y-89049370D01*
X151364808Y-89052980D01*
X151460114Y-89055210D01*
X151468304Y-89058830D01*
X151470852Y-89062953D01*
X151907739Y-90279730D01*
X151907309Y-90288675D01*
X151903556Y-90293185D01*
X151008924Y-90936207D01*
X151000207Y-90938252D01*
X150996358Y-90936902D01*
X150818373Y-90836742D01*
X150817822Y-90836412D01*
X150667330Y-90740487D01*
X150666944Y-90740230D01*
X150540917Y-90652679D01*
X150540826Y-90652615D01*
X150430302Y-90574270D01*
X150430294Y-90574265D01*
X150430210Y-90574205D01*
X150326001Y-90505768D01*
X150281692Y-90481854D01*
X150219449Y-90448260D01*
X150219444Y-90448258D01*
X150219137Y-90448092D01*
X150218811Y-90447965D01*
X150100861Y-90402068D01*
X150100858Y-90402067D01*
X150100498Y-90401927D01*
X149960964Y-90368023D01*
X149791418Y-90347130D01*
X149791161Y-90347121D01*
X149791158Y-90347121D01*
X149594041Y-90340386D01*
X149585890Y-90336679D01*
X149582741Y-90328693D01*
X149582741Y-88851977D01*
X149586168Y-88843704D01*
X149594715Y-88840280D01*
X149718983Y-88843188D01*
G37*
%TD.AperFunction*%
%TD*%
%TA.AperFunction,Conductor*%
%TO.N,GND*%
G36*
X166101224Y-112466618D02*
G01*
X166937292Y-112745308D01*
X166944057Y-112751176D01*
X166944692Y-112752708D01*
X167140911Y-113341362D01*
X167223382Y-113588775D01*
X167222747Y-113597707D01*
X167220501Y-113600802D01*
X167071805Y-113747585D01*
X167071681Y-113747706D01*
X166943164Y-113870854D01*
X166943027Y-113870983D01*
X166833527Y-113972573D01*
X166833400Y-113972689D01*
X166736497Y-114059982D01*
X166645858Y-114140156D01*
X166555218Y-114220331D01*
X166458248Y-114307685D01*
X166348614Y-114409399D01*
X166219985Y-114532654D01*
X166219971Y-114532667D01*
X166138978Y-114612620D01*
X166074303Y-114676463D01*
X166066009Y-114679837D01*
X166057812Y-114676410D01*
X165013591Y-113632189D01*
X165010164Y-113623916D01*
X165013537Y-113615697D01*
X165157345Y-113470014D01*
X165157354Y-113470005D01*
X165280600Y-113341385D01*
X165280622Y-113341362D01*
X165382262Y-113231807D01*
X165382314Y-113231751D01*
X165469668Y-113134781D01*
X165549843Y-113044141D01*
X165630017Y-112953502D01*
X165717310Y-112856599D01*
X165717426Y-112856472D01*
X165819016Y-112746972D01*
X165819145Y-112746835D01*
X165942340Y-112618269D01*
X165942462Y-112618145D01*
X166089198Y-112469499D01*
X166097448Y-112466018D01*
X166101224Y-112466618D01*
G37*
%TD.AperFunction*%
%TD*%
%TA.AperFunction,Conductor*%
%TO.N,V Motor*%
G36*
X99439876Y-105831215D02*
G01*
X99569976Y-105832798D01*
X99570303Y-105832806D01*
X99631827Y-105835275D01*
X99759410Y-105840395D01*
X99759702Y-105840411D01*
X99918220Y-105851591D01*
X99918479Y-105851612D01*
X100056714Y-105865194D01*
X100056821Y-105865206D01*
X100185000Y-105880000D01*
X100313227Y-105894800D01*
X100313286Y-105894806D01*
X100313297Y-105894807D01*
X100406323Y-105903946D01*
X100451647Y-105908399D01*
X100451723Y-105908404D01*
X100451742Y-105908406D01*
X100587619Y-105917989D01*
X100610454Y-105919600D01*
X100610498Y-105919602D01*
X100610502Y-105919602D01*
X100687553Y-105922694D01*
X100799840Y-105927200D01*
X100799931Y-105927201D01*
X100799964Y-105927202D01*
X100921541Y-105928681D01*
X101018443Y-105929859D01*
X101026673Y-105933386D01*
X101030000Y-105941558D01*
X101030000Y-107418442D01*
X101026573Y-107426715D01*
X101018443Y-107430141D01*
X100921541Y-107431319D01*
X100799964Y-107432798D01*
X100799931Y-107432799D01*
X100799840Y-107432800D01*
X100687553Y-107437306D01*
X100610502Y-107440398D01*
X100610498Y-107440398D01*
X100610454Y-107440400D01*
X100587522Y-107442017D01*
X100451742Y-107451593D01*
X100451723Y-107451595D01*
X100451647Y-107451600D01*
X100406534Y-107456032D01*
X100313297Y-107465193D01*
X100313286Y-107465194D01*
X100313227Y-107465200D01*
X100185000Y-107480000D01*
X100056821Y-107494794D01*
X100056714Y-107494806D01*
X99918479Y-107508387D01*
X99918220Y-107508408D01*
X99759702Y-107519589D01*
X99759410Y-107519605D01*
X99631827Y-107524725D01*
X99570303Y-107527194D01*
X99569976Y-107527202D01*
X99439876Y-107528785D01*
X99347329Y-107529911D01*
X99339015Y-107526585D01*
X99336722Y-107523444D01*
X98917616Y-106685232D01*
X98916981Y-106676300D01*
X98917616Y-106674768D01*
X99336722Y-105836556D01*
X99343487Y-105830688D01*
X99347328Y-105830089D01*
X99439876Y-105831215D01*
G37*
%TD.AperFunction*%
%TD*%
%TA.AperFunction,Conductor*%
%TO.N,unconnected-(U1-Pad14)*%
G36*
X134444976Y-98884332D02*
G01*
X134448403Y-98892605D01*
X134448308Y-98894093D01*
X134419993Y-99114848D01*
X134418983Y-99118324D01*
X134338460Y-99290194D01*
X134336425Y-99293205D01*
X134217618Y-99420662D01*
X134215621Y-99422371D01*
X134142825Y-99471677D01*
X134070370Y-99520751D01*
X134069279Y-99521406D01*
X133750160Y-99689794D01*
X133603279Y-99789277D01*
X133482320Y-99919045D01*
X133400240Y-100094238D01*
X133400125Y-100095138D01*
X133371005Y-100322165D01*
X133366553Y-100329934D01*
X133362357Y-100331996D01*
X132753421Y-100491053D01*
X132027041Y-100680786D01*
X132018171Y-100679561D01*
X132012985Y-100673166D01*
X131665501Y-99630714D01*
X131666136Y-99621782D01*
X131669381Y-99617807D01*
X131825495Y-99495380D01*
X131827819Y-99493961D01*
X131983190Y-99422371D01*
X131997472Y-99415791D01*
X131999496Y-99415075D01*
X132171896Y-99371544D01*
X132173213Y-99371291D01*
X132342643Y-99348766D01*
X132343074Y-99348716D01*
X132364140Y-99346716D01*
X132503286Y-99333501D01*
X132503298Y-99333500D01*
X132503419Y-99333488D01*
X132618695Y-99316152D01*
X132647695Y-99311791D01*
X132647696Y-99311791D01*
X132648213Y-99311713D01*
X132648704Y-99311544D01*
X132648706Y-99311544D01*
X132770300Y-99269817D01*
X132771259Y-99269488D01*
X132866565Y-99192893D01*
X132928143Y-99068006D01*
X132940968Y-98958220D01*
X132948792Y-98891247D01*
X132953156Y-98883428D01*
X132960413Y-98880905D01*
X134436703Y-98880905D01*
X134444976Y-98884332D01*
G37*
%TD.AperFunction*%
%TD*%
%TA.AperFunction,Conductor*%
%TO.N,unconnected-(U1-Pad12)*%
G36*
X138446518Y-100816808D02*
G01*
X138449945Y-100825136D01*
X138448892Y-101050027D01*
X138448749Y-101080510D01*
X138448748Y-101080636D01*
X138445351Y-101300642D01*
X138445348Y-101300778D01*
X138440345Y-101485311D01*
X138440341Y-101485435D01*
X138434265Y-101646376D01*
X138434262Y-101646453D01*
X138427646Y-101795735D01*
X138421029Y-101945016D01*
X138421028Y-101945030D01*
X138414948Y-102106094D01*
X138414946Y-102106154D01*
X138409941Y-102290768D01*
X138406543Y-102510833D01*
X138406543Y-102510871D01*
X138405328Y-102770333D01*
X138401862Y-102778590D01*
X138398133Y-102781076D01*
X137266251Y-103253336D01*
X137257296Y-103253359D01*
X137253686Y-103251019D01*
X136454327Y-102491066D01*
X136450693Y-102482883D01*
X136451299Y-102478859D01*
X136524823Y-102260107D01*
X136525054Y-102259479D01*
X136598869Y-102075454D01*
X136599097Y-102074924D01*
X136669572Y-101921595D01*
X136669710Y-101921306D01*
X136735485Y-101787935D01*
X136735505Y-101787893D01*
X136795025Y-101664108D01*
X136795107Y-101663938D01*
X136847076Y-101538799D01*
X136863791Y-101485435D01*
X136889883Y-101402129D01*
X136889972Y-101401845D01*
X136922373Y-101242405D01*
X136931776Y-101153994D01*
X136942833Y-101050027D01*
X136942834Y-101050020D01*
X136942856Y-101049808D01*
X136949657Y-100824728D01*
X136953332Y-100816562D01*
X136961352Y-100813381D01*
X138438245Y-100813381D01*
X138446518Y-100816808D01*
G37*
%TD.AperFunction*%
%TD*%
%TA.AperFunction,Conductor*%
%TO.N,GND*%
G36*
X114660243Y-109690455D02*
G01*
X114806276Y-109691400D01*
X114806450Y-109691403D01*
X114898529Y-109693367D01*
X114984361Y-109695198D01*
X114984468Y-109695201D01*
X115040722Y-109697309D01*
X115133813Y-109700798D01*
X115133985Y-109700806D01*
X115264168Y-109707598D01*
X115264273Y-109707604D01*
X115385000Y-109715000D01*
X115505783Y-109722400D01*
X115636120Y-109729199D01*
X115748400Y-109733407D01*
X115785509Y-109734798D01*
X115785520Y-109734798D01*
X115785566Y-109734800D01*
X115963675Y-109738600D01*
X116027704Y-109739014D01*
X116168376Y-109739925D01*
X116176627Y-109743406D01*
X116180000Y-109751625D01*
X116180000Y-111228375D01*
X116176573Y-111236648D01*
X116168376Y-111240075D01*
X116027704Y-111240986D01*
X115963675Y-111241400D01*
X115785566Y-111245200D01*
X115785520Y-111245202D01*
X115785509Y-111245202D01*
X115636120Y-111250800D01*
X115505835Y-111257597D01*
X115505798Y-111257599D01*
X115505783Y-111257600D01*
X115385000Y-111265000D01*
X115264228Y-111272399D01*
X115264203Y-111272401D01*
X115220770Y-111274666D01*
X115133987Y-111279193D01*
X115133816Y-111279201D01*
X115050510Y-111282324D01*
X114984468Y-111284799D01*
X114984361Y-111284802D01*
X114901003Y-111286580D01*
X114806450Y-111288597D01*
X114806276Y-111288600D01*
X114660243Y-111289545D01*
X114597283Y-111289953D01*
X114588988Y-111286580D01*
X114586742Y-111283485D01*
X114192616Y-110495232D01*
X114191981Y-110486300D01*
X114192616Y-110484768D01*
X114586743Y-109696514D01*
X114593507Y-109690647D01*
X114597282Y-109690047D01*
X114660243Y-109690455D01*
G37*
%TD.AperFunction*%
%TD*%
%TA.AperFunction,Conductor*%
%TO.N,Net-(A1-Pad4)*%
G36*
X99439876Y-94401215D02*
G01*
X99569976Y-94402798D01*
X99570303Y-94402806D01*
X99631827Y-94405275D01*
X99759410Y-94410395D01*
X99759702Y-94410411D01*
X99918220Y-94421591D01*
X99918479Y-94421612D01*
X100056714Y-94435194D01*
X100056821Y-94435206D01*
X100185000Y-94450000D01*
X100313227Y-94464800D01*
X100313286Y-94464806D01*
X100313297Y-94464807D01*
X100406323Y-94473946D01*
X100451647Y-94478399D01*
X100451723Y-94478404D01*
X100451742Y-94478406D01*
X100587619Y-94487989D01*
X100610454Y-94489600D01*
X100610498Y-94489602D01*
X100610502Y-94489602D01*
X100687553Y-94492694D01*
X100799840Y-94497200D01*
X100799931Y-94497201D01*
X100799964Y-94497202D01*
X100921541Y-94498681D01*
X101018443Y-94499859D01*
X101026673Y-94503386D01*
X101030000Y-94511558D01*
X101030000Y-95988442D01*
X101026573Y-95996715D01*
X101018443Y-96000141D01*
X100921541Y-96001319D01*
X100799964Y-96002798D01*
X100799931Y-96002799D01*
X100799840Y-96002800D01*
X100687553Y-96007306D01*
X100610502Y-96010398D01*
X100610498Y-96010398D01*
X100610454Y-96010400D01*
X100587522Y-96012017D01*
X100451742Y-96021593D01*
X100451723Y-96021595D01*
X100451647Y-96021600D01*
X100406534Y-96026032D01*
X100313297Y-96035193D01*
X100313286Y-96035194D01*
X100313227Y-96035200D01*
X100185000Y-96050000D01*
X100056821Y-96064794D01*
X100056714Y-96064806D01*
X99918479Y-96078387D01*
X99918220Y-96078408D01*
X99759702Y-96089589D01*
X99759410Y-96089605D01*
X99631827Y-96094725D01*
X99570303Y-96097194D01*
X99569976Y-96097202D01*
X99439876Y-96098785D01*
X99347329Y-96099911D01*
X99339015Y-96096585D01*
X99336722Y-96093444D01*
X98917616Y-95255232D01*
X98916981Y-95246300D01*
X98917616Y-95244768D01*
X99336722Y-94406556D01*
X99343487Y-94400688D01*
X99347328Y-94400089D01*
X99439876Y-94401215D01*
G37*
%TD.AperFunction*%
%TD*%
%TA.AperFunction,Conductor*%
%TO.N,End Switch*%
G36*
X147391787Y-102684911D02*
G01*
X148436142Y-103729266D01*
X148439569Y-103737539D01*
X148436144Y-103745809D01*
X148254230Y-103927797D01*
X148097681Y-104084555D01*
X147966359Y-104216186D01*
X147851855Y-104331067D01*
X147745759Y-104437571D01*
X147639665Y-104544073D01*
X147639663Y-104544076D01*
X147525158Y-104658956D01*
X147525157Y-104658955D01*
X147525156Y-104658958D01*
X147495190Y-104688995D01*
X147393840Y-104790582D01*
X147393836Y-104790587D01*
X147237288Y-104947345D01*
X147237287Y-104947344D01*
X147237286Y-104947347D01*
X147052546Y-105132164D01*
X147044273Y-105135593D01*
X147039957Y-105134768D01*
X145917197Y-104688995D01*
X145910772Y-104682757D01*
X145909845Y-104678979D01*
X145828968Y-103578698D01*
X145831780Y-103570196D01*
X145834930Y-103567627D01*
X146041854Y-103451994D01*
X146042451Y-103451682D01*
X146224998Y-103363047D01*
X146225549Y-103362797D01*
X146384217Y-103295659D01*
X146384564Y-103295518D01*
X146526197Y-103240871D01*
X146657125Y-103189901D01*
X146657264Y-103189847D01*
X146784236Y-103133560D01*
X146913743Y-103063066D01*
X147052413Y-102969418D01*
X147206873Y-102843670D01*
X147207014Y-102843537D01*
X147207022Y-102843530D01*
X147375487Y-102684672D01*
X147383857Y-102681489D01*
X147391787Y-102684911D01*
G37*
%TD.AperFunction*%
%TD*%
M02*
