M48
; DRILL file {KiCad (6.0.5)} date Mon Jun 12 09:42:53 2023
; FORMAT={-:-/ absolute / inch / decimal}
; #@! TF.CreationDate,2023-06-12T09:42:53-03:00
; #@! TF.GenerationSoftware,Kicad,Pcbnew,(6.0.5)
; #@! TF.FileFunction,Plated,1,2,PTH
FMAT,2
INCH
; #@! TA.AperFunction,Plated,PTH,ComponentDrill
T1C0.0315
; #@! TA.AperFunction,Plated,PTH,ComponentDrill
T2C0.0354
; #@! TA.AperFunction,Plated,PTH,ViaDrill
T3C0.0394
; #@! TA.AperFunction,Plated,PTH,ComponentDrill
T4C0.0394
; #@! TA.AperFunction,Plated,PTH,ComponentDrill
T5C0.0433
%
G90
G05
T1
X4.1614Y-3.45
X4.1614Y-3.55
X4.1614Y-3.65
X4.1614Y-3.75
X4.1614Y-3.85
X4.1614Y-3.95
X4.1614Y-4.05
X4.1614Y-4.15
X4.2114Y-4.35
X4.5114Y-4.35
X4.6614Y-3.45
X4.6614Y-3.55
X4.6614Y-3.65
X4.6614Y-3.75
X4.6614Y-3.85
X4.6614Y-3.95
X4.6614Y-4.05
X4.6614Y-4.15
X6.1114Y-3.4
X6.1114Y-3.7
X6.158Y-3.999
X6.158Y-4.299
X6.2614Y-3.55
X6.2614Y-3.85
X6.2614Y-4.0
X6.2614Y-4.15
X6.2614Y-4.3
X6.2614Y-4.45
X6.4114Y-3.55
X6.4114Y-3.85
X6.5614Y-4.0
X6.5614Y-4.15
X6.5614Y-4.3
X6.5614Y-4.45
T2
X6.6614Y-4.0
X6.6614Y-4.2
X6.6614Y-4.4
X6.7614Y-4.0
X6.7614Y-4.2
X6.7614Y-4.4
T3
X4.7114Y-4.25
X4.7114Y-4.6212
X4.7614Y-4.3
X5.1114Y-3.95
X5.2114Y-3.95
X5.324Y-3.9626
X5.4097Y-4.0464
X5.5121Y-4.0435
X5.5988Y-3.9626
X5.7114Y-3.95
X5.7614Y-4.1114
X5.7614Y-4.5386
X5.8114Y-3.95
X5.9114Y-4.1114
X5.9114Y-4.4558
X5.9252Y-3.6362
X5.9633Y-3.5455
X6.0345Y-3.4776
X6.078Y-4.3673
X6.0787Y-3.9
X6.1444Y-3.3008
T4
X3.911Y-3.65
X3.911Y-3.75
X3.911Y-3.85
X3.911Y-3.95
X3.911Y-4.1
X3.911Y-4.2
X3.9114Y-4.35
X4.0114Y-4.35
X4.8114Y-3.2114
X4.8114Y-3.3114
X4.8614Y-4.35
X4.9614Y-4.35
T5
X6.5728Y-3.172
X6.5728Y-3.428
X6.5728Y-3.572
X6.5728Y-3.828
X6.75Y-3.172
X6.75Y-3.428
X6.75Y-3.572
X6.75Y-3.828
T0
M30
